<?xml version="1.0" encoding="UTF-8"?>
<svg xmlns="http://www.w3.org/2000/svg" viewBox="0 0 479.16 446.24">
  <defs>
    <style>
      .cls-1 {
        fill: #fff;
      }

      .cls-2 {
        fill: #fafafa;
      }

      .cls-3 {
        fill: #f5f5f5;
      }

      .cls-4 {
        fill: #455a64;
      }

      .cls-5 {
        fill: #e0e0e0;
      }

      .cls-6 {
        fill: #ff725e;
      }

      .cls-7 {
        opacity: .3;
      }

      .cls-8 {
        fill: #ca735c;
      }

      .cls-9 {
        fill: #ffd39d;
      }

      .cls-10 {
        fill: #ebebeb;
      }

      .cls-11 {
        fill: #263238;
      }
    </style>
  </defs>
  <g id="Background_Complete" data-name="Background Complete">
    <path class="cls-5" d="m23.45,154.25c0-.14,101.55-.26,226.78-.26s226.8.12,226.8.26-101.52.26-226.8.26-226.78-.12-226.78-.26Z"/>
    <g>
      <path class="cls-5" d="m197.29,35.42c-.42.21-11.63,6.02-11.63,6.02l2.28,2.8,9.97-7.68-.62-1.14Z"/>
      <path class="cls-5" d="m198.94,38.63c-.33.32-9.25,9.27-9.25,9.27l3.03,1.98,7.17-10.35-.94-.9Z"/>
      <path class="cls-5" d="m195.74,32.2c-.46.05-12.73.65-12.73.65l.88,4.35,12.03-3.71-.18-1.29Z"/>
      <path class="cls-5" d="m196.07,28.78c-.46-.08-12.39-2.97-12.39-2.97l-.38,4.42,12.59-.16.19-1.29Z"/>
      <path class="cls-5" d="m198.17,26.2c-.36-.29-9.53-8.46-9.53-8.46l-2.42,3.72,11.18,5.79.77-1.05Z"/>
      <path class="cls-5" d="m200.77,24.91c-.17-.43-4.08-12.07-4.08-12.07l-3.94,2.03,6.83,10.57,1.19-.53Z"/>
      <path class="cls-5" d="m204.59,24.53c.05-.46,1.97-12.59,1.97-12.59l-4.43-.03,1.17,12.53,1.3.08Z"/>
      <path class="cls-5" d="m208.12,32.62c0,1.87-1.52,3.39-3.39,3.39s-3.39-1.52-3.39-3.39,1.52-3.39,3.39-3.39,3.39,1.52,3.39,3.39Z"/>
      <path class="cls-5" d="m192.2,147.66c-.18-.02,2.08-24.3,5.05-54.24,2.97-29.94,5.53-54.2,5.71-54.18.18.02-2.08,24.3-5.06,54.24-2.97,29.93-5.53,54.19-5.71,54.17Z"/>
      <path class="cls-5" d="m218.39,146.9c-.18.02-2.73-23.75-5.69-53.09-2.97-29.35-5.22-53.14-5.04-53.16.18-.02,2.73,23.75,5.69,53.09,2.96,29.34,5.22,53.14,5.04,53.15Z"/>
      <path class="cls-5" d="m211.44,79.09c0,.18-2.62.33-5.86.33s-5.86-.15-5.86-.33,2.62-.33,5.86-.33,5.86.15,5.86.33Z"/>
      <path class="cls-5" d="m213.95,105.71c0,.18-3.83.33-8.55.33s-8.55-.15-8.55-.33,3.83-.33,8.55-.33,8.55.15,8.55.33Z"/>
      <path class="cls-5" d="m217.05,132.86c0,.18-5.19.33-11.59.33s-11.59-.15-11.59-.33,5.19-.33,11.59-.33,11.59.15,11.59.33Z"/>
      <path class="cls-5" d="m205.04,34.7c.18,0,.54,25.12.81,56.1.26,30.99.33,56.1.15,56.11-.18,0-.54-25.11-.81-56.1-.26-30.98-.33-56.1-.15-56.1Z"/>
      <path class="cls-5" d="m220.3,33.19s-.02-.09-.03-.26c-.01-.19-.03-.44-.05-.76-.01-.17-.02-.35-.04-.56-.02-.2-.07-.42-.1-.67-.08-.48-.15-1.04-.34-1.64-.28-1.23-.86-2.68-1.77-4.22-.92-1.53-2.24-3.13-4.04-4.49-1.79-1.34-4.05-2.49-6.66-2.95-2.59-.44-5.52-.36-8.3.7-.71.23-1.37.58-2.06.91-.65.39-1.33.75-1.94,1.25-.64.44-1.2.99-1.79,1.52-.53.59-1.09,1.16-1.55,1.83-.94,1.31-1.76,2.76-2.26,4.35-.51,1.59-.79,3.27-.81,4.98.02,1.71.3,3.4.81,4.98.5,1.6,1.32,3.05,2.26,4.35.46.67,1.02,1.24,1.55,1.83.59.53,1.15,1.08,1.79,1.52.6.49,1.29.85,1.94,1.25.68.33,1.35.68,2.06.91,2.79,1.06,5.71,1.14,8.3.7,2.61-.46,4.87-1.6,6.66-2.95,1.8-1.36,3.12-2.96,4.04-4.49.91-1.54,1.49-2.99,1.77-4.22.19-.61.26-1.16.34-1.64.04-.24.08-.46.1-.67.01-.2.03-.39.04-.56.02-.32.04-.57.05-.76.01-.17.02-.26.03-.26s0,.09,0,.26c0,.19-.01.44-.02.76,0,.17-.01.36-.02.56-.02.21-.06.43-.09.67-.07.48-.13,1.05-.31,1.66-.27,1.24-.83,2.72-1.74,4.28-.91,1.56-2.24,3.19-4.05,4.58-1.81,1.38-4.1,2.55-6.75,3.03-2.63.46-5.61.39-8.46-.68-.72-.23-1.4-.59-2.1-.92-.66-.4-1.36-.77-1.98-1.27-.66-.45-1.23-1.01-1.83-1.55-.54-.6-1.11-1.19-1.58-1.87-.96-1.33-1.8-2.81-2.31-4.44-.53-1.62-.81-3.34-.83-5.09.02-1.75.31-3.47.83-5.08.51-1.63,1.35-3.11,2.31-4.44.47-.68,1.04-1.27,1.58-1.87.6-.54,1.17-1.1,1.83-1.55.62-.5,1.31-.87,1.98-1.27.7-.33,1.38-.69,2.1-.92,2.84-1.07,5.82-1.14,8.45-.68,2.65.48,4.94,1.66,6.75,3.03,1.82,1.39,3.14,3.02,4.05,4.58.91,1.57,1.47,3.04,1.74,4.28.18.61.24,1.18.31,1.66.03.24.07.47.09.67,0,.2.01.39.02.56,0,.32.02.57.02.76,0,.17,0,.26,0,.26Z"/>
      <path class="cls-5" d="m210.32,28.02c.51.07,11.98-3.35,11.98-3.35l-3.21-5.62-9.14,7.92.37,1.06Z"/>
      <path class="cls-5" d="m207.66,25.34c.33-.32,9.88-8.94,9.88-8.94l-4.51-3.46-6.31,11.96.95.44Z"/>
      <path class="cls-5" d="m211.69,32.35c.46-.05,12.73-.65,12.73-.65l-.88-4.35-12.03,3.71.18,1.29Z"/>
      <path class="cls-5" d="m211.12,36.7c.45.1,12.24,3.53,12.24,3.53l.58-4.4-12.58-.41-.25,1.28Z"/>
      <path class="cls-5" d="m209.4,39.59c.36.29,9.53,8.46,9.53,8.46l2.42-3.72-11.18-5.79-.77,1.05Z"/>
      <path class="cls-5" d="m206.71,40.14c.17.43,4.08,12.07,4.08,12.07l3.94-2.03-6.83-10.57-1.19.53Z"/>
      <path class="cls-5" d="m202.05,39.84c-.1.45-3.38,12.29-3.38,12.29l4.4.53.25-12.59-1.28-.23Z"/>
    </g>
    <g>
      <path class="cls-5" d="m304.71,39.67h.44c1.18,0,2.14.96,2.14,2.14v84.95c0,1.18-.96,2.14-2.14,2.14h-.44c-1.18,0-2.14-.96-2.14-2.14V41.81c0-1.18.96-2.14,2.14-2.14Z"/>
      <path class="cls-10" d="m319.16,15.08h2.66c7.07,0,12.8,5.74,12.8,12.8v99.97c0,1.42-1.15,2.58-2.58,2.58h-23.11c-1.42,0-2.58-1.15-2.58-2.58V27.88c0-7.07,5.74-12.8,12.8-12.8Z"/>
      <rect class="cls-5" x="281.09" y="128.9" width="54.54" height="2.08"/>
      <rect class="cls-10" x="283.4" y="130.43" width="51.23" height="23.26"/>
      <path class="cls-5" d="m334.84,34.59c0,.07-6.36.12-14.2.12s-14.21-.05-14.21-.12,6.36-.12,14.21-.12,14.2.05,14.2.12Z"/>
      <path class="cls-5" d="m334.84,40.21c0,.07-6.36.12-14.2.12s-14.21-.05-14.21-.12,6.36-.12,14.21-.12,14.2.05,14.2.12Z"/>
      <path class="cls-5" d="m334.84,45.83c0,.07-6.36.12-14.2.12s-14.21-.05-14.21-.12,6.36-.12,14.21-.12,14.2.05,14.2.12Z"/>
      <path class="cls-5" d="m334.84,51.45c0,.07-6.36.12-14.2.12s-14.21-.05-14.21-.12,6.36-.12,14.21-.12,14.2.05,14.2.12Z"/>
      <path class="cls-5" d="m334.84,57.06c0,.07-6.36.12-14.2.12s-14.21-.05-14.21-.12,6.36-.12,14.21-.12,14.2.05,14.2.12Z"/>
      <path class="cls-5" d="m334.84,62.68c0,.07-6.36.12-14.2.12s-14.21-.05-14.21-.12,6.36-.12,14.21-.12,14.2.05,14.2.12Z"/>
      <path class="cls-5" d="m334.84,68.3c0,.07-6.36.12-14.2.12s-14.21-.05-14.21-.12,6.36-.12,14.21-.12,14.2.05,14.2.12Z"/>
      <path class="cls-5" d="m334.84,73.91c0,.07-6.36.12-14.2.12s-14.21-.05-14.21-.12,6.36-.12,14.21-.12,14.2.05,14.2.12Z"/>
      <path class="cls-5" d="m334.84,79.53c0,.07-6.36.12-14.2.12s-14.21-.05-14.21-.12,6.36-.12,14.21-.12,14.2.05,14.2.12Z"/>
      <path class="cls-5" d="m334.84,85.15c0,.07-6.36.12-14.2.12s-14.21-.05-14.21-.12,6.36-.12,14.21-.12,14.2.05,14.2.12Z"/>
      <path class="cls-5" d="m334.84,90.77c0,.07-6.36.12-14.2.12s-14.21-.05-14.21-.12,6.36-.12,14.21-.12,14.2.05,14.2.12Z"/>
      <path class="cls-5" d="m334.84,96.38c0,.07-6.36.12-14.2.12s-14.21-.05-14.21-.12,6.36-.12,14.21-.12,14.2.05,14.2.12Z"/>
      <path class="cls-5" d="m334.84,102c0,.07-6.36.12-14.2.12s-14.21-.05-14.21-.12,6.36-.12,14.21-.12,14.2.05,14.2.12Z"/>
      <path class="cls-5" d="m334.84,107.62c0,.07-6.36.12-14.2.12s-14.21-.05-14.21-.12,6.36-.12,14.21-.12,14.2.05,14.2.12Z"/>
      <path class="cls-5" d="m334.84,113.4c0,.07-6.36.12-14.2.12s-14.21-.05-14.21-.12,6.36-.12,14.21-.12,14.2.05,14.2.12Z"/>
      <path class="cls-5" d="m334.84,119.19c0,.07-6.36.12-14.2.12s-14.21-.05-14.21-.12,6.36-.12,14.21-.12,14.2.05,14.2.12Z"/>
      <path class="cls-5" d="m334.84,124.97c0,.07-6.36.12-14.2.12s-14.21-.05-14.21-.12,6.36-.12,14.21-.12,14.2.05,14.2.12Z"/>
      <path class="cls-5" d="m281.09,130.99s0-.16-.01-.5c0-.35,0-.87-.02-1.59v-.03s.03,0,.03,0c6.17-.05,28.27-.09,54.54-.09h.12v.12c0,.71,0,1.42,0,2.08v.12h-.12c-15.18-.02-28.83-.04-38.69-.05-4.91-.02-8.88-.03-11.62-.04-1.36,0-2.42-.01-3.14-.02-.35,0-.62,0-.81,0-.18,0-.27,0-.27,0,0,0,.1,0,.29,0,.19,0,.47,0,.83,0,.73,0,1.8,0,3.17-.02,2.75,0,6.73-.02,11.65-.04,9.84-.01,23.45-.03,38.6-.05l-.12.12c0-.66,0-1.37,0-2.08l.12.12h0c-26.27,0-48.36-.04-54.54-.09l.03-.03c0,.7-.01,1.22-.02,1.57,0,.34-.01.51-.01.51Z"/>
      <polygon class="cls-5" points="426.69 101.33 471.54 101.33 476.3 123.09 426.69 123.09 426.69 101.33"/>
      <rect class="cls-3" x="426.69" y="122.92" width="45.69" height="30.77"/>
      <polygon class="cls-10" points="426.69 153.7 426.69 92.22 410.31 63.27 378.01 45.95 348.61 63.73 332.81 93.59 332.81 153.7 426.69 153.7"/>
      <path class="cls-5" d="m426.9,112.21c0,.07-21.06.12-47.04.12s-47.05-.05-47.05-.12,21.06-.12,47.05-.12,47.04.05,47.04.12Z"/>
      <path class="cls-5" d="m426.9,116.9c0,.07-21.06.12-47.04.12s-47.05-.05-47.05-.12,21.06-.12,47.05-.12,47.04.05,47.04.12Z"/>
      <path class="cls-5" d="m426.9,121.59c0,.07-21.07.12-47.05.12s-47.05-.05-47.05-.12,21.06-.12,47.05-.12,47.05.05,47.05.12Z"/>
      <path class="cls-5" d="m426.9,126.28c0,.07-21.07.12-47.05.12s-47.05-.05-47.05-.12,21.06-.12,47.05-.12,47.05.05,47.05.12Z"/>
      <path class="cls-5" d="m426.9,130.97c0,.07-21.06.12-47.04.12s-47.05-.05-47.05-.12,21.06-.12,47.05-.12,47.04.05,47.04.12Z"/>
      <path class="cls-5" d="m426.9,135.67c0,.07-21.06.12-47.04.12s-47.05-.05-47.05-.12,21.06-.12,47.05-.12,47.04.05,47.04.12Z"/>
      <path class="cls-5" d="m426.9,140.36c0,.07-21.06.12-47.04.12s-47.05-.05-47.05-.12,21.06-.12,47.05-.12,47.04.05,47.04.12Z"/>
      <rect class="cls-1" x="332.81" y="105.34" width="93.89" height="2.69"/>
      <rect class="cls-5" x="374.42" y="126.44" width="11.04" height="27.46"/>
      <g>
        <rect class="cls-1" x="332.81" y="144.79" width="30.68" height="2.44"/>
        <path class="cls-1" d="m334.56,153.5c-.07,0-.12-1.4-.12-3.13s.05-3.13.12-3.13.12,1.4.12,3.13-.05,3.13-.12,3.13Z"/>
        <path class="cls-1" d="m336.2,153.5c-.07,0-.12-1.4-.12-3.13s.05-3.13.12-3.13.12,1.4.12,3.13-.05,3.13-.12,3.13Z"/>
        <path class="cls-1" d="m337.85,153.5c-.07,0-.12-1.4-.12-3.13s.05-3.13.12-3.13.12,1.4.12,3.13-.05,3.13-.12,3.13Z"/>
        <path class="cls-1" d="m339.49,153.5c-.07,0-.12-1.4-.12-3.13s.05-3.13.12-3.13.12,1.4.12,3.13-.05,3.13-.12,3.13Z"/>
        <path class="cls-1" d="m341.14,153.5c-.07,0-.12-1.4-.12-3.13s.05-3.13.12-3.13.12,1.4.12,3.13-.05,3.13-.12,3.13Z"/>
        <path class="cls-1" d="m342.79,153.5c-.07,0-.12-1.4-.12-3.13s.05-3.13.12-3.13.12,1.4.12,3.13-.05,3.13-.12,3.13Z"/>
        <path class="cls-1" d="m344.43,153.5c-.07,0-.12-1.4-.12-3.13s.05-3.13.12-3.13.12,1.4.12,3.13-.05,3.13-.12,3.13Z"/>
        <path class="cls-1" d="m346.08,153.5c-.07,0-.12-1.4-.12-3.13s.05-3.13.12-3.13.12,1.4.12,3.13-.05,3.13-.12,3.13Z"/>
        <path class="cls-1" d="m347.72,153.5c-.07,0-.12-1.4-.12-3.13s.05-3.13.12-3.13.12,1.4.12,3.13-.05,3.13-.12,3.13Z"/>
        <path class="cls-1" d="m349.37,153.5c-.07,0-.12-1.4-.12-3.13s.05-3.13.12-3.13.12,1.4.12,3.13-.05,3.13-.12,3.13Z"/>
        <path class="cls-1" d="m351.01,153.5c-.07,0-.12-1.4-.12-3.13s.05-3.13.12-3.13.12,1.4.12,3.13-.05,3.13-.12,3.13Z"/>
        <path class="cls-1" d="m352.66,153.5c-.07,0-.12-1.4-.12-3.13s.05-3.13.12-3.13.12,1.4.12,3.13-.05,3.13-.12,3.13Z"/>
        <path class="cls-1" d="m354.31,153.5c-.07,0-.12-1.4-.12-3.13s.05-3.13.12-3.13.12,1.4.12,3.13-.05,3.13-.12,3.13Z"/>
        <path class="cls-1" d="m355.95,153.5c-.07,0-.12-1.4-.12-3.13s.05-3.13.12-3.13.12,1.4.12,3.13-.05,3.13-.12,3.13Z"/>
        <path class="cls-1" d="m357.6,153.5c-.07,0-.12-1.4-.12-3.13s.05-3.13.12-3.13.12,1.4.12,3.13-.05,3.13-.12,3.13Z"/>
        <path class="cls-1" d="m359.45,153.5c-.07,0-.12-1.4-.12-3.13s.05-3.13.12-3.13.12,1.4.12,3.13-.05,3.13-.12,3.13Z"/>
        <path class="cls-1" d="m361.31,153.5c-.07,0-.12-1.4-.12-3.13s.05-3.13.12-3.13.12,1.4.12,3.13-.05,3.13-.12,3.13Z"/>
      </g>
      <g>
        <rect class="cls-1" x="397.2" y="144.79" width="29.7" height="2.44"/>
        <path class="cls-1" d="m404.14,153.96c-.07,0-.12-1.49-.12-3.33s.05-3.33.12-3.33.12,1.49.12,3.33-.05,3.33-.12,3.33Z"/>
        <path class="cls-1" d="m402.35,153.92c-.07,0-.12-1.49-.12-3.33s.05-3.33.12-3.33.12,1.49.12,3.33-.05,3.33-.12,3.33Z"/>
        <path class="cls-1" d="m400.56,153.88c-.07,0-.12-1.49-.12-3.33s.05-3.33.12-3.33.12,1.49.12,3.33-.05,3.33-.12,3.33Z"/>
        <path class="cls-1" d="m398.64,153.88c-.07,0-.12-1.49-.12-3.33s.05-3.33.12-3.33.12,1.49.12,3.33-.05,3.33-.12,3.33Z"/>
        <path class="cls-1" d="m405.79,153.96c-.07,0-.12-1.49-.12-3.33s.05-3.33.12-3.33.12,1.49.12,3.33-.05,3.33-.12,3.33Z"/>
        <path class="cls-1" d="m407.43,153.96c-.07,0-.12-1.49-.12-3.33s.05-3.33.12-3.33.12,1.49.12,3.33-.05,3.33-.12,3.33Z"/>
        <path class="cls-1" d="m409.08,153.96c-.07,0-.12-1.49-.12-3.33s.05-3.33.12-3.33.12,1.49.12,3.33-.05,3.33-.12,3.33Z"/>
        <path class="cls-1" d="m410.73,153.96c-.07,0-.12-1.49-.12-3.33s.05-3.33.12-3.33.12,1.49.12,3.33-.05,3.33-.12,3.33Z"/>
        <path class="cls-1" d="m412.37,153.96c-.07,0-.12-1.49-.12-3.33s.05-3.33.12-3.33.12,1.49.12,3.33-.05,3.33-.12,3.33Z"/>
        <path class="cls-1" d="m414.02,153.96c-.07,0-.12-1.49-.12-3.33s.05-3.33.12-3.33.12,1.49.12,3.33-.05,3.33-.12,3.33Z"/>
        <path class="cls-1" d="m415.66,153.96c-.07,0-.12-1.49-.12-3.33s.05-3.33.12-3.33.12,1.49.12,3.33-.05,3.33-.12,3.33Z"/>
        <path class="cls-1" d="m417.31,153.96c-.07,0-.12-1.49-.12-3.33s.05-3.33.12-3.33.12,1.49.12,3.33-.05,3.33-.12,3.33Z"/>
        <path class="cls-1" d="m418.95,153.96c-.07,0-.12-1.49-.12-3.33s.05-3.33.12-3.33.12,1.49.12,3.33-.05,3.33-.12,3.33Z"/>
        <path class="cls-1" d="m420.6,153.96c-.07,0-.12-1.49-.12-3.33s.05-3.33.12-3.33.12,1.49.12,3.33-.05,3.33-.12,3.33Z"/>
        <path class="cls-1" d="m422.25,153.96c-.07,0-.12-1.49-.12-3.33s.05-3.33.12-3.33.12,1.49.12,3.33-.05,3.33-.12,3.33Z"/>
        <path class="cls-1" d="m423.89,153.96c-.07,0-.12-1.49-.12-3.33s.05-3.33.12-3.33.12,1.49.12,3.33-.05,3.33-.12,3.33Z"/>
        <path class="cls-1" d="m425.54,153.96c-.07,0-.12-1.49-.12-3.33s.05-3.33.12-3.33.12,1.49.12,3.33-.05,3.33-.12,3.33Z"/>
      </g>
      <g>
        <rect class="cls-1" x="339.82" y="130.21" width="9.23" height="6.63"/>
        <rect class="cls-10" x="341.14" y="131.54" width="6.58" height="3.98"/>
      </g>
      <g>
        <rect class="cls-1" x="412.71" y="130.21" width="9.23" height="6.63"/>
        <rect class="cls-10" x="414.03" y="131.54" width="6.58" height="3.98"/>
      </g>
      <g>
        <g>
          <rect class="cls-1" x="363.49" y="125.8" width="16.73" height="28.13"/>
          <path class="cls-10" d="m365.22,127.73c0,.14.19,22.85.19,22.85l5.59-11.43-5.77-11.43Z"/>
          <path class="cls-10" d="m378.78,127.73c0,.14-.19,22.85-.19,22.85l-5.59-11.43,5.77-11.43Z"/>
          <polygon class="cls-10" points="366.45 125.8 372.08 137.22 377.9 125.8 366.45 125.8"/>
          <polygon class="cls-10" points="377.58 152.55 371.95 141.54 366.45 152.55 377.58 152.55"/>
        </g>
        <path class="cls-5" d="m363.49,154.25c-.07,0-.12-6.33-.12-14.13s.05-14.13.12-14.13.12,6.32.12,14.13-.05,14.13-.12,14.13Z"/>
      </g>
      <path class="cls-5" d="m426.9,101.29c0,.07-21.06.12-47.04.12s-47.05-.05-47.05-.12,21.06-.12,47.05-.12,47.04.05,47.04.12Z"/>
      <path class="cls-5" d="m426.9,96.09c0,.07-21.06.12-47.04.12s-47.05-.05-47.05-.12,21.06-.12,47.05-.12,47.04.05,47.04.12Z"/>
      <path class="cls-5" d="m426.9,90.88c0,.07-21.06.12-47.04.12s-47.05-.05-47.05-.12,21.06-.12,47.05-.12,47.04.05,47.04.12Z"/>
      <path class="cls-5" d="m424.76,85.68c0,.07-20.19.12-45.09.12s-45.1-.05-45.1-.12,20.19-.12,45.1-.12,45.09.05,45.09.12Z"/>
      <path class="cls-5" d="m420.61,80.47c0,.07-18.15.12-40.54.12s-40.54-.05-40.54-.12,18.15-.12,40.54-.12,40.54.05,40.54.12Z"/>
      <path class="cls-5" d="m418.95,75.27c0,.07-17.78.12-39.7.12s-39.71-.05-39.71-.12,17.77-.12,39.71-.12,39.7.05,39.7.12Z"/>
      <path class="cls-5" d="m414.38,70.07c0,.07-15.99.12-35.71.12s-35.71-.05-35.71-.12,15.99-.12,35.71-.12,35.71.05,35.71.12Z"/>
      <path class="cls-5" d="m413.11,64.86c0,.07-15.24.12-34.04.12s-34.05-.05-34.05-.12,15.24-.12,34.05-.12,34.04.05,34.04.12Z"/>
      <path class="cls-5" d="m404.95,59.66c0,.07-11.52.12-25.72.12s-25.72-.05-25.72-.12,11.51-.12,25.72-.12,25.72.05,25.72.12Z"/>
      <path class="cls-5" d="m394.89,54.45s-.12.02-.35.02c-.25,0-.58.01-1,.02-.89,0-2.15.02-3.68.04-3.13,0-7.42.02-12.15.04-4.74-.01-9.02-.03-12.15-.04-1.54-.02-2.79-.03-3.68-.04-.42,0-.75-.02-1-.02-.23,0-.35-.02-.35-.02s.12-.02.35-.02c.25,0,.58-.01,1-.02.89,0,2.15-.02,3.68-.04,3.13,0,7.42-.02,12.15-.04,4.73.01,9.02.03,12.15.04,1.54.02,2.79.03,3.68.04.42,0,.75.02,1,.02.23,0,.35.02.35.02Z"/>
      <path class="cls-5" d="m386.85,49.25c0,.07-3.68.12-8.21.12s-8.21-.05-8.21-.12,3.68-.12,8.21-.12,8.21.05,8.21.12Z"/>
      <g>
        <polygon class="cls-10" points="429.84 93.04 411.42 62.01 377.63 43.64 345.61 63.06 329.66 93.66 332.39 94.77 332.39 94.15 348.19 64.4 377.59 46.69 409.9 63.95 426.27 92.79 426.27 93.41 429.84 93.04"/>
        <path class="cls-5" d="m429.84,93.04c-.17.02-1.22.14-3.56.39h-.03s0-.03,0-.03c0-.19,0-.4,0-.62h0c-2.78-4.86-8.52-14.93-16.42-28.8l.03.03c-9.09-4.85-20.07-10.7-32.32-17.24h.1c-8.98,5.41-18.91,11.4-29.39,17.72l.04-.04c-5.01,9.43-10.32,19.44-15.8,29.75v-.06c.01.19.01.4.01.62v.18l-.16-.07c-.86-.35-1.79-.73-2.73-1.1l-.12-.05.06-.12c.07-.13.14-.26.21-.4,5.43-10.41,10.7-20.54,15.74-30.2l.02-.03.03-.02c11.41-6.91,22.17-13.43,32.03-19.41l.05-.03.05.03c12.92,7.03,24.32,13.24,33.77,18.39h.02s.01.03.01.03c11.51,19.48,18.06,30.56,18.36,31.07-.31-.51-6.9-11.56-18.49-30.99l.03.03c-9.46-5.13-20.87-11.33-33.8-18.34h.1c-9.86,5.98-20.61,12.5-32.02,19.43l.04-.05c-5.04,9.66-10.31,19.79-15.74,30.2-.07.14-.14.28-.21.4l-.06-.17c.94.38,1.87.76,2.73,1.1l-.16.11v-.67c5.5-10.31,10.82-20.32,15.82-29.75l.02-.03.03-.02c10.48-6.31,20.42-12.3,29.4-17.7l.05-.03.05.03c12.24,6.55,23.21,12.42,32.3,17.28h.02s.01.03.01.03c7.86,13.89,13.57,23.98,16.33,28.87h0c0,.23,0,.44,0,.63l-.03-.03c2.35-.22,3.4-.33,3.57-.34Z"/>
      </g>
      <g>
        <g>
          <rect class="cls-2" x="371.38" y="90.75" width="15.15" height="2.63"/>
          <rect class="cls-2" x="372.7" y="68.03" width="12.52" height="24.04"/>
          <rect class="cls-10" x="373.92" y="69.21" width="10.07" height="21.57"/>
        </g>
        <path class="cls-5" d="m384,90.69s-.05,0-.17,0c-.13,0-.3,0-.52,0-.47,0-1.15.01-2,.02-1.77.01-4.31.03-7.43.05h-.09s0-.09,0-.09c0-5.57-.02-13.09-.03-21.34-.11.11.14-.15.12-.12h1.33c.44,0,.88,0,1.31,0,.87,0,1.73,0,2.58,0,1.69,0,3.33,0,4.9,0h.11s0,.11,0,.11c-.02,6.23-.04,11.57-.05,15.37-.01,1.87-.02,3.37-.03,4.41,0,.5-.01.89-.01,1.17,0,.12,0,.22,0,.3,0,.07,0,.1,0,.1s0-.04,0-.11c0-.08,0-.18,0-.31,0-.28,0-.68-.01-1.19,0-1.05-.02-2.55-.03-4.43-.01-3.78-.03-9.1-.05-15.3l.11.11c-1.57,0-3.21,0-4.9,0-.85,0-1.71,0-2.58,0-.44,0-.87,0-1.31,0h-1.33s.22-.23.12-.12c-.01,8.25-.02,15.76-.03,21.34l-.09-.09c3.1.02,5.62.04,7.38.05.87,0,1.55.02,2.02.02.22,0,.4,0,.53,0,.12,0,.18,0,.19,0Z"/>
        <g>
          <rect class="cls-2" x="372.7" y="79.32" width="12.52" height="1.17"/>
          <path class="cls-5" d="m385.22,80.49s-.01-.11-.02-.31c0-.22-.02-.5-.03-.85l.05.05c-2.1.04-6.91.07-12.52.07h0s.22-.23.12-.12h0v.3c0,.1,0,.2,0,.3,0,.2,0,.39,0,.57l-.12-.12c3.49,0,6.59.03,8.85.05,1.11.01,2.01.03,2.67.04.3,0,.54.01.73.02.17,0,.26.01.27.02,0,0-.07.01-.23.02-.19,0-.42,0-.71.02-.65,0-1.55.02-2.64.04-2.25.02-5.4.05-8.94.05h-.12s0-.12,0-.12c0-.19,0-.38,0-.57,0-.1,0-.2,0-.3v-.15s0-.07,0-.07v-.06h0v-.02h0c-.11.11.14-.15.12-.12h0c5.6,0,10.42.03,12.52.07h.05s0,.05,0,.05c-.01.36-.02.65-.03.88,0,.2-.01.29-.02.29Z"/>
        </g>
        <path class="cls-5" d="m386.11,90.75c0,.07-3.31.12-7.4.12s-7.4-.05-7.4-.12,3.31-.12,7.4-.12,7.4.05,7.4.12Z"/>
      </g>
      <g>
        <g>
          <rect class="cls-1" x="380.46" y="125.82" width="16.73" height="28.13" transform="translate(777.66 279.77) rotate(180)"/>
          <path class="cls-10" d="m395.47,127.75c0,.14-.19,22.85-.19,22.85l-5.59-11.43,5.77-11.43Z"/>
          <path class="cls-10" d="m381.91,127.75c0,.14.19,22.85.19,22.85l5.58-11.43-5.77-11.43Z"/>
          <polygon class="cls-10" points="394.24 125.82 388.61 137.24 382.79 125.82 394.24 125.82"/>
          <polygon class="cls-10" points="383.1 152.57 388.74 141.56 394.24 152.57 383.1 152.57"/>
        </g>
        <path class="cls-5" d="m397.24,153.9c-.07,0-.12-6.3-.12-14.06s.05-14.06.12-14.06.12,6.29.12,14.06-.05,14.06-.12,14.06Z"/>
      </g>
      <path class="cls-5" d="m332.81,153.5c-.07,0-.12-13.45-.12-30.03s.05-30.03.12-30.03.12,13.44.12,30.03-.05,30.03-.12,30.03Z"/>
      <path class="cls-5" d="m426.85,153.5c-.07,0-.12-13.49-.12-30.12s.05-30.12.12-30.12.12,13.48.12,30.12-.05,30.12-.12,30.12Z"/>
      <path class="cls-5" d="m472.2,126.43c0,.07-10.24.12-22.86.12s-22.87-.05-22.87-.12,10.24-.12,22.87-.12,22.86.05,22.86.12Z"/>
      <path class="cls-5" d="m472.2,130.97c0,.07-10.24.12-22.86.12s-22.87-.05-22.87-.12,10.24-.12,22.87-.12,22.86.05,22.86.12Z"/>
      <path class="cls-5" d="m472.2,135.67c0,.07-10.12.12-22.6.12s-22.61-.05-22.61-.12,10.12-.12,22.61-.12,22.6.05,22.6.12Z"/>
      <path class="cls-5" d="m472.2,140.36c0,.07-10.14.12-22.65.12s-22.65-.05-22.65-.12,10.14-.12,22.65-.12,22.65.05,22.65.12Z"/>
      <path class="cls-5" d="m472.2,144.62c0,.07-10.15.12-22.67.12s-22.67-.05-22.67-.12,10.15-.12,22.67-.12,22.67.05,22.67.12Z"/>
      <path class="cls-5" d="m472.2,149.17c0,.07-10.14.12-22.65.12s-22.65-.05-22.65-.12,10.14-.12,22.65-.12,22.65.05,22.65.12Z"/>
      <g>
        <rect class="cls-1" x="355.62" y="123.09" width="49.72" height="2.89"/>
        <path class="cls-10" d="m405.44,125.98c0,.07-11.13.12-24.87.12s-24.87-.05-24.87-.12,11.13-.12,24.87-.12,24.87.05,24.87.12Z"/>
      </g>
    </g>
    <g>
      <g>
        <path class="cls-5" d="m55.21,125.97s.04.34.05.9c.02.73.03,1.22.09,2.16.05.84.12,1.61.17,2.16.05.55.08.89.06.9-.02,0-.1-.33-.18-.88-.08-.55-.17-1.32-.22-2.16-.05-.85-.05-1.62-.03-2.18.02-.56.05-.9.08-.9Z"/>
        <path class="cls-9" d="m41.72,129.85h13.19c6.06,0,10.98,4.92,10.98,10.98v2.45c0,6.06-4.92,10.98-10.98,10.98h-13.19c-.51,0-.92-.41-.92-.92v-22.57c0-.51.41-.92.92-.92Z"/>
        <path class="cls-5" d="m41.72,129.85h13.19c6.06,0,10.98,4.92,10.98,10.98v2.45c0,6.06-4.92,10.98-10.98,10.98h-13.19c-.51,0-.92-.41-.92-.92v-22.57c0-.51.41-.92.92-.92Z"/>
        <circle class="cls-10" cx="41.11" cy="142.06" r="12.21" transform="translate(-52.06 27.21) rotate(-22.91)"/>
        <path class="cls-5" d="m50.92,142.06s0-.05-.02-.16c0-.11-.02-.27-.03-.47,0-.1-.01-.22-.02-.34-.01-.13-.04-.26-.06-.41-.05-.3-.09-.64-.21-1.01-.17-.76-.53-1.65-1.09-2.6-.56-.94-1.38-1.93-2.49-2.77-1.1-.83-2.5-1.53-4.1-1.82-1.6-.27-3.4-.22-5.11.43-.44.14-.85.36-1.27.56-.21.11-.4.24-.61.36-.21.12-.4.26-.59.4-.4.27-.74.61-1.1.94-.33.36-.67.72-.95,1.13-.58.8-1.08,1.7-1.39,2.68-.32.98-.49,2.01-.5,3.07.01,1.06.18,2.09.5,3.07.31.98.81,1.88,1.39,2.68.28.41.63.77.95,1.13.36.33.71.67,1.1.94.19.15.38.29.59.4.2.12.4.25.61.36.42.2.83.42,1.27.56,1.72.65,3.52.7,5.11.43,1.61-.28,3-.99,4.1-1.82,1.11-.84,1.92-1.82,2.48-2.77.56-.95.92-1.84,1.09-2.6.11-.37.16-.72.21-1.01.02-.15.05-.28.06-.41,0-.13.02-.24.02-.34.01-.2.02-.35.03-.47,0-.1.02-.16.02-.16,0,0,0,.05,0,.16,0,.11,0,.27-.01.47,0,.1,0,.22-.01.34-.01.13-.04.26-.06.41-.04.3-.08.64-.19,1.02-.16.77-.51,1.67-1.07,2.63-.56.96-1.38,1.96-2.49,2.82-1.11.85-2.52,1.57-4.15,1.86-.41.06-.82.14-1.25.15-.21,0-.43.03-.64.03-.22-.01-.44-.02-.65-.03-.22,0-.44-.03-.66-.07-.22-.04-.44-.06-.67-.11-.44-.12-.89-.21-1.32-.38-.44-.14-.86-.36-1.29-.57-.21-.11-.41-.24-.62-.37-.21-.12-.4-.26-.6-.41-.4-.28-.76-.62-1.12-.95-.33-.37-.68-.73-.97-1.15-.59-.82-1.11-1.73-1.42-2.73-.32-.99-.5-2.05-.51-3.13.01-1.07.19-2.13.51-3.13.31-1,.83-1.91,1.42-2.73.29-.42.64-.78.97-1.15.37-.33.72-.68,1.12-.95.19-.15.39-.29.6-.41.21-.12.41-.25.62-.37.43-.21.85-.42,1.29-.57.43-.18.88-.27,1.32-.38.22-.05.45-.07.67-.11.22-.04.44-.07.66-.07.22-.01.44-.02.65-.03.22,0,.43.02.64.03.43,0,.84.09,1.25.15,1.63.3,3.04,1.02,4.15,1.86,1.12.85,1.93,1.86,2.49,2.81.56.96.91,1.87,1.07,2.63.11.38.15.72.19,1.02.02.15.04.29.06.41,0,.13,0,.24.01.34,0,.2.01.35.01.47,0,.11,0,.16,0,.16Z"/>
        <path class="cls-5" d="m48.49,142.24s0-.04-.02-.12c0-.09-.02-.2-.03-.35,0-.08-.01-.16-.02-.26-.01-.09-.03-.2-.05-.31-.04-.22-.07-.48-.16-.76-.13-.57-.4-1.24-.82-1.95-.43-.71-1.04-1.45-1.87-2.08-.83-.62-1.88-1.15-3.08-1.36-1.2-.2-2.55-.17-3.84.32-.33.11-.64.27-.95.42-.3.18-.62.35-.9.58-.3.2-.56.46-.83.7-.25.27-.5.54-.72.85-.43.6-.81,1.27-1.04,2.01-.24.73-.37,1.51-.38,2.3.01.79.14,1.57.38,2.3.23.74.61,1.41,1.04,2.01.21.31.47.57.72.85.27.25.53.5.83.7.28.23.6.39.9.58.32.15.62.31.95.42,1.29.49,2.64.53,3.84.32,1.21-.21,2.25-.74,3.08-1.36.83-.63,1.44-1.37,1.87-2.08.42-.71.69-1.38.82-1.95.09-.28.12-.54.16-.76.02-.11.04-.21.05-.31,0-.09.01-.18.02-.26.01-.15.02-.26.03-.35,0-.08.01-.12.02-.12s0,.04,0,.12c0,.09,0,.2,0,.35,0,.08,0,.17,0,.26,0,.1-.03.2-.04.31-.03.22-.06.49-.14.77-.12.58-.38,1.26-.8,1.99-.42.72-1.04,1.48-1.88,2.12-.84.64-1.9,1.18-3.13,1.41-1.22.22-2.6.18-3.92-.31-.34-.11-.65-.27-.98-.43-.31-.18-.63-.36-.92-.59-.3-.21-.57-.47-.85-.72-.25-.28-.52-.55-.73-.87-.45-.62-.84-1.3-1.07-2.06-.24-.75-.38-1.55-.39-2.36.01-.81.14-1.61.39-2.36.24-.76.62-1.44,1.07-2.06.22-.32.48-.59.73-.87.28-.25.54-.51.85-.72.29-.23.61-.4.92-.59.32-.15.64-.32.98-.43,1.32-.5,2.7-.53,3.92-.31,1.23.22,2.29.77,3.13,1.41.84.64,1.46,1.4,1.88,2.12.42.73.68,1.41.8,1.99.08.28.11.55.14.77.01.11.03.22.04.31,0,.09,0,.18,0,.26,0,.15,0,.26,0,.35,0,.08,0,.12,0,.12Z"/>
        <path class="cls-5" d="m45.77,142.24s0-.42-.18-1.13c-.18-.7-.65-1.73-1.7-2.53-.52-.39-1.18-.72-1.94-.85-.75-.13-1.6-.1-2.41.21-.41.14-.8.36-1.16.63-.36.26-.69.59-.97.97-.56.75-.88,1.71-.89,2.71,0,.99.33,1.96.89,2.71.27.38.6.71.97.97.36.27.75.48,1.16.63.81.31,1.66.33,2.41.21.76-.13,1.42-.46,1.94-.85,1.05-.8,1.52-1.83,1.7-2.53.18-.71.15-1.13.18-1.13,0,0,0,.1,0,.3,0,.1,0,.22-.03.36-.02.14-.04.31-.09.49-.16.72-.62,1.78-1.69,2.61-.53.41-1.21.75-1.99.9-.78.14-1.65.12-2.49-.2-.42-.14-.83-.36-1.2-.64-.38-.27-.72-.61-1.01-1.01-.59-.78-.92-1.78-.93-2.81,0-1.03.34-2.03.93-2.81.28-.39.63-.73,1.01-1.01.37-.28.78-.5,1.2-.64.84-.31,1.72-.33,2.49-.2.78.14,1.46.49,1.99.9,1.07.83,1.53,1.9,1.69,2.61.05.18.07.35.09.49.02.14.03.26.03.36,0,.2,0,.3,0,.3Z"/>
        <path class="cls-3" d="m58.54,137.56c-.05.02-.28-.65-.71-1.4-.43-.75-.9-1.28-.86-1.31.03-.03.57.45,1.01,1.22.45.77.6,1.48.56,1.49Z"/>
        <path class="cls-3" d="m60.45,138.96c-.05.02-.32-.94-.88-2.01-.56-1.07-1.18-1.84-1.14-1.87.02-.01.2.16.45.47.25.31.57.77.85,1.32.28.54.48,1.07.59,1.45.11.39.15.63.13.64Z"/>
        <path class="cls-3" d="m60.22,135.5s-.27-.33-.59-.73c-.32-.4-.62-.7-.58-.74.03-.04.39.21.72.63.34.42.5.82.45.84Z"/>
        <path class="cls-3" d="m58.08,147.58s.24-.49.5-1.09c.26-.6.41-1.13.46-1.11.05,0-.02.56-.29,1.19-.27.63-.63,1.05-.67,1.02Z"/>
        <path class="cls-3" d="m58.82,147.58s.33-.41.61-.98c.29-.57.36-1.09.42-1.08.05,0,.05.56-.26,1.16-.3.6-.75.94-.77.9Z"/>
        <path class="cls-10" d="m47.6,127.98s-.11.9-.36,1.98c-.25,1.08-.49,1.95-.54,1.94-.05-.01.11-.9.36-1.98.25-1.08.49-1.95.54-1.94Z"/>
        <path class="cls-10" d="m45.19,128.27s.17.82.17,1.85c0,1.03-.12,1.85-.17,1.85-.05,0-.01-.83-.01-1.85,0-1.02-.04-1.84.01-1.85Z"/>
        <path class="cls-10" d="m56.99,146.84c.56-.59.2.32-.92-.75-.47-.45-.83-.85-.79-.88.03-.04.44.3.92.75.47.45.83.85.79.88Z"/>
        <path class="cls-10" d="m57.64,145.46s-.5-.06-1.09-.25c-.59-.18-1.05-.37-1.04-.42.01-.05.48.16,1.09.25,2.78.38,1.27,0,1.04.42Z"/>
        <path class="cls-5" d="m67.8,138.85s-.59.35-1.35.69c-.77.33-1.4.57-1.42.52-.02-.05.58-.35,1.35-.69,1.81-.79,1.6-.11,1.42-.52Z"/>
        <path class="cls-5" d="m68.45,141.93s.43.02-1.78-.16c-.98-.08-1.78-.08-1.78-.13,0-.05.8-.13,1.79-.05.99.08,1.77.29,1.76.34Z"/>
      </g>
      <g>
        <path class="cls-5" d="m69.29,105.34s.04.34.05.9c.02.73.03,1.22.09,2.16.05.84.12,1.61.17,2.16.05.55.08.9.06.9-.02,0-.1-.33-.18-.88-.08-.55-.17-1.32-.22-2.16-.05-.85-.05-1.62-.03-2.18.02-.56.05-.9.08-.9Z"/>
        <path class="cls-9" d="m55.8,109.22h13.19c6.06,0,10.98,4.92,10.98,10.98v2.45c0,6.06-4.92,10.98-10.98,10.98h-13.19c-.51,0-.92-.41-.92-.92v-22.57c0-.51.41-.92.92-.92Z"/>
        <path class="cls-5" d="m55.8,109.22h13.19c6.06,0,10.98,4.92,10.98,10.98v2.45c0,6.06-4.92,10.98-10.98,10.98h-13.19c-.51,0-.92-.41-.92-.92v-22.57c0-.51.41-.92.92-.92Z"/>
        <circle class="cls-10" cx="55.19" cy="121.43" r="12.21"/>
        <path class="cls-5" d="m65.01,121.43s0-.05-.02-.16c0-.11-.02-.27-.03-.47,0-.1-.01-.22-.02-.34-.01-.13-.04-.26-.06-.41-.05-.3-.09-.64-.21-1.01-.17-.76-.53-1.65-1.09-2.6-.56-.94-1.38-1.93-2.49-2.77-1.1-.83-2.5-1.53-4.1-1.82-1.6-.27-3.4-.22-5.11.43-.44.14-.85.36-1.27.56-.21.11-.4.24-.61.36-.21.12-.4.26-.59.4-.4.27-.74.61-1.1.94-.33.36-.67.72-.95,1.13-.58.8-1.08,1.7-1.39,2.68-.32.98-.49,2.01-.5,3.07.01,1.06.18,2.09.5,3.07.31.98.81,1.88,1.39,2.68.28.41.63.77.95,1.13.36.33.71.67,1.1.94.19.15.38.29.59.4.2.12.4.25.61.36.42.2.83.42,1.27.56,1.72.65,3.52.7,5.11.43,1.61-.28,3-.99,4.1-1.82,1.11-.84,1.92-1.82,2.48-2.77.56-.95.92-1.84,1.09-2.6.11-.37.16-.72.21-1.01.02-.15.05-.28.06-.41,0-.13.02-.24.02-.34.01-.2.02-.35.03-.47,0-.1.02-.16.02-.16,0,0,0,.05,0,.16,0,.11,0,.27-.01.47,0,.1,0,.22-.01.34-.01.13-.04.26-.06.41-.04.3-.08.64-.19,1.02-.16.77-.51,1.67-1.07,2.63-.56.96-1.38,1.96-2.49,2.81-1.11.85-2.52,1.57-4.15,1.86-.41.06-.82.14-1.25.15-.21,0-.43.03-.64.03-.22-.01-.43-.02-.65-.03-.22,0-.44-.03-.66-.07-.22-.04-.44-.06-.67-.11-.44-.12-.89-.21-1.32-.38-.44-.14-.86-.36-1.29-.57-.21-.11-.41-.24-.62-.37-.21-.12-.4-.26-.6-.41-.4-.28-.76-.62-1.12-.95-.33-.37-.68-.73-.97-1.15-.59-.82-1.11-1.73-1.42-2.73-.32-.99-.5-2.05-.51-3.13.01-1.07.19-2.13.51-3.13.31-1,.83-1.91,1.42-2.73.29-.42.64-.78.97-1.15.37-.33.72-.68,1.12-.95.19-.15.39-.29.6-.41.21-.12.41-.25.62-.37.43-.21.85-.42,1.29-.57.43-.18.88-.27,1.32-.38.22-.05.45-.07.67-.11.22-.04.44-.07.66-.07.22-.01.44-.02.65-.03.22,0,.43.02.64.03.43,0,.84.09,1.25.15,1.63.3,3.04,1.02,4.15,1.86,1.12.85,1.93,1.86,2.49,2.81.56.96.91,1.87,1.07,2.63.11.38.15.72.19,1.02.02.15.04.29.06.41,0,.13,0,.24.01.34,0,.2.01.35.01.47,0,.11,0,.16,0,.16Z"/>
        <path class="cls-5" d="m62.58,121.61s0-.04-.02-.12c0-.09-.02-.2-.03-.35,0-.08-.01-.16-.02-.26-.01-.09-.03-.2-.05-.31-.04-.22-.07-.48-.16-.76-.13-.57-.4-1.24-.82-1.95-.43-.71-1.04-1.45-1.87-2.08-.83-.62-1.88-1.15-3.08-1.36-1.2-.21-2.55-.17-3.84.32-.33.11-.64.27-.95.42-.3.18-.62.35-.9.58-.3.2-.56.46-.83.7-.25.27-.5.54-.72.85-.43.6-.81,1.27-1.04,2.01-.24.73-.37,1.51-.38,2.3.01.79.14,1.57.38,2.3.23.74.61,1.41,1.04,2.01.21.31.47.57.72.85.27.25.53.5.83.7.28.23.6.39.9.58.32.15.62.31.95.42,1.29.49,2.64.53,3.84.32,1.21-.21,2.25-.74,3.08-1.36.83-.63,1.44-1.37,1.87-2.08.42-.71.69-1.38.82-1.95.09-.28.12-.54.16-.76.02-.11.04-.21.05-.31,0-.09.01-.18.02-.26.01-.15.02-.26.03-.35,0-.08.01-.12.02-.12s0,.04,0,.12c0,.09,0,.2,0,.35,0,.08,0,.17,0,.26,0,.1-.03.2-.04.31-.03.22-.06.49-.14.77-.12.58-.38,1.26-.8,1.99-.42.72-1.04,1.48-1.88,2.12-.84.64-1.9,1.18-3.13,1.41-1.22.22-2.6.18-3.92-.31-.34-.11-.65-.27-.98-.43-.31-.18-.63-.36-.92-.59-.3-.21-.57-.47-.85-.72-.25-.28-.52-.55-.73-.87-.45-.62-.83-1.3-1.07-2.06-.24-.75-.38-1.55-.39-2.36.01-.81.14-1.61.39-2.36.24-.76.62-1.44,1.07-2.06.22-.32.48-.59.73-.87.28-.25.54-.51.85-.72.29-.23.61-.4.92-.59.32-.15.64-.32.98-.43,1.32-.5,2.7-.53,3.92-.31,1.23.22,2.29.77,3.13,1.41.84.64,1.46,1.4,1.88,2.12.42.73.68,1.41.8,1.99.08.28.11.55.14.77.01.11.03.22.04.31,0,.09,0,.18,0,.26,0,.15,0,.26,0,.35,0,.08,0,.12,0,.12Z"/>
        <path class="cls-5" d="m59.86,121.61s0-.42-.18-1.13c-.18-.7-.65-1.73-1.7-2.53-.52-.39-1.18-.72-1.94-.85-.75-.13-1.6-.1-2.41.21-.41.14-.8.36-1.16.63-.36.26-.69.59-.97.97-.56.75-.88,1.71-.89,2.71,0,.99.33,1.96.89,2.71.27.38.6.71.97.97.36.27.75.48,1.16.63.81.31,1.66.33,2.41.21.76-.13,1.42-.46,1.94-.85,1.05-.8,1.52-1.83,1.7-2.53.18-.71.15-1.13.18-1.13,0,0,0,.1,0,.3,0,.1,0,.22-.03.36-.02.14-.04.31-.09.49-.16.72-.62,1.78-1.69,2.61-.53.41-1.21.75-1.99.9-.78.14-1.65.12-2.49-.2-.42-.14-.83-.36-1.2-.64-.38-.27-.72-.61-1.01-1.01-.59-.78-.92-1.78-.93-2.81,0-1.03.34-2.03.93-2.81.28-.39.63-.73,1.01-1.01.37-.28.78-.5,1.2-.64.84-.31,1.72-.33,2.49-.2.78.14,1.46.49,1.99.9,1.07.83,1.53,1.9,1.69,2.61.05.18.07.35.09.49.02.14.03.26.03.36,0,.2,0,.3,0,.3Z"/>
        <path class="cls-3" d="m72.62,116.93c-.05.02-.28-.65-.71-1.4-.43-.75-.9-1.28-.86-1.31.03-.03.57.45,1.01,1.22.45.77.6,1.48.56,1.49Z"/>
        <path class="cls-3" d="m74.54,118.33c-.05.02-.32-.94-.88-2.01-.56-1.07-1.18-1.84-1.14-1.87.02-.01.2.16.45.47.25.31.57.77.85,1.32.28.54.48,1.07.59,1.45.11.39.15.63.13.64Z"/>
        <path class="cls-3" d="m74.3,114.87s-.27-.33-.59-.73c-.32-.4-.62-.7-.58-.74.03-.04.39.21.72.63.34.42.5.82.45.84Z"/>
        <path class="cls-3" d="m72.17,126.95s.24-.49.5-1.09c.27-.6.41-1.13.46-1.11.05,0-.02.56-.29,1.19-.27.63-.63,1.05-.67,1.02Z"/>
        <path class="cls-3" d="m72.9,126.95s.33-.41.61-.98c.29-.57.36-1.09.42-1.08.05,0,.05.56-.26,1.16-.3.6-.75.94-.77.9Z"/>
        <path class="cls-10" d="m61.68,107.35s-.11.9-.36,1.98c-.25,1.08-.49,1.95-.54,1.94s.11-.9.36-1.98c.25-1.08.49-1.95.54-1.94Z"/>
        <path class="cls-10" d="m59.27,107.64s.17.82.17,1.85c0,1.03-.12,1.85-.17,1.85-.05,0-.01-.83-.01-1.85,0-1.02-.04-1.84.01-1.85Z"/>
        <path class="cls-10" d="m71.07,126.21c.56-.59.2.32-.92-.75-.47-.45-.83-.85-.79-.88.03-.04.44.3.92.75.47.45.83.85.79.88Z"/>
        <path class="cls-10" d="m71.72,124.83s-.5-.06-1.09-.25c-.59-.18-1.05-.37-1.04-.42.01-.05.48.16,1.09.25,2.78.38,1.27,0,1.04.42Z"/>
        <path class="cls-5" d="m81.88,118.22s-.59.35-1.35.69c-.77.33-1.4.57-1.42.52-.02-.05.59-.35,1.35-.69,1.81-.79,1.6-.11,1.42-.52Z"/>
        <path class="cls-5" d="m82.53,121.3s.43.02-1.78-.16c-.98-.08-1.78-.08-1.78-.13,0-.05.8-.13,1.79-.05.99.08,1.77.29,1.76.34Z"/>
      </g>
      <g>
        <path class="cls-5" d="m81.27,125.97s.04.34.05.9c.02.73.03,1.22.09,2.16.05.84.12,1.61.17,2.16.05.55.08.89.06.9-.02,0-.1-.33-.18-.88-.08-.55-.17-1.32-.22-2.16-.05-.85-.05-1.62-.03-2.18.02-.56.05-.9.08-.9Z"/>
        <path class="cls-9" d="m67.79,129.85h13.19c6.06,0,10.98,4.92,10.98,10.98v2.45c0,6.06-4.92,10.98-10.98,10.98h-13.19c-.51,0-.92-.41-.92-.92v-22.57c0-.51.41-.92.92-.92Z"/>
        <path class="cls-5" d="m67.79,129.85h13.19c6.06,0,10.98,4.92,10.98,10.98v2.45c0,6.06-4.92,10.98-10.98,10.98h-13.19c-.51,0-.92-.41-.92-.92v-22.57c0-.51.41-.92.92-.92Z"/>
        <circle class="cls-10" cx="67.17" cy="142.06" r="12.21" transform="translate(-49.58 36.88) rotate(-22.68)"/>
        <path class="cls-5" d="m76.99,142.06s0-.05-.02-.16c0-.11-.02-.27-.03-.47,0-.1-.01-.22-.02-.34-.01-.13-.04-.26-.06-.41-.05-.3-.09-.64-.21-1.01-.17-.76-.53-1.65-1.09-2.6-.56-.94-1.38-1.93-2.49-2.77-1.1-.83-2.5-1.53-4.1-1.82-1.6-.27-3.4-.22-5.11.43-.44.14-.85.36-1.27.56-.21.11-.4.24-.61.36-.21.12-.4.26-.59.4-.4.27-.74.61-1.1.94-.33.36-.67.72-.95,1.13-.58.8-1.08,1.7-1.39,2.68-.32.98-.49,2.01-.5,3.07.01,1.06.18,2.09.5,3.07.31.98.81,1.88,1.39,2.68.28.41.63.77.95,1.13.36.33.71.67,1.1.94.19.15.38.29.59.4.2.12.4.25.61.36.42.2.83.42,1.27.56,1.72.65,3.52.7,5.11.43,1.61-.28,3-.99,4.1-1.82,1.11-.84,1.92-1.82,2.48-2.77.56-.95.92-1.84,1.09-2.6.11-.37.16-.72.21-1.01.02-.15.05-.28.06-.41,0-.13.02-.24.02-.34.01-.2.02-.35.03-.47,0-.1.02-.16.02-.16,0,0,0,.05,0,.16,0,.11,0,.27-.01.47,0,.1,0,.22-.01.34-.01.13-.04.26-.06.41-.04.3-.08.64-.19,1.02-.16.77-.51,1.67-1.07,2.63-.56.96-1.38,1.96-2.49,2.82-1.11.85-2.52,1.57-4.15,1.86-.41.06-.82.14-1.25.15-.21,0-.43.03-.64.03-.22-.01-.43-.02-.65-.03-.22,0-.44-.03-.66-.07-.22-.04-.44-.06-.67-.11-.44-.12-.89-.21-1.32-.38-.44-.14-.86-.36-1.29-.57-.21-.11-.41-.24-.62-.37-.21-.12-.4-.26-.6-.41-.4-.28-.76-.62-1.12-.95-.33-.37-.68-.73-.97-1.15-.59-.82-1.11-1.73-1.42-2.73-.32-.99-.5-2.05-.51-3.13.01-1.07.19-2.13.51-3.13.31-1,.83-1.91,1.42-2.73.29-.42.64-.78.97-1.15.37-.33.72-.68,1.12-.95.19-.15.39-.29.6-.41.21-.12.41-.25.62-.37.43-.21.85-.42,1.29-.57.43-.18.88-.27,1.32-.38.22-.05.45-.07.67-.11.22-.04.44-.07.66-.07.22-.01.44-.02.65-.03.22,0,.43.02.64.03.43,0,.84.09,1.25.15,1.63.3,3.04,1.02,4.15,1.86,1.12.85,1.93,1.86,2.49,2.81.56.96.91,1.87,1.07,2.63.11.38.15.72.19,1.02.02.15.04.29.06.41,0,.13,0,.24.01.34,0,.2.01.35.01.47,0,.11,0,.16,0,.16Z"/>
        <path class="cls-5" d="m74.56,142.24s0-.04-.02-.12c0-.09-.02-.2-.03-.35,0-.08-.01-.16-.02-.26-.01-.09-.03-.2-.05-.31-.04-.22-.07-.48-.16-.76-.13-.57-.4-1.24-.82-1.95-.43-.71-1.04-1.45-1.87-2.08-.83-.62-1.88-1.15-3.08-1.36-1.2-.2-2.55-.17-3.84.32-.33.11-.64.27-.95.42-.3.18-.62.35-.9.58-.3.2-.56.46-.83.7-.25.27-.5.54-.72.85-.43.6-.81,1.27-1.04,2.01-.24.73-.37,1.51-.38,2.3.01.79.14,1.57.38,2.3.23.74.61,1.41,1.04,2.01.21.31.47.57.72.85.27.25.53.5.83.7.28.23.6.39.9.58.32.15.62.31.95.42,1.29.49,2.64.53,3.84.32,1.21-.21,2.25-.74,3.08-1.36.83-.63,1.44-1.37,1.87-2.08.42-.71.69-1.38.82-1.95.09-.28.12-.54.16-.76.02-.11.04-.21.05-.31,0-.09.01-.18.02-.26.01-.15.02-.26.03-.35,0-.08.01-.12.02-.12s0,.04,0,.12c0,.09,0,.2,0,.35,0,.08,0,.17,0,.26,0,.1-.03.2-.04.31-.03.22-.06.49-.14.77-.12.58-.38,1.26-.8,1.99-.42.72-1.04,1.48-1.88,2.12-.84.64-1.9,1.18-3.13,1.41-1.22.22-2.6.18-3.92-.31-.34-.11-.65-.27-.98-.43-.31-.18-.63-.36-.92-.59-.3-.21-.57-.47-.85-.72-.25-.28-.52-.55-.73-.87-.45-.62-.83-1.3-1.07-2.06-.24-.75-.38-1.55-.39-2.36.01-.81.14-1.61.39-2.36.24-.76.62-1.44,1.07-2.06.22-.32.48-.59.73-.87.28-.25.54-.51.85-.72.29-.23.61-.4.92-.59.32-.15.64-.32.98-.43,1.32-.5,2.7-.53,3.92-.31,1.23.22,2.29.77,3.13,1.41.84.64,1.46,1.4,1.88,2.12.42.73.68,1.41.8,1.99.08.28.11.55.14.77.01.11.03.22.04.31,0,.09,0,.18,0,.26,0,.15,0,.26,0,.35,0,.08,0,.12,0,.12Z"/>
        <path class="cls-5" d="m71.84,142.24s0-.42-.18-1.13c-.18-.7-.65-1.73-1.7-2.53-.52-.39-1.18-.72-1.94-.85-.75-.13-1.6-.1-2.41.21-.41.14-.8.36-1.16.63-.36.26-.69.59-.97.97-.56.75-.88,1.71-.89,2.71,0,.99.33,1.96.89,2.71.27.38.6.71.97.97.36.27.75.48,1.16.63.81.31,1.66.33,2.41.21.76-.13,1.42-.46,1.94-.85,1.05-.8,1.52-1.83,1.7-2.53.18-.71.15-1.13.18-1.13,0,0,0,.1,0,.3,0,.1,0,.22-.03.36-.02.14-.04.31-.09.49-.16.72-.62,1.78-1.69,2.61-.53.41-1.21.75-1.99.9-.78.14-1.65.12-2.49-.2-.42-.14-.83-.36-1.2-.64-.38-.27-.72-.61-1.01-1.01-.59-.78-.92-1.78-.93-2.81,0-1.03.34-2.03.93-2.81.28-.39.63-.73,1.01-1.01.37-.28.78-.5,1.2-.64.84-.31,1.72-.33,2.49-.2.78.14,1.46.49,1.99.9,1.07.83,1.53,1.9,1.69,2.61.05.18.07.35.09.49.02.14.03.26.03.36,0,.2,0,.3,0,.3Z"/>
        <path class="cls-3" d="m84.6,137.56c-.05.02-.28-.65-.71-1.4-.43-.75-.9-1.28-.86-1.31.03-.03.57.45,1.01,1.22.45.77.6,1.48.56,1.49Z"/>
        <path class="cls-3" d="m86.52,138.96c-.05.02-.32-.94-.88-2.01-.56-1.07-1.18-1.84-1.14-1.87.02-.01.2.16.45.47.25.31.57.77.85,1.32.28.54.48,1.07.59,1.45.11.39.15.63.13.64Z"/>
        <path class="cls-3" d="m86.29,135.5s-.27-.33-.59-.73c-.32-.4-.62-.7-.58-.74.03-.04.39.21.72.63.34.42.5.82.45.84Z"/>
        <path class="cls-3" d="m84.15,147.58s.24-.49.5-1.09c.27-.6.41-1.13.46-1.11.05,0-.02.56-.29,1.19-.27.63-.63,1.05-.67,1.02Z"/>
        <path class="cls-3" d="m84.89,147.58s.33-.41.61-.98c.29-.57.36-1.09.42-1.08.05,0,.05.56-.26,1.16-.3.6-.75.94-.77.9Z"/>
        <path class="cls-10" d="m73.66,127.98s-.11.9-.36,1.98c-.25,1.08-.49,1.95-.54,1.94-.05-.01.11-.9.36-1.98.25-1.08.49-1.95.54-1.94Z"/>
        <path class="cls-10" d="m71.25,128.27s.17.82.17,1.85c0,1.03-.12,1.85-.17,1.85-.05,0-.01-.83-.01-1.85,0-1.02-.04-1.84.01-1.85Z"/>
        <path class="cls-10" d="m83.05,146.84c.56-.59.2.32-.92-.75-.47-.45-.83-.85-.79-.88.03-.04.44.3.92.75.47.45.83.85.79.88Z"/>
        <path class="cls-10" d="m83.71,145.46s-.5-.06-1.09-.25c-.59-.18-1.05-.37-1.04-.42.01-.05.48.16,1.09.25,2.78.38,1.27,0,1.04.42Z"/>
        <path class="cls-5" d="m93.86,138.85s-.59.35-1.35.69c-.77.33-1.4.57-1.42.52-.02-.05.58-.35,1.35-.69,1.81-.79,1.6-.11,1.42-.52Z"/>
        <path class="cls-5" d="m94.51,141.93s.43.02-1.78-.16c-.98-.08-1.78-.08-1.78-.13,0-.05.8-.13,1.79-.05.99.08,1.77.29,1.76.34Z"/>
      </g>
    </g>
    <path class="cls-3" d="m178.53,92.75c-1.05-2.81-2.13-5.66-3.9-8.09-1.77-2.42-4.36-4.41-7.34-4.78-2.98-.36-6.28,1.24-7.25,4.09-.43-6.4-1.33-12.97-4.54-18.53-3.21-5.56-9.19-9.93-15.59-9.54-6.04.37-11.21,4.86-14.08,10.18-2.87,5.33-3.86,11.43-4.8,17.41-2.29-2.81-7.12-1.93-9.51.8-2.39,2.73-2.99,6.53-3.5,10.12h72.03l-1.5-1.67Z"/>
    <path class="cls-3" d="m79.99,48.98c-.71-1.88-1.42-3.79-2.61-5.41-1.19-1.62-2.92-2.95-4.91-3.2s-4.21.83-4.86,2.74c-.29-4.29-.89-8.68-3.04-12.41-2.15-3.72-6.15-6.65-10.44-6.38-4.04.25-7.51,3.25-9.43,6.82-1.92,3.57-2.58,7.65-3.22,11.66-1.53-1.88-4.77-1.29-6.37.53-1.6,1.82-2,4.37-2.34,6.78h48.22l-1.01-1.12Z"/>
    <path class="cls-3" d="m452.49,38.28c-.82-2.2-1.66-4.42-3.04-6.32-1.38-1.89-3.41-3.44-5.73-3.73-2.33-.28-4.91.97-5.66,3.19-.33-5-1.04-10.13-3.55-14.47-2.5-4.34-7.17-7.75-12.18-7.45-4.72.29-8.75,3.79-11,7.95-2.24,4.16-3.01,8.93-3.75,13.6-1.79-2.19-5.56-1.5-7.43.62-1.87,2.13-2.34,5.1-2.74,7.9h56.25l-1.17-1.3Z"/>
    <path class="cls-3" d="m284.83,22.81c-.65-1.74-1.32-3.5-2.41-5-1.1-1.5-2.7-2.73-4.54-2.95-1.84-.23-3.89.77-4.49,2.53-.26-3.96-.83-8.02-2.81-11.46-1.98-3.44-5.68-6.14-9.64-5.9-3.74.23-6.93,3-8.71,6.3-1.78,3.29-2.39,7.07-2.97,10.77-1.42-1.74-4.41-1.19-5.88.49-1.48,1.69-1.85,4.04-2.17,6.26h44.55l-.93-1.03Z"/>
  </g>
  <g id="Floor">
    <path class="cls-11" d="m479.16,265.37c0,.14-107.27.26-239.57.26s-239.59-.12-239.59-.26,107.25-.26,239.59-.26,239.57.12,239.57.26Z"/>
  </g>
  <g id="Plants">
    <g>
      <g>
        <path class="cls-9" d="m453.4,299.58c-.14-.56.16-1.32.54-1.75.38-.43.89-.73,1.38-1.02.05-.03.11-.06.16-.04.06.02.08.09.1.15.15.61-.14,1.26-.59,1.7-.45.44-1.03.71-1.6.97"/>
        <path class="cls-9" d="m453.41,297.33c-.23-.53-.06-1.33.24-1.82.3-.49.75-.87,1.19-1.24.04-.04.09-.08.15-.07.06,0,.1.07.12.13.25.57.07,1.26-.3,1.77-.37.51-.89.87-1.41,1.22"/>
        <path class="cls-9" d="m453.31,294.91c-.19-.54.05-1.33.39-1.79.34-.46.82-.81,1.29-1.14.05-.03.1-.07.16-.05.06.01.09.08.11.14.2.59-.03,1.26-.44,1.74-.41.48-.96.8-1.51,1.1"/>
        <path class="cls-9" d="m453.21,292.49c-.14-.56.16-1.32.53-1.75.38-.43.88-.73,1.38-1.03.05-.03.11-.06.16-.04.06.02.09.09.1.15.15.61-.14,1.26-.58,1.7-.44.44-1.02.71-1.59.98"/>
        <path class="cls-9" d="m453.13,290.3c-.11-.57.24-1.31.65-1.71.41-.41.93-.67,1.44-.93.05-.03.11-.05.16-.03.06.02.08.09.09.15.11.62-.22,1.25-.69,1.66-.47.41-1.07.64-1.65.87"/>
        <path class="cls-9" d="m453.12,288.05c-.08-.57.3-1.29.72-1.69.42-.39.96-.64,1.48-.87.05-.02.11-.05.16-.02.06.03.08.1.08.16.09.62-.27,1.24-.76,1.63-.49.39-1.1.6-1.69.8"/>
        <path class="cls-9" d="m453,285.52c-.06-.57.36-1.28.8-1.65.44-.37.99-.59,1.52-.8.05-.02.11-.04.16-.02.06.03.07.1.08.16.06.62-.33,1.22-.83,1.59-.51.37-1.12.55-1.72.72"/>
        <path class="cls-9" d="m453.41,299.58c.11-.57-.23-1.31-.63-1.72-.4-.41-.92-.68-1.43-.95-.05-.03-.11-.05-.16-.03-.06.02-.08.09-.09.15-.12.61.21,1.25.68,1.66.47.41,1.06.65,1.65.88"/>
        <path class="cls-9" d="m453.43,297.32c.11-.57-.23-1.31-.63-1.72-.4-.41-.92-.68-1.43-.95-.05-.03-.11-.05-.16-.03-.06.02-.08.09-.09.15-.12.61.21,1.25.68,1.66.47.41,1.06.65,1.65.89"/>
        <path class="cls-9" d="m453.31,294.91c.13-.56-.17-1.32-.56-1.75s-.89-.72-1.39-1.01c-.05-.03-.11-.06-.16-.04-.06.02-.08.09-.1.15-.15.61.15,1.26.6,1.69.45.43,1.03.7,1.61.96"/>
        <path class="cls-9" d="m453.25,292.53c.13-.56-.18-1.32-.56-1.74-.38-.43-.89-.72-1.39-1.01-.05-.03-.11-.06-.16-.04-.06.02-.08.09-.1.15-.14.61.16,1.25.61,1.69.45.43,1.04.7,1.61.95"/>
        <path class="cls-9" d="m453.18,290.33c.13-.56-.18-1.32-.57-1.74-.39-.43-.9-.72-1.4-1-.05-.03-.11-.06-.16-.04-.06.02-.08.09-.1.15-.14.61.16,1.25.61,1.69.45.43,1.04.69,1.61.95"/>
        <path class="cls-9" d="m453.19,288.04c.1-.57-.25-1.3-.66-1.71-.41-.41-.93-.67-1.45-.93-.05-.03-.11-.05-.16-.03-.06.02-.08.09-.09.15-.11.62.23,1.24.7,1.65.48.41,1.07.64,1.66.86"/>
        <path class="cls-9" d="m453.02,285.58c.11-.56-.23-1.31-.63-1.72s-.92-.69-1.43-.95c-.05-.03-.11-.05-.16-.03-.06.02-.08.09-.09.15-.12.61.2,1.25.67,1.66s1.06.66,1.64.89"/>
        <path class="cls-9" d="m454.14,327.03c-.14,0-.53-10.03-.85-22.4-.33-12.38-.48-22.42-.33-22.42.14,0,.53,10.03.85,22.41.33,12.38.48,22.41.33,22.42Z"/>
        <path class="cls-9" d="m453,284c-.47-.39-.72-1.07-.69-1.68.03-.61.27-1.18.56-1.72.42.41.72,1.09.72,1.68,0,.59-.06,1.32-.59,1.72"/>
      </g>
      <path class="cls-9" d="m465.25,299.51c.07.05-.72,1.39-1.82,3.66-1.1,2.26-2.45,5.48-3.52,9.17-1.06,3.69-1.62,7.13-1.88,9.64-.27,2.5-.32,4.07-.4,4.07-.04,0-.06-.39-.07-1.1-.02-.71.02-1.73.11-3,.18-2.53.68-6.02,1.75-9.75,1.07-3.73,2.5-6.95,3.69-9.19.59-1.12,1.11-2.01,1.5-2.6.38-.6.61-.91.64-.9Z"/>
      <path class="cls-9" d="m446.33,308.64c.06-.03.54.9,1.22,2.44.68,1.54,1.54,3.7,2.37,6.13.83,2.43,1.47,4.67,1.87,6.31.4,1.63.59,2.66.52,2.68-.07.02-.38-.97-.88-2.58-.49-1.6-1.18-3.82-2.01-6.24-.83-2.42-1.63-4.59-2.22-6.16-.59-1.57-.95-2.55-.88-2.58Z"/>
    </g>
    <g>
      <g>
        <path class="cls-9" d="m269.81,413.29c-.14-.56.16-1.32.54-1.75.38-.43.89-.73,1.38-1.02.05-.03.11-.06.16-.04.06.02.08.09.1.15.15.61-.14,1.26-.59,1.7-.45.44-1.03.71-1.6.97"/>
        <path class="cls-9" d="m269.81,411.04c-.23-.53-.06-1.33.24-1.82.3-.49.75-.87,1.19-1.24.04-.04.09-.08.15-.07.06,0,.1.07.12.13.25.57.07,1.26-.3,1.77-.37.51-.89.87-1.41,1.22"/>
        <path class="cls-9" d="m269.72,408.62c-.19-.54.05-1.33.39-1.79.34-.46.82-.81,1.29-1.14.05-.03.1-.07.16-.05.06.01.09.08.11.14.2.59-.03,1.26-.44,1.74-.41.48-.96.8-1.51,1.1"/>
        <path class="cls-9" d="m269.61,406.2c-.14-.56.16-1.32.53-1.75.38-.43.88-.73,1.38-1.03.05-.03.11-.06.16-.04.06.02.09.09.1.15.15.61-.14,1.26-.58,1.7s-1.02.71-1.59.98"/>
        <path class="cls-9" d="m269.54,404.01c-.11-.57.24-1.31.65-1.71.41-.41.93-.67,1.44-.93.05-.03.11-.05.16-.03.06.02.08.09.09.15.11.62-.22,1.25-.69,1.66-.47.41-1.07.64-1.65.87"/>
        <path class="cls-9" d="m269.53,401.75c-.08-.57.3-1.29.72-1.69.42-.39.96-.64,1.48-.87.05-.02.11-.05.16-.02.06.03.08.1.08.16.09.62-.27,1.24-.76,1.63-.49.39-1.09.6-1.69.8"/>
        <path class="cls-9" d="m269.41,399.23c-.06-.57.36-1.28.8-1.65.44-.37.99-.59,1.52-.8.05-.02.11-.04.16-.02.06.03.07.1.08.16.06.62-.33,1.22-.83,1.59-.51.37-1.12.55-1.72.72"/>
        <path class="cls-9" d="m269.81,413.29c.11-.57-.23-1.31-.63-1.72-.4-.41-.92-.68-1.43-.95-.05-.03-.11-.05-.16-.03-.06.02-.08.09-.09.15-.12.61.21,1.25.68,1.66.47.41,1.06.65,1.65.88"/>
        <path class="cls-9" d="m269.84,411.03c.11-.57-.23-1.31-.63-1.72-.4-.41-.92-.68-1.43-.95-.05-.03-.11-.05-.16-.03-.06.02-.08.09-.09.15-.12.61.21,1.25.68,1.66.47.41,1.06.65,1.65.89"/>
        <path class="cls-9" d="m269.72,408.62c.13-.56-.17-1.32-.56-1.75-.38-.43-.89-.72-1.39-1.01-.05-.03-.11-.06-.16-.04-.06.02-.08.09-.1.15-.15.61.15,1.26.6,1.69.45.43,1.03.7,1.61.96"/>
        <path class="cls-9" d="m269.65,406.24c.13-.56-.18-1.32-.56-1.74-.38-.43-.89-.72-1.39-1.01-.05-.03-.11-.06-.16-.04-.06.02-.08.09-.1.15-.14.61.16,1.26.61,1.69.45.43,1.04.7,1.61.95"/>
        <path class="cls-9" d="m269.59,404.03c.13-.56-.18-1.32-.57-1.74-.39-.43-.9-.72-1.4-1-.05-.03-.11-.06-.16-.04-.06.02-.08.09-.1.15-.14.61.16,1.25.61,1.69.45.43,1.04.69,1.61.95"/>
        <path class="cls-9" d="m269.59,401.75c.1-.57-.25-1.3-.66-1.71-.41-.41-.93-.67-1.45-.93-.05-.03-.11-.05-.16-.03-.06.02-.08.09-.09.15-.11.62.23,1.24.7,1.65.47.41,1.07.64,1.66.86"/>
        <path class="cls-9" d="m269.43,399.28c.11-.56-.23-1.31-.63-1.72s-.92-.69-1.43-.95c-.05-.03-.11-.05-.16-.03-.06.02-.08.09-.09.15-.12.61.2,1.25.67,1.66.47.42,1.06.66,1.64.89"/>
        <path class="cls-9" d="m270.55,440.74c-.14,0-.53-10.03-.85-22.4-.33-12.38-.48-22.42-.33-22.42.14,0,.53,10.03.85,22.41.33,12.38.48,22.41.33,22.42Z"/>
        <path class="cls-9" d="m269.41,397.71c-.47-.39-.72-1.07-.69-1.68.03-.61.27-1.18.56-1.72.42.41.72,1.09.72,1.68s-.06,1.32-.59,1.72"/>
      </g>
      <path class="cls-9" d="m281.66,413.21c.07.05-.72,1.39-1.82,3.66-1.1,2.26-2.45,5.48-3.52,9.17-1.06,3.69-1.62,7.13-1.88,9.64-.27,2.5-.32,4.07-.4,4.07-.04,0-.06-.39-.07-1.1-.02-.71.02-1.73.11-3,.18-2.53.68-6.02,1.75-9.75,1.07-3.73,2.5-6.95,3.69-9.19.59-1.12,1.11-2.01,1.5-2.6.38-.6.61-.91.64-.9Z"/>
      <path class="cls-9" d="m262.74,422.34c.06-.03.54.9,1.22,2.44.68,1.54,1.54,3.7,2.37,6.13.83,2.43,1.47,4.67,1.87,6.31.4,1.63.59,2.66.52,2.68-.07.02-.38-.97-.88-2.58-.49-1.6-1.18-3.82-2.01-6.24-.83-2.42-1.63-4.59-2.22-6.16-.59-1.57-.95-2.55-.88-2.58Z"/>
    </g>
    <g>
      <g>
        <path class="cls-9" d="m23.47,303.67c-.14-.56.16-1.32.54-1.75.38-.43.89-.73,1.38-1.02.05-.03.11-.06.16-.04.06.02.09.09.1.15.15.61-.14,1.26-.59,1.7-.45.44-1.03.71-1.6.97"/>
        <path class="cls-9" d="m23.47,301.42c-.23-.53-.06-1.33.24-1.82.3-.49.75-.87,1.19-1.24.04-.04.09-.08.15-.07.06,0,.1.07.12.13.25.57.07,1.26-.3,1.77s-.89.87-1.41,1.22"/>
        <path class="cls-9" d="m23.38,299c-.19-.54.05-1.33.39-1.79.34-.46.82-.81,1.29-1.14.05-.03.1-.07.16-.05.06.01.09.08.11.14.2.59-.03,1.26-.44,1.74-.41.48-.96.8-1.51,1.11"/>
        <path class="cls-9" d="m23.27,296.58c-.14-.56.16-1.32.53-1.75.38-.43.88-.73,1.38-1.03.05-.03.11-.06.16-.04.06.02.09.09.1.15.15.61-.14,1.26-.58,1.7-.44.44-1.02.71-1.59.98"/>
        <path class="cls-9" d="m23.2,294.39c-.11-.57.24-1.31.65-1.71.41-.41.93-.67,1.44-.93.05-.03.11-.05.16-.03.06.02.08.09.09.15.11.62-.22,1.25-.69,1.66s-1.07.64-1.65.87"/>
        <path class="cls-9" d="m23.19,292.13c-.08-.57.3-1.29.72-1.69.42-.39.96-.64,1.48-.87.05-.02.11-.05.16-.02.06.03.08.1.08.16.09.62-.27,1.24-.76,1.63-.49.39-1.1.6-1.69.8"/>
        <path class="cls-9" d="m23.06,289.61c-.06-.57.36-1.28.8-1.65.44-.37.99-.59,1.52-.8.05-.02.11-.04.16-.02.06.03.07.1.08.16.06.62-.33,1.22-.83,1.59-.51.37-1.12.55-1.72.72"/>
        <path class="cls-9" d="m23.47,303.67c.11-.57-.23-1.31-.63-1.72s-.92-.68-1.43-.95c-.05-.03-.11-.05-.16-.03-.06.02-.08.09-.09.15-.12.61.21,1.25.68,1.66.47.41,1.06.65,1.65.89"/>
        <path class="cls-9" d="m23.5,301.41c.11-.57-.23-1.31-.63-1.72-.4-.41-.92-.68-1.43-.95-.05-.03-.11-.05-.16-.03-.06.02-.08.09-.09.15-.12.61.21,1.25.68,1.66.47.41,1.06.65,1.65.88"/>
        <path class="cls-9" d="m23.37,299c.13-.56-.17-1.32-.56-1.75-.38-.43-.89-.72-1.39-1.01-.05-.03-.11-.06-.16-.04-.06.02-.08.09-.1.15-.15.61.15,1.26.6,1.69.45.43,1.03.7,1.61.96"/>
        <path class="cls-9" d="m23.31,296.62c.13-.56-.18-1.32-.56-1.74-.38-.43-.89-.72-1.39-1.01-.05-.03-.11-.06-.16-.04-.06.02-.08.09-.1.15-.14.61.16,1.25.61,1.69.45.43,1.04.7,1.61.95"/>
        <path class="cls-9" d="m23.25,294.41c.13-.56-.18-1.32-.57-1.74s-.9-.72-1.4-1c-.05-.03-.11-.06-.16-.04-.06.02-.08.09-.1.15-.14.61.16,1.25.61,1.69.45.43,1.04.69,1.61.95"/>
        <path class="cls-9" d="m23.25,292.13c.1-.57-.25-1.3-.66-1.71-.41-.41-.93-.67-1.45-.93-.05-.03-.11-.05-.16-.03-.06.02-.08.09-.09.15-.11.62.23,1.24.7,1.65.47.41,1.07.64,1.66.86"/>
        <path class="cls-9" d="m23.08,289.66c.11-.56-.23-1.31-.63-1.72s-.92-.69-1.43-.95c-.05-.03-.11-.05-.16-.03-.06.02-.08.09-.09.15-.12.61.2,1.25.67,1.66s1.06.66,1.64.89"/>
        <path class="cls-9" d="m24.21,331.12c-.14,0-.53-10.03-.86-22.4-.33-12.38-.48-22.42-.33-22.42.14,0,.53,10.03.86,22.41.33,12.38.48,22.41.33,22.42Z"/>
        <path class="cls-9" d="m23.07,288.09c-.47-.39-.72-1.07-.69-1.68.03-.61.27-1.18.56-1.72.42.41.72,1.09.72,1.68s-.05,1.32-.59,1.72"/>
      </g>
      <path class="cls-9" d="m35.32,303.59c.07.05-.72,1.39-1.82,3.66-1.1,2.26-2.45,5.48-3.52,9.17-1.06,3.69-1.62,7.13-1.89,9.64-.27,2.5-.32,4.07-.4,4.07-.04,0-.06-.39-.07-1.1-.02-.71.02-1.74.11-3,.18-2.53.68-6.02,1.75-9.75,1.07-3.73,2.5-6.95,3.69-9.19.59-1.12,1.11-2.01,1.5-2.6.38-.6.61-.91.64-.9Z"/>
      <path class="cls-9" d="m16.4,312.72c.06-.03.54.9,1.22,2.44.68,1.54,1.54,3.7,2.37,6.13.83,2.43,1.47,4.67,1.87,6.31.4,1.63.59,2.66.52,2.68-.07.02-.38-.97-.88-2.58-.49-1.6-1.18-3.82-2.01-6.24-.83-2.42-1.63-4.59-2.22-6.16-.59-1.57-.95-2.55-.88-2.58Z"/>
    </g>
    <g>
      <path class="cls-9" d="m210.67,446.24c-.13.06-1.42-2.37-3.01-5.38-1.58-3.01-2.87-5.45-2.74-5.52.12-.07,1.61,2.26,3.2,5.28,1.59,3.01,2.68,5.56,2.55,5.62Z"/>
      <path class="cls-9" d="m211,424.12c.08.01-.08,1.2-.2,3.13-.12,1.93-.17,4.6.11,7.53.28,2.93.83,5.54,1.31,7.41.48,1.87.86,3.01.78,3.04-.03.01-.16-.26-.37-.76-.21-.5-.48-1.24-.77-2.17-.58-1.86-1.19-4.5-1.48-7.46-.28-2.97-.18-5.67.04-7.61.11-.97.23-1.75.34-2.28.11-.53.19-.82.22-.82Z"/>
      <path class="cls-9" d="m217.88,433.56c.07.04-.23.67-.58,1.72-.35,1.06-.72,2.55-1,4.24-.55,3.37-.64,6.15-.8,6.15-.13,0-.28-2.81.28-6.24.28-1.71.71-3.23,1.16-4.28.44-1.05.87-1.63.92-1.6Z"/>
    </g>
    <g>
      <path class="cls-9" d="m291.16,401.67c-.13.06-1.42-2.38-3.01-5.38-1.58-3.01-2.87-5.45-2.74-5.52.12-.07,1.61,2.26,3.2,5.28,1.59,3.01,2.68,5.56,2.55,5.62Z"/>
      <path class="cls-9" d="m291.49,379.55c.08.01-.08,1.2-.2,3.13-.12,1.93-.17,4.6.11,7.53.28,2.93.83,5.54,1.31,7.41.48,1.87.86,3.01.78,3.04-.03.01-.16-.26-.37-.76-.21-.5-.48-1.24-.77-2.17-.58-1.86-1.19-4.5-1.48-7.46-.28-2.97-.18-5.67.04-7.61.11-.97.23-1.75.34-2.28.11-.53.19-.82.22-.82Z"/>
      <path class="cls-9" d="m298.37,388.99c.07.04-.23.67-.58,1.72-.35,1.06-.72,2.55-1,4.24-.55,3.37-.64,6.15-.8,6.15-.13,0-.28-2.81.28-6.24.28-1.71.71-3.23,1.16-4.28.44-1.05.87-1.63.92-1.6Z"/>
    </g>
    <g>
      <path class="cls-9" d="m20.65,408.09c-.13.06-1.42-2.37-3.01-5.38-1.58-3.01-2.87-5.45-2.74-5.52.12-.07,1.61,2.26,3.2,5.28,1.59,3.01,2.68,5.56,2.55,5.62Z"/>
      <path class="cls-9" d="m20.99,385.97c.08.01-.08,1.2-.2,3.13-.12,1.93-.17,4.6.11,7.53.28,2.93.83,5.54,1.31,7.41.48,1.87.86,3.01.78,3.04-.03.01-.16-.26-.37-.76-.21-.5-.48-1.24-.77-2.17-.58-1.86-1.19-4.5-1.48-7.46-.28-2.97-.18-5.67.04-7.61.11-.97.23-1.75.34-2.28.11-.53.19-.82.22-.82Z"/>
      <path class="cls-9" d="m27.86,395.41c.07.04-.23.67-.58,1.72-.35,1.06-.72,2.55-1,4.24-.55,3.37-.64,6.15-.8,6.15-.13,0-.28-2.81.28-6.24.28-1.71.71-3.23,1.16-4.28.44-1.05.87-1.63.92-1.6Z"/>
    </g>
    <g>
      <path class="cls-9" d="m448.34,412.95c-.13.06-1.42-2.37-3.01-5.38-1.58-3.01-2.87-5.45-2.74-5.52.12-.07,1.61,2.26,3.2,5.28,1.59,3.01,2.68,5.56,2.55,5.62Z"/>
      <path class="cls-9" d="m448.67,390.83c.08.01-.08,1.2-.2,3.13-.12,1.93-.17,4.6.11,7.53.28,2.93.83,5.54,1.31,7.41.48,1.87.86,3.01.78,3.04-.03.01-.16-.26-.37-.76-.21-.5-.48-1.24-.77-2.17-.58-1.86-1.19-4.5-1.48-7.46-.28-2.97-.18-5.67.04-7.61.11-.97.23-1.75.34-2.28.11-.53.19-.82.22-.82Z"/>
      <path class="cls-9" d="m455.55,400.27c.07.04-.23.67-.58,1.72-.35,1.06-.72,2.55-1,4.24-.55,3.37-.64,6.15-.8,6.15-.13,0-.28-2.81.28-6.24.28-1.71.71-3.23,1.16-4.28.44-1.05.87-1.63.92-1.6Z"/>
    </g>
  </g>
  <g id="Fence">
    <g>
      <g>
        <rect class="cls-8" x="458.01" y="207.31" width="6.17" height="57.81"/>
        <path class="cls-11" d="m464.18,265.12s-.01-.11-.02-.31c0-.22,0-.51-.02-.87,0-.79-.02-1.91-.03-3.34-.02-2.91-.04-7.1-.07-12.28-.02-10.39-.06-24.81-.1-41l.23.23c-1.97,0-4.05,0-6.17,0,.45-.46.13-.12.23-.21v.28s0,.3,0,.3v1.79c0,.79,0,1.59,0,2.37,0,1.57,0,3.13,0,4.67,0,3.08,0,6.09,0,9.01,0,5.84-.02,11.32-.03,16.32-.04,9.96-.07,17.99-.1,23.05l-.1-.1c1.98.02,3.5.04,4.56.06.51,0,.9.02,1.19.02.27,0,.41.01.42.02,0,0-.12.01-.38.02-.29,0-.67.01-1.17.02-1.07.01-2.62.03-4.62.06h-.1s0-.1,0-.1c-.02-5.06-.05-13.09-.1-23.05,0-5-.02-10.48-.03-16.32,0-2.92,0-5.93,0-9.01,0-1.54,0-3.1,0-4.67,0-.79,0-1.58,0-2.37v-1.19s0-.6,0-.6v-.58c.1-.11-.23.21.23-.25,2.11,0,4.2,0,6.17,0h.23v.23c-.04,16.26-.07,30.73-.1,41.17-.03,5.16-.05,9.33-.07,12.23-.01,1.41-.02,2.51-.03,3.29,0,.35-.01.63-.02.84,0,.19-.01.28-.02.28Z"/>
      </g>
      <g>
        <rect class="cls-8" x="3.51" y="210.75" width="472.35" height="4.65"/>
        <path class="cls-11" d="m475.87,215.4c0-.16,0-.85-.02-4.65l.02.02c-22.14,0-225.29.1-472.33.21h-.02l.24-.23v4.65l-.24-.23c261.38.13,469.73.23,472.35.23-2.62,0-210.97.1-472.35.23h-.24s0-.23,0-.23v-4.88h.26c247.04.11,450.19.2,472.33.21h.02v.02c-.02,3.8-.02,4.49-.02,4.65Z"/>
      </g>
      <g>
        <rect class="cls-8" x="3.51" y="227.36" width="472.35" height="4.65"/>
        <path class="cls-11" d="m475.87,232.01c0-.16,0-.85-.02-4.65l.02.02c-22.14,0-225.29.1-472.33.21h-.02l.24-.23v4.65l-.24-.23c261.38.13,469.73.23,472.35.23-2.62,0-210.97.1-472.35.23h-.24s0-.23,0-.23v-4.88h.26c247.04.11,450.19.2,472.33.21h.02v.02c-.02,3.8-.02,4.49-.02,4.65Z"/>
      </g>
      <g>
        <rect class="cls-8" x="23.49" y="207.31" width="6.17" height="57.81"/>
        <path class="cls-11" d="m29.67,265.12s-.01-.11-.02-.31c0-.22,0-.51-.02-.87,0-.79-.02-1.91-.03-3.34-.02-2.91-.04-7.1-.07-12.28-.02-10.39-.06-24.81-.1-41l.23.23c-1.97,0-4.05,0-6.17,0,.45-.46.13-.12.23-.21v.58s0,.6,0,.6v1.19c0,.79,0,1.59,0,2.37,0,1.57,0,3.13,0,4.67,0,3.08,0,6.09,0,9.01,0,5.84-.02,11.32-.03,16.32-.04,9.96-.07,17.99-.1,23.05l-.1-.1c1.98.02,3.5.04,4.56.06.51,0,.9.02,1.19.02.27,0,.41.01.42.02s-.12.01-.38.02c-.29,0-.67.01-1.17.02-1.07.01-2.62.03-4.62.06h-.1s0-.1,0-.1c-.02-5.06-.05-13.09-.1-23.05,0-5-.02-10.48-.03-16.32,0-2.92,0-5.93,0-9.01,0-1.54,0-3.1,0-4.67,0-.79,0-1.58,0-2.37v-1.19s0-.6,0-.6v-.58c.1-.11-.23.21.23-.25,2.11,0,4.2,0,6.17,0h.23v.23c-.04,16.26-.07,30.73-.1,41.17-.03,5.16-.05,9.33-.07,12.23-.01,1.41-.02,2.51-.03,3.29,0,.35-.01.63-.02.84,0,.19-.01.28-.02.28Z"/>
      </g>
      <g>
        <rect class="cls-8" x="105.54" y="207.31" width="6.17" height="57.81"/>
        <path class="cls-11" d="m111.71,265.12s-.01-.11-.02-.31c0-.22,0-.51-.02-.87,0-.79-.02-1.91-.03-3.34-.02-2.91-.04-7.1-.07-12.28-.02-10.39-.06-24.81-.1-41l.23.23c-1.97,0-4.05,0-6.17,0,.45-.46.13-.12.23-.21v2.38c0,.79,0,1.59,0,2.37,0,1.57,0,3.13,0,4.67,0,3.08,0,6.09,0,9.01,0,5.84-.02,11.32-.03,16.32-.04,9.96-.07,17.99-.1,23.05l-.1-.1c1.98.02,3.5.04,4.56.06.51,0,.9.02,1.19.02.27,0,.41.01.42.02,0,0-.12.01-.38.02-.29,0-.67.01-1.17.02-1.07.01-2.62.03-4.62.06h-.1s0-.1,0-.1c-.02-5.06-.05-13.09-.1-23.05,0-5-.02-10.48-.03-16.32,0-2.92,0-5.93,0-9.01,0-1.54,0-3.1,0-4.67,0-.79,0-1.58,0-2.37v-1.19s0-.6,0-.6v-.58c.1-.11-.23.21.23-.25,2.11,0,4.2,0,6.17,0h.23v.23c-.04,16.26-.07,30.73-.1,41.17-.03,5.16-.05,9.33-.07,12.23-.01,1.41-.02,2.51-.03,3.29,0,.35-.01.63-.02.84,0,.19-.01.28-.02.28Z"/>
      </g>
      <g>
        <rect class="cls-8" x="193.66" y="207.31" width="6.17" height="57.81"/>
        <path class="cls-11" d="m199.83,265.12s-.01-.11-.02-.31c0-.22,0-.51-.02-.87,0-.79-.02-1.91-.03-3.34-.02-2.91-.04-7.1-.07-12.28-.02-10.39-.06-24.81-.1-41l.23.23c-1.97,0-4.05,0-6.17,0,.45-.46.13-.12.23-.21v2.38c0,.79,0,1.59,0,2.37,0,1.57,0,3.13,0,4.67,0,3.08,0,6.09,0,9.01,0,5.84-.02,11.32-.03,16.32-.04,9.96-.07,17.99-.1,23.05l-.1-.1c1.98.02,3.5.04,4.56.06.51,0,.9.02,1.19.02.27,0,.41.01.42.02,0,0-.12.01-.38.02-.29,0-.67.01-1.17.02-1.07.01-2.62.03-4.62.06h-.1s0-.1,0-.1c-.02-5.06-.05-13.09-.1-23.05,0-5-.02-10.48-.03-16.32,0-2.92,0-5.93,0-9.01,0-1.54,0-3.1,0-4.67,0-.79,0-1.58,0-2.37v-1.19s0-.6,0-.6v-.58c.1-.11-.23.21.23-.25,2.11,0,4.2,0,6.17,0h.23v.23c-.04,16.26-.07,30.73-.1,41.17-.03,5.16-.05,9.33-.07,12.23-.01,1.41-.02,2.51-.03,3.29,0,.35-.01.63-.02.84,0,.19-.01.28-.02.28Z"/>
      </g>
      <g>
        <rect class="cls-8" x="281.78" y="207.31" width="6.17" height="57.81"/>
        <path class="cls-11" d="m287.95,265.12s-.01-.11-.02-.31c0-.22,0-.51-.02-.87,0-.79-.02-1.91-.03-3.34-.02-2.91-.04-7.1-.07-12.28-.02-10.39-.06-24.81-.1-41l.23.23c-1.97,0-4.05,0-6.17,0,.45-.46.13-.12.23-.21v1.18s0,1.19,0,1.19c0,.79,0,1.59,0,2.37,0,1.57,0,3.13,0,4.67,0,3.08,0,6.09,0,9.01,0,5.84-.02,11.32-.03,16.32-.04,9.96-.07,17.99-.1,23.05l-.1-.1c1.98.02,3.5.04,4.56.06.51,0,.9.02,1.19.02.27,0,.41.01.42.02,0,0-.12.01-.38.02-.29,0-.67.01-1.17.02-1.07.01-2.62.03-4.62.06h-.1s0-.1,0-.1c-.02-5.06-.05-13.09-.1-23.05,0-5-.02-10.48-.03-16.32,0-2.92,0-5.93,0-9.01,0-1.54,0-3.1,0-4.67,0-.79,0-1.58,0-2.37v-1.19s0-.6,0-.6v-.58c.1-.11-.23.21.23-.25,2.11,0,4.2,0,6.17,0h.23v.23c-.04,16.26-.07,30.73-.1,41.17-.03,5.16-.05,9.33-.07,12.23-.01,1.41-.02,2.51-.03,3.29,0,.35-.01.63-.02.84,0,.19-.01.28-.02.28Z"/>
      </g>
      <g>
        <rect class="cls-8" x="369.89" y="207.31" width="6.17" height="57.81"/>
        <path class="cls-11" d="m376.06,265.12s-.01-.11-.02-.31c0-.22,0-.51-.02-.87,0-.79-.02-1.91-.03-3.34-.02-2.91-.04-7.1-.07-12.28-.02-10.39-.06-24.81-.1-41l.23.23c-1.97,0-4.05,0-6.17,0,.45-.46.13-.12.23-.21v1.18s0,1.19,0,1.19c0,.79,0,1.59,0,2.37,0,1.57,0,3.13,0,4.67,0,3.08,0,6.09,0,9.01,0,5.84-.02,11.32-.03,16.32-.04,9.96-.07,17.99-.1,23.05l-.1-.1c1.97.02,3.5.04,4.56.06.51,0,.9.02,1.19.02.27,0,.41.01.42.02s-.12.01-.38.02c-.29,0-.67.01-1.17.02-1.07.01-2.62.03-4.62.06h-.1s0-.1,0-.1c-.02-5.06-.05-13.09-.1-23.05,0-5-.02-10.48-.03-16.32,0-2.92,0-5.93,0-9.01,0-1.54,0-3.1,0-4.67,0-.79,0-1.58,0-2.37v-1.19s0-.6,0-.6v-.58c.1-.11-.23.21.23-.25,2.11,0,4.2,0,6.17,0h.23v.23c-.04,16.26-.07,30.73-.1,41.17-.03,5.16-.05,9.33-.07,12.23-.01,1.41-.02,2.51-.03,3.29,0,.35-.01.63-.02.84,0,.19-.01.28-.02.28Z"/>
      </g>
    </g>
  </g>
  <g id="Farm_Tractor" data-name="Farm Tractor">
    <g>
      <g>
        <g>
          <path class="cls-6" d="m67.02,242.89h2.6v7.74h-2.6c-.69,0-1.26-.56-1.26-1.26v-5.23c0-.69.56-1.26,1.26-1.26Z"/>
          <rect class="cls-11" x="69.62" y="244.76" width="15.27" height="4"/>
          <rect class="cls-11" x="68.1" y="242.34" width="5.15" height="8.83"/>
        </g>
        <path class="cls-4" d="m73.2,251.24c-.14,0-.26-1.98-.26-4.43s.12-4.43.26-4.43.26,1.98.26,4.43-.12,4.43-.26,4.43Z"/>
      </g>
      <g>
        <g>
          <path class="cls-5" d="m419.55,335.04l-2.73-.15,3.01-54.95c.04-.75.69-1.33,1.44-1.29h0c.75.04,1.33.69,1.29,1.44l-3.01,54.95Z"/>
          <path class="cls-4" d="m36.42,364.18s-.17,7.03,3.6,5.83c3.77-1.2,1.54-5.83,1.54-5.83l15.25-2.57,1.54,10.62s-17.48,2.4-19.53,2.23c-2.06-.17-5.12-.37-5.5-5.3-.33-4.21-.15-4.81-.15-4.81l3.26-.17Z"/>
          <g>
            <polygon class="cls-11" points="331.66 182.54 325.34 187.88 325.07 245.09 329.31 248.14 329.31 258.72 338.05 258.72 338.05 247.92 342.35 243.36 342.35 187.81 336.27 182.54 331.66 182.54"/>
            <path class="cls-11" d="m331.66,182.54l-.21-37.53c-.02-4.09,1.57-7.34,3.65-10.87,1.39-2.36,3.58-4.58,5.96-6.29l2.52,2.95s-7.37,5.2-7.73,12.29c-.35,7.1.42,39.45.42,39.45h-4.61Z"/>
            <path class="cls-4" d="m342.35,187.88c0,.14-3.77.26-8.41.26s-8.41-.12-8.41-.26,3.77-.26,8.41-.26,8.41.12,8.41.26Z"/>
            <path class="cls-4" d="m335.78,182.47c0,.14-.91.26-2.03.26s-2.03-.12-2.03-.26.91-.26,2.03-.26,2.03.12,2.03.26Z"/>
            <path class="cls-4" d="m329.13,236.46c-.14,0-.26-8.48-.26-18.95s.12-18.95.26-18.95.26,8.48.26,18.95-.12,18.95-.26,18.95Z"/>
          </g>
          <g>
            <path class="cls-6" d="m236.61,144.72h-6.59v-6.08c0-1.82,1.47-3.29,3.29-3.29h0c1.82,0,3.29,1.47,3.29,3.29v6.08Z"/>
            <rect class="cls-5" x="228.95" y="142.71" width="8.72" height="2.73"/>
            <rect class="cls-5" x="231.18" y="144.72" width="4.27" height="8.52"/>
            <path class="cls-11" d="m237.67,145.44c0,.14-1.79.26-3.99.26s-3.99-.12-3.99-.26,1.79-.26,3.99-.26,3.99.12,3.99.26Z"/>
          </g>
          <path class="cls-11" d="m266.93,206.7h-23.59v-1h23.59c2.7,0,4.9-2.2,4.9-4.9v-37.03c0-2.7-2.2-4.9-4.9-4.9h-27.85v-1h27.85c3.25,0,5.9,2.65,5.9,5.9v37.03c0,3.25-2.65,5.9-5.9,5.9Z"/>
          <path class="cls-4" d="m198.01,359.07h65.24v5.81h5.53v-5.81h8.57v-11.33h100.35v-35.94h-84.59l-1.22-71.56-53.73-2.08s0,0,0,0c-2.6.23-118.96,1.8-149.36,13.6v24.41l109.2,82.89Z"/>
          <g class="cls-7">
            <path d="m198.01,359.07h65.24v5.81h5.53v-5.81h8.57v-11.33h100.35v-35.94h-84.59l-1.22-71.56-53.73-2.08s0,0,0,0c-2.6.23-118.96,1.8-149.36,13.6v24.41l109.2,82.89Z"/>
          </g>
          <polygon class="cls-4" points="93.37 243.11 98.7 163.41 165.96 161.92 170.4 244.59 93.37 243.11"/>
          <polygon class="cls-4" points="173.12 243.74 169.02 159.19 232.22 159.19 242.07 296 221.55 297.09 173.12 243.74"/>
          <g class="cls-7">
            <path d="m94.6,174.44l11.05,7.9-2.9,65.8h8.95l1.77-65.85,53.22-1.61,2.65,67.45,18.24,9.7-4.55-77.08,49.3-.57-.58-19.09s-70.31-2.97-71.1-2.71-64.75,2.63-64.75,2.63l-1.32,13.42Z"/>
          </g>
          <path class="cls-11" d="m147.62,242.7l-6.11-19.85c-.69-2.26.47-4.67,2.67-5.52h0c2-.78,4.27-.04,5.43,1.77l15.14,23.61s16.92.41,20.39,6.32,1.63,8.97,1.63,8.97l-39.15-15.29Z"/>
          <path class="cls-6" d="m240.16,153.24l-148.25.1-9.6,106.86,86.81,1.37,36.55,41.85h43.5l-9.02-150.18Zm-146.37,83.56l4.37-68.23c.24-3.74,3.22-6.65,6.81-6.65h51.39c3.67,0,6.68,3.02,6.82,6.85l2.55,67.62c.12,3.3-2.39,6.05-5.55,6.08l-60.76.58c-3.26.03-5.86-2.84-5.64-6.24Zm80.56,6.44l-3.68-75.77c-.15-3.03,2.27-5.56,5.3-5.56h50.29c2.78,0,5.09,2.15,5.29,4.93l8.78,122.01c.16,2.22-1.59,4.12-3.82,4.13l-13.07.08c-1.85.01-3.61-.75-4.87-2.11l-44.22-47.72Z"/>
          <path class="cls-11" d="m271.89,161.32c-4.5.49-7.16,4.45-7.16,8.97,0,11.2-.35,29.69.99,31.56,2.11,2.95,10.81,2.67,11.57-1.87.81-4.78.38-30.58.28-33.76-.1-3.41-4.22-5.07-5.68-4.91Z"/>
          <path class="cls-5" d="m270.68,161.32c-4.5.49-7.16,4.45-7.16,8.97,0,11.2-.35,29.69.99,31.56,2.11,2.95,10.81,2.67,11.57-1.87.81-4.78.38-30.58.28-33.76-.1-3.41-4.22-5.07-5.68-4.91Z"/>
          <path class="cls-6" d="m250.25,235.04s140.79,8.3,162.75,24.73c8.87,6.64,2.48,64.03,2.48,64.03l-113.62,1.31c-4.19.05-7.98-2.49-9.52-6.38l-7.66-19.25c-2.36-5.07-8.88-8.69-14.4-9.57l-18.59-2.96-1.42-51.91Z"/>
          <g>
            <path class="cls-6" d="m304.75,368.03s5.66-.58,6.23,0c.58.58.92-30.19,24.01-48.71,20.66-16.58,40.63-13.39,40.63-13.39v-6.24s-29.41-5.18-53.93,23.91c-16.38,19.44-16.94,44.43-16.94,44.43Z"/>
            <path class="cls-11" d="m304.75,368.03s-.02-.19,0-.57c0-.37.04-.93.09-1.66.12-1.45.33-3.6.79-6.34.47-2.74,1.17-6.07,2.26-9.86,1.12-3.78,2.67-8.02,4.85-12.49,2.19-4.46,5.04-9.16,8.79-13.66,3.89-4.36,8.25-8.91,13.66-12.72,5.37-3.81,11.59-7.05,18.46-9.16,6.89-1.99,14.39-3.1,22.01-2.15l.22.03v1.4c0,1.74,0,3.46,0,5.07v.29l-.3-.04c-3.61-.43-7.28-.24-10.8.24-3.53.5-6.98,1.26-10.23,2.4-6.56,2.16-12.41,5.48-17.48,9.24-5.15,3.68-9.28,8.14-12.56,12.68-3.27,4.56-5.68,9.23-7.48,13.64-3.6,8.84-4.89,16.51-5.6,21.76-.1.66-.14,1.27-.31,1.88-.01.02-.02.05-.06.08-.04.03-.1.02-.13,0-.02-.02-.02-.01-.03-.02l-.08-.04s-.12-.04-.18-.06c-.13-.04-.27-.05-.4-.07-.27-.03-.53-.04-.79-.05-1.02-.03-1.88.02-2.58.06-.68.04-1.21.07-1.59.1-.35.02-.54.02-.54.02,0,0,.18-.04.54-.08.36-.04.89-.09,1.58-.15.7-.05,1.56-.11,2.59-.1.26,0,.52.01.8.04.14.02.28.02.43.07.07.03.14.02.22.07l.11.07s.06-.02-.01.05c-.02.02,0,.02-.02,0-.07-.07-.03-.03-.03-.05.13-.53.18-1.19.27-1.84.65-5.26,1.89-12.97,5.46-21.87,1.79-4.43,4.19-9.15,7.47-13.75,3.28-4.59,7.44-9.09,12.62-12.81,5.09-3.8,10.99-7.16,17.6-9.35,3.28-1.15,6.76-1.92,10.32-2.43,3.57-.48,7.24-.68,10.95-.24l-.3.26c0-1.6,0-3.33,0-5.07v-1.17l.22.26c-7.48-.93-14.96.15-21.78,2.12-6.82,2.09-12.99,5.29-18.33,9.06-5.37,3.77-9.72,8.28-13.6,12.6-3.75,4.46-6.6,9.12-8.79,13.54-2.2,4.44-3.76,8.65-4.9,12.41-1.12,3.77-1.84,7.09-2.34,9.81-.49,2.73-.73,4.87-.88,6.31-.06.71-.11,1.26-.14,1.65-.03.38-.05.55-.05.56Z"/>
          </g>
          <path class="cls-6" d="m78.31,265.38v-12.16s45.74-1.33,60.68.11c32,3.08,42.09,15.01,52.95,26.5,10.86,11.5,23.15,28.27,23.15,28.27l-6.01,2.34s-26.69-35.55-53.85-43.98c-27.16-8.44-76.92-1.08-76.92-1.08Z"/>
          <g>
            <g class="cls-7">
              <path d="m284.99,265.41l8.12,21.54h0c1.24,0,2.1-1.24,1.67-2.4l-6.65-17.97c-.26-.7-.93-1.16-1.67-1.16h-1.47Z"/>
            </g>
            <g class="cls-7">
              <path d="m296.19,265.41l8.12,21.54h0c1.24,0,2.1-1.24,1.67-2.4l-6.65-17.97c-.26-.7-.93-1.16-1.67-1.16h-1.47Z"/>
            </g>
            <g class="cls-7">
              <path d="m307.39,265.41l8.12,21.54h0c1.24,0,2.1-1.24,1.67-2.4l-6.65-17.97c-.26-.7-.93-1.16-1.67-1.16h-1.47Z"/>
            </g>
            <g class="cls-7">
              <path d="m318.6,265.41l8.12,21.54h0c1.24,0,2.1-1.24,1.67-2.4l-6.65-17.97c-.26-.7-.93-1.16-1.67-1.16h-1.47Z"/>
            </g>
            <g class="cls-7">
              <path d="m329.8,265.41l8.12,21.54h0c1.24,0,2.1-1.24,1.67-2.4l-6.65-17.97c-.26-.7-.93-1.16-1.67-1.16h-1.47Z"/>
            </g>
          </g>
          <g>
            <g>
              <path class="cls-11" d="m433.5,376.56l1.48-9.61-3.36-3.41c0-.2-.01-.39-.02-.59l3.21-2.49-1.13-9.66-4.95-2.86v.07c-.03-.12-.07-.24-.11-.35l2.33-4.94-4.73-8.5-5.14-.68c-.2-.27-.4-.53-.61-.8l1-3.9-6.83-6.99-4.66.63s-.02-.01-.02-.02l-.05-4.25-8.41-4.97-4.85,2.04s-.02,0-.03-.01l-1.23-4.28-9.43-2.56-4.51,3.55.75.18c-.31-.02-.63-.04-.94-.06l-3.84-4.13-9.69,1.23-2.47,4.39c-.31.08-.62.16-.93.24l-4.84-2.94-8.99,3.82-1.31,5.39-4.91-1.26-7.5,6.26.32,5.65-4.14-.17-5.39,8.14,1.6,4.44-4.17.94-3.09,9.27,3.03,4.34-3.95,2.12-.52,9.75,4.42,3.67.05-2.59c.08.83.18,1.66.3,2.48l-3.42,4.9,3.24,9.22,4.96,1.54c.11.22.22.44.33.66l-1.91,5.5,5.63,7.99,5.54.14-.2,5.07,7.7,6.01,5.54-1.52-.22-.18.08-.02c.49.27.98.53,1.48.78l.55,3.01,9.09,3.47,3.05-1.94c.67.15,1.34.28,2.02.41l1.31,2.73,9.68.93,2.69-2.98c.93-.07,1.86-.17,2.78-.29l3,2.29,9.3-2.83,1.08-3.01c1.08-.44,2.14-.92,3.18-1.43l3.55,1.4,8.18-5.26.29-4.22c.44-.39.87-.78,1.29-1.19l3.83.32,6.31-7.41-1-4.34c.25-.42.5-.85.74-1.28l3.09-.4,3.93-8.9-1.92-3.39c.08-.32.16-.64.23-.96l3.3-1.37Zm-83.2-56.74c-.21.13-.42.26-.63.39l-.23-.06.86-.33Zm-20.68,23.16s-.02.05-.03.07h-.02s.05-.07.05-.07Zm-4.46,15.08h0s.02-.05.02-.05c-.01.07-.02.15-.03.22v-.16Zm13.92,43.96c.17.19.35.37.53.56v.23s-.53-.79-.53-.79Z"/>
              <circle class="cls-4" cx="377.7" cy="364.88" r="29.94" transform="translate(-147.38 373.95) rotate(-45)"/>
            </g>
            <path class="cls-11" d="m403.79,365.06s-.03-.14-.05-.42c-.02-.3-.05-.71-.09-1.24-.02-.27-.04-.58-.06-.91-.04-.33-.11-.69-.17-1.09-.13-.79-.25-1.7-.55-2.69-.46-2.01-1.41-4.39-2.9-6.9-1.5-2.51-3.66-5.12-6.6-7.34-2.93-2.2-6.63-4.07-10.9-4.82-4.24-.73-9.02-.59-13.58,1.14-1.16.37-2.25.95-3.37,1.48-1.06.64-2.18,1.23-3.17,2.04-1.05.72-1.97,1.62-2.93,2.49-.87.96-1.78,1.9-2.53,3-1.54,2.14-2.88,4.51-3.69,7.12-.84,2.59-1.3,5.35-1.33,8.15.04,2.8.49,5.56,1.33,8.15.81,2.61,2.15,4.98,3.69,7.12.75,1.09,1.66,2.03,2.53,3,.96.87,1.88,1.77,2.93,2.49.99.8,2.11,1.4,3.17,2.04,1.12.54,2.21,1.11,3.37,1.48,4.56,1.73,9.34,1.86,13.58,1.14,4.27-.75,7.97-2.63,10.9-4.82,2.94-2.22,5.1-4.84,6.6-7.34,1.49-2.52,2.43-4.89,2.9-6.9.3-.99.42-1.9.55-2.69.06-.39.13-.75.17-1.09.02-.33.04-.64.06-.91.04-.52.07-.93.09-1.24.02-.28.04-.42.05-.42s.01.14,0,.42c0,.3-.02.72-.04,1.24-.01.28-.02.58-.03.92-.03.34-.09.7-.15,1.1-.11.79-.22,1.71-.51,2.71-.44,2.03-1.36,4.44-2.84,7-1.49,2.55-3.66,5.22-6.63,7.49-2.96,2.25-6.71,4.17-11.04,4.96-4.31.76-9.18.64-13.83-1.11-1.18-.38-2.29-.96-3.44-1.5-1.08-.65-2.22-1.25-3.23-2.07-1.07-.73-2.01-1.65-2.99-2.54-.89-.98-1.82-1.94-2.59-3.05-1.57-2.18-2.94-4.6-3.77-7.26-.86-2.65-1.32-5.46-1.36-8.32.04-2.86.5-5.67,1.36-8.31.83-2.66,2.2-5.08,3.77-7.26.77-1.11,1.7-2.07,2.59-3.05.98-.88,1.92-1.8,2.99-2.54,1.01-.82,2.15-1.42,3.23-2.07,1.14-.55,2.26-1.13,3.44-1.5,4.65-1.75,9.52-1.87,13.82-1.11,4.34.79,8.08,2.71,11.04,4.96,2.97,2.27,5.14,4.94,6.63,7.49,1.48,2.56,2.41,4.97,2.85,7,.29,1,.4,1.92.51,2.72.05.4.12.76.15,1.1.01.34.02.64.03.92.02.53.03.94.04,1.24,0,.28,0,.42,0,.42Z"/>
            <g class="cls-7">
              <circle cx="377.7" cy="364.88" r="15.53" transform="translate(-147.38 373.95) rotate(-45)"/>
            </g>
          </g>
          <g>
            <g>
              <path class="cls-11" d="m198.38,358.98l1.99-12.98-4.54-4.6c0-.26-.02-.53-.03-.79l4.33-3.37-1.52-13.04-6.69-3.86.02.1c-.06-.16-.11-.32-.17-.48l3.14-6.67-6.38-11.47-6.94-.92c-.27-.36-.54-.72-.82-1.07l1.36-5.26-9.22-9.43-6.29.85s-.02-.02-.03-.02l-.06-5.74-11.35-6.71-6.55,2.75s-.03-.01-.05-.02l-1.66-5.78-12.73-3.46-6.09,4.79,1.01.24c-.42-.03-.85-.06-1.27-.08l-5.19-5.58-13.08,1.66-3.34,5.93c-.42.1-.84.21-1.25.32l-6.53-3.97-12.14,5.16-1.76,7.28-6.64-1.71-10.12,8.45.43,7.62-5.59-.23-7.28,10.99,2.16,6-5.63,1.28-4.17,12.51,4.09,5.86-5.33,2.86-.7,13.17,5.97,4.95.07-3.49c.11,1.12.24,2.24.4,3.34l-4.62,6.62,4.37,12.44,6.7,2.08c.14.3.29.6.44.89l-2.58,7.42,7.59,10.78,7.49.19-.27,6.85,10.4,8.12,7.47-2.06-.29-.25.1-.03c.66.36,1.33.72,2,1.06l.74,4.06,12.27,4.68,4.12-2.62c.9.2,1.81.38,2.72.55l1.77,3.68,13.07,1.25,3.63-4.02c1.26-.1,2.51-.23,3.76-.39l4.05,3.09,12.56-3.82,1.46-4.07c1.45-.6,2.89-1.24,4.29-1.93l4.79,1.89,11.05-7.1.39-5.7c.59-.53,1.18-1.06,1.75-1.6l5.17.43,8.51-10-1.35-5.86c.34-.57.67-1.15,1-1.73l4.17-.54,5.3-12.01-2.6-4.58c.11-.43.21-.86.32-1.29l4.46-1.84Zm-112.33-76.6c-.29.17-.57.35-.85.53l-.31-.08,1.17-.45Zm-27.92,31.27s-.03.06-.04.09h-.02s.07-.09.07-.09Zm-6.02,20.36v.02s.04-.09.04-.09c-.01.1-.03.2-.04.29v-.22Zm18.79,59.35c.24.25.47.5.71.75v.31s-.71-1.06-.71-1.06Z"/>
              <circle class="cls-4" cx="123.06" cy="343.21" r="40.42" transform="translate(-239.08 385.58) rotate(-76.95)"/>
            </g>
            <path class="cls-11" d="m158.28,343.45s-.03-.19-.06-.57c-.03-.4-.06-.95-.11-1.67-.02-.37-.05-.78-.07-1.23-.05-.45-.14-.94-.22-1.47-.17-1.06-.33-2.29-.74-3.63-.62-2.72-1.9-5.93-3.9-9.34-2.02-3.39-4.94-6.93-8.92-9.94-3.96-2.98-8.96-5.51-14.74-6.53-1.45-.2-2.91-.5-4.43-.51-.75-.03-1.52-.1-2.28-.09-.77.04-1.54.08-2.32.12-.39.03-.78.02-1.17.08l-1.17.18c-.78.13-1.57.22-2.35.38-1.54.42-3.14.73-4.66,1.37-1.57.5-3.04,1.28-4.56,2.01-.74.4-1.45.87-2.18,1.3-.74.42-1.43.93-2.11,1.45-1.42.98-2.66,2.2-3.97,3.37-1.18,1.3-2.41,2.58-3.43,4.05-2.08,2.89-3.9,6.1-5,9.63-1.14,3.51-1.75,7.24-1.8,11.03.05,3.79.66,7.52,1.8,11.03.32.87.63,1.73.95,2.59.4.83.79,1.65,1.19,2.47.18.42.41.81.65,1.19l.7,1.16.7,1.15.8,1.08c1.01,1.48,2.25,2.75,3.43,4.05,1.3,1.18,2.55,2.4,3.97,3.37.68.52,1.37,1.04,2.11,1.45.73.43,1.44.9,2.18,1.3,1.52.73,2.99,1.5,4.56,2.01,1.52.64,3.12.95,4.67,1.37.78.16,1.58.25,2.35.38l1.17.18c.39.05.78.05,1.17.08.78.04,1.55.08,2.32.12.77.01,1.53-.06,2.28-.09,1.52,0,2.98-.31,4.43-.51,5.77-1.02,10.78-3.56,14.74-6.54,3.98-3.01,6.89-6.55,8.92-9.94,2.01-3.41,3.28-6.62,3.9-9.34.41-1.34.57-2.57.73-3.63.08-.53.18-1.02.22-1.47.03-.45.05-.86.07-1.23.05-.72.08-1.27.11-1.67.03-.38.06-.57.06-.57,0,0,0,.19,0,.57-.01.4-.03.95-.06,1.68-.01.37-.03.78-.05,1.24-.04.45-.13.94-.2,1.48-.15,1.07-.3,2.31-.69,3.66-.6,2.74-1.85,5.99-3.85,9.44-2.02,3.43-4.94,7.03-8.95,10.08-3.99,3.03-9.04,5.61-14.88,6.67-1.46.21-2.95.52-4.48.53-.76.03-1.53.1-2.31.09-.78-.04-1.56-.08-2.35-.12-.39-.03-.79-.02-1.18-.07l-1.18-.18c-.79-.13-1.59-.22-2.39-.38-1.57-.42-3.19-.74-4.73-1.38-1.59-.51-3.09-1.29-4.63-2.03-.75-.41-1.47-.88-2.21-1.32-.76-.42-1.45-.94-2.14-1.47-1.44-.99-2.71-2.22-4.03-3.42-1.2-1.32-2.45-2.61-3.48-4.11l-.82-1.09-.72-1.17-.71-1.17c-.25-.39-.48-.79-.66-1.21-.4-.83-.8-1.67-1.21-2.5-.32-.87-.64-1.75-.96-2.63-1.16-3.56-1.78-7.35-1.83-11.2.05-3.85.67-7.63,1.83-11.19,1.12-3.58,2.96-6.84,5.08-9.77,1.03-1.5,2.29-2.79,3.48-4.11,1.32-1.19,2.58-2.43,4.03-3.42.69-.53,1.39-1.05,2.14-1.47.74-.44,1.46-.91,2.21-1.32,1.54-.74,3.04-1.52,4.63-2.03,1.54-.64,3.17-.96,4.73-1.38.79-.16,1.6-.25,2.39-.38l1.18-.18c.39-.05.79-.05,1.18-.07.79-.04,1.57-.08,2.35-.12.78-.01,1.55.07,2.31.09,1.53.01,3.02.32,4.48.53,5.84,1.06,10.89,3.64,14.88,6.67,4,3.06,6.93,6.65,8.95,10.08,2,3.45,3.25,6.69,3.85,9.44.39,1.35.54,2.59.69,3.66.07.53.16,1.03.2,1.48.02.45.03.87.05,1.24.03.72.04,1.28.06,1.68.01.38,0,.57,0,.57Z"/>
            <g class="cls-7">
              <circle cx="123.06" cy="343.21" r="20.96"/>
            </g>
          </g>
          <polygon class="cls-1" points="276.46 171.73 263.47 183.76 263.54 191.36 276.46 179.16 276.46 171.73"/>
          <polygon class="cls-1" points="263.48 180.54 276.42 169.12 276.36 166.23 263.49 177.79 263.48 180.54"/>
          <path class="cls-11" d="m215.09,308.1s-.09-.1-.26-.32c-.17-.24-.41-.56-.71-.97-.64-.88-1.55-2.14-2.71-3.75-2.37-3.25-5.83-7.92-10.4-13.47-4.6-5.51-10.28-11.95-17.44-18.18-3.58-3.1-7.55-6.14-12-8.74-2.21-1.32-4.57-2.48-7-3.57-2.45-1.04-4.96-2.04-7.58-2.83-10.46-3.28-20.96-4.23-30.43-4.62-4.74-.17-9.26-.1-13.48,0-4.22.11-8.16.26-11.75.43-7.18.33-12.99.7-17,.94-1.99.12-3.54.22-4.62.29-.51.03-.91.05-1.2.07-.27.01-.41.01-.41,0,0,0,.14-.03.41-.06.29-.03.69-.07,1.2-.12,1.08-.09,2.63-.22,4.61-.38,4.01-.31,9.81-.73,17-1.11,3.59-.2,7.53-.36,11.76-.49,4.23-.12,8.75-.2,13.51-.05,9.49.37,20.03,1.31,30.57,4.6,2.64.79,5.17,1.8,7.63,2.85,2.44,1.1,4.82,2.27,7.05,3.61,4.48,2.63,8.47,5.69,12.06,8.82,7.18,6.28,12.84,12.76,17.41,18.31,4.54,5.59,7.96,10.3,10.28,13.59,1.16,1.64,2.04,2.93,2.63,3.81.28.42.5.76.67,1,.15.23.22.35.21.35Z"/>
          <path class="cls-11" d="m170.4,260.4c-.14,0-1.14-23.37-2.22-52.2-1.08-28.84-1.85-52.22-1.7-52.22s1.14,23.36,2.22,52.2c1.08,28.83,1.85,52.21,1.7,52.22Z"/>
          <path class="cls-6" d="m238.19,156.75H92.69c-2.14,0-3.88-1.74-3.88-3.88h0c0-2.14,1.74-3.88,3.88-3.88h145.5c2.14,0,3.88,1.74,3.88,3.88h0c0,2.14-1.74,3.88-3.88,3.88Z"/>
          <path class="cls-11" d="m240.35,155.98c0,.14-33.52.26-74.86.26s-74.86-.12-74.86-.26,33.51-.26,74.86-.26,74.86.12,74.86.26Z"/>
          <path class="cls-11" d="m199.37,231.36v6.24s30.54,45.46,30.94,45.46,9.67.78,9.67.78l-3.38-46.96-10.77.58-.54-3.39,2.17-3.56c.69-1.13.4-2.61-.66-3.4l-4.61-3.43c-2.32-1.72-5.57-1.39-7.48.77l-5.3,5.96-4.89-2.31,1.87-8.18,6.33-3.83c.66-.5.83-1.42.39-2.12h0c-.47-.74-1.45-.96-2.19-.5l-28.13,17.55c-.62.39-.74,1.25-.24,1.79h0c.33.36.84.47,1.28.3l5.28-2.93,10.26,1.18Z"/>
          <polygon class="cls-6" points="237.68 235.02 174.01 236.1 172.7 236.12 173.03 242.09 237.44 241.24 237.68 235.02"/>
          <g>
            <rect class="cls-5" x="212.99" y="318.54" width="33.45" height="3.72"/>
            <rect class="cls-5" x="212.99" y="339.5" width="33.45" height="3.72"/>
            <rect class="cls-5" x="213.45" y="363.02" width="32.53" height="3.72"/>
            <path class="cls-5" d="m212.99,377.27c-.14,0-.26-15.27-.26-34.1s.12-34.11.26-34.11.26,15.27.26,34.11-.12,34.1-.26,34.1Z"/>
            <path class="cls-5" d="m246.44,377.27c-.14,0-.26-16.53-.26-36.92s.12-36.92.26-36.92.26,16.53.26,36.92-.12,36.92-.26,36.92Z"/>
          </g>
          <g>
            <rect class="cls-4" x="250.25" y="307.95" width="33.77" height="45.43"/>
            <path class="cls-11" d="m283.99,331.09c0,.14-7.55.26-16.85.26s-16.86-.12-16.86-.26,7.54-.26,16.86-.26,16.85.12,16.85.26Z"/>
            <path class="cls-11" d="m283.99,320.39c0,.14-7.55.26-16.85.26s-16.86-.12-16.86-.26,7.54-.26,16.86-.26,16.85.12,16.85.26Z"/>
            <path class="cls-11" d="m283.99,342.98c0,.14-7.55.26-16.85.26s-16.86-.12-16.86-.26,7.54-.26,16.86-.26,16.85.12,16.85.26Z"/>
          </g>
          <path class="cls-11" d="m293.11,286.95c-.13.05-2.03-4.73-4.24-10.68-2.21-5.95-3.88-10.81-3.75-10.86.13-.05,2.03,4.73,4.24,10.68,2.2,5.95,3.88,10.81,3.75,10.86Z"/>
          <path class="cls-11" d="m304.22,286.88c-.13.05-2.03-4.73-4.24-10.68-2.21-5.95-3.88-10.81-3.75-10.86.13-.05,2.03,4.73,4.24,10.68,2.2,5.95,3.88,10.81,3.75,10.86Z"/>
          <path class="cls-11" d="m315.5,286.88c-.13.05-2.03-4.73-4.24-10.68-2.21-5.95-3.88-10.81-3.75-10.86.13-.05,2.03,4.73,4.24,10.68,2.2,5.95,3.88,10.81,3.75,10.86Z"/>
          <path class="cls-11" d="m326.78,287.15c-.13.05-2.03-4.73-4.24-10.68-2.21-5.95-3.88-10.81-3.75-10.86.13-.05,2.03,4.73,4.24,10.68,2.2,5.95,3.88,10.81,3.75,10.86Z"/>
          <path class="cls-11" d="m337.84,287.15c-.13.05-2.03-4.73-4.24-10.68-2.21-5.95-3.88-10.81-3.75-10.86.13-.05,2.03,4.73,4.24,10.68,2.2,5.95,3.88,10.81,3.75,10.86Z"/>
          <path class="cls-11" d="m403.79,317.53s0-.18.05-.53c.04-.37.1-.89.18-1.55.16-1.36.39-3.37.63-5.97.48-5.18,1.1-12.71,1.06-22.02-.03-4.65-.22-9.76-.92-15.18-.1-.68-.2-1.36-.31-2.04l-.15-1.03c-.03-.17-.05-.36-.08-.51-.03-.13-.1-.27-.19-.39-.38-.51-1.01-.88-1.62-1.21-.62-.33-1.28-.61-1.96-.88-2.71-1.04-5.61-1.81-8.6-2.54-11.98-2.84-25.37-4.95-39.42-7.06-28.14-4.11-53.73-7.06-72.24-9.2-9.25-1.03-16.73-1.87-21.93-2.45-2.57-.29-4.58-.51-5.96-.66-.66-.08-1.18-.14-1.55-.18-.35-.04-.53-.08-.53-.08,0,0,.18,0,.53.03.37.03.89.07,1.56.13,1.39.13,3.4.32,5.97.57,5.19.51,12.69,1.28,21.95,2.29,18.53,2.04,44.12,4.93,72.27,9.05,14.06,2.11,27.46,4.24,39.46,7.11,2.99.74,5.91,1.52,8.65,2.58.68.27,1.36.56,2,.9.64.36,1.29.72,1.77,1.35.12.16.22.34.27.55.05.2.06.35.09.53l.15,1.04c.1.69.2,1.38.3,2.06.68,5.45.85,10.57.86,15.23,0,9.33-.68,16.86-1.22,22.04-.28,2.59-.54,4.6-.73,5.96-.1.66-.18,1.18-.23,1.54-.06.35-.1.52-.1.52Z"/>
          <path class="cls-11" d="m359.56,245.33c.14,0,.26,2.7.26,6.04s-.12,6.04-.26,6.04-.26-2.7-.26-6.04.12-6.04.26-6.04Z"/>
        </g>
        <path class="cls-1" d="m211.81,198.52c.09.11-5.26,4.62-11.95,10.06-6.69,5.44-12.19,9.77-12.28,9.65-.09-.11,5.26-4.61,11.95-10.06,6.69-5.44,12.19-9.77,12.28-9.65Z"/>
        <path class="cls-1" d="m212.23,191.54c.04.06-.92.82-2.47,2.03-1.55,1.21-3.69,2.9-6.01,4.82-2.32,1.92-4.37,3.7-5.85,5-1.48,1.3-2.4,2.1-2.46,2.05-.05-.05.78-.95,2.21-2.32,1.42-1.37,3.45-3.21,5.77-5.13,2.32-1.92,4.5-3.57,6.12-4.71,1.61-1.14,2.65-1.79,2.69-1.74Z"/>
        <path class="cls-1" d="m143.03,198.74c.09.11-5.26,4.62-11.95,10.06-6.69,5.44-12.19,9.77-12.28,9.65-.09-.11,5.26-4.61,11.95-10.06,6.69-5.44,12.19-9.77,12.28-9.65Z"/>
        <path class="cls-1" d="m143.45,191.76c.04.06-.92.82-2.47,2.03-1.55,1.21-3.69,2.9-6.01,4.82-2.32,1.92-4.37,3.7-5.85,5-1.48,1.3-2.4,2.1-2.46,2.05-.05-.05.78-.95,2.21-2.32,1.42-1.37,3.45-3.21,5.77-5.13,2.32-1.92,4.5-3.57,6.12-4.71,1.61-1.14,2.65-1.79,2.69-1.74Z"/>
      </g>
    </g>
  </g>
</svg>