<svg width="20" height="20" viewBox="0 0 20 20" fill="none" xmlns="http://www.w3.org/2000/svg">
<path class="symbol" d="M8.99782 0.0260713C4.89325 0.465361 1.48584 3.31422 0.348584 7.25914C0.0653595 8.2334 0 8.75533 0 9.99926C0 10.9692 0.0130719 11.178 0.104575 11.6738C0.357298 13.1004 0.901961 14.4487 1.67756 15.5839C3.23747 17.8717 5.59041 19.394 8.30065 19.8724C8.98039 19.9942 10.3747 20.0377 11.0501 19.9638C15.146 19.4984 18.5185 16.6713 19.6471 12.7524C19.9346 11.7608 20 11.2475 20 9.99926C20 9.02935 19.9869 8.82057 19.8954 8.32474C19.1068 3.92749 15.6645 0.639338 11.2505 0.0608665C10.78 -2.51575e-05 9.43355 -0.0217722 8.99782 0.0260713ZM11.1373 1.23521C14.5054 1.67885 17.3246 3.99273 18.3834 7.17215C19.1329 9.42079 18.9673 11.8608 17.9303 13.9224C17.4641 14.8489 16.9891 15.5056 16.2527 16.245C13.8475 18.6633 10.2484 19.4679 7.00654 18.3153C5.79521 17.8804 4.68845 17.1801 3.74292 16.2407C1.60784 14.1269 0.701525 11.0344 1.35512 8.09422C2.16122 4.47552 5.13725 1.73974 8.81917 1.23521C9.38562 1.16127 10.5708 1.15692 11.1373 1.23521Z" fill="white"/>
<path class="symbol" d="M9.33764 2.3878C7.89537 2.64876 6.69711 3.65348 6.23088 4.98874C5.73415 6.411 6.06095 7.98549 7.0762 9.05979C9.01955 11.1084 12.3921 10.5908 13.6034 8.05943C14.671 5.82383 13.4945 3.19679 11.1111 2.49653C10.793 2.40085 10.61 2.37475 10.1307 2.36605C9.80822 2.35735 9.45092 2.36605 9.33764 2.3878Z" fill="white"/>
<path class="symbol" d="M6.62312 11.1127C5.20699 11.4172 3.95209 12.4523 3.36821 13.7963C3.27671 14.0051 3.20264 14.2138 3.20264 14.2573C3.20264 14.4835 4.18739 15.6404 4.8497 16.1885C7.81702 18.6546 12.1177 18.6676 15.1242 16.2146C15.7822 15.6796 16.8453 14.4226 16.8061 14.2312C16.7669 14.0442 16.4445 13.3787 16.2527 13.0873C15.9913 12.6915 15.39 12.0783 15.024 11.8304C14.6318 11.5694 14.1177 11.3258 13.6776 11.1866L13.2898 11.0649L10.109 11.0562C7.4205 11.0518 6.8802 11.0605 6.62312 11.1127Z" fill="white"/>
</svg>
