<svg width="30" height="30" viewBox="0 0 30 30" fill="none" xmlns="http://www.w3.org/2000/svg">
<g clip-path="url(#clip0_5_30)">
<circle cx="15" cy="15" r="15" fill="white"/>
<path d="M10.5 29.5C10.9637 29.2953 11.087 29.3222 11.087 28.7715V25.1584C11.087 25.0265 11.0974 24.8894 11.1137 24.7502C11.1046 24.7529 11.0961 24.7549 11.087 24.7569C11.087 24.7569 9.13043 24.7569 8.73913 24.7569C7.76087 24.7569 6.91304 24.3554 6.52174 23.5525C6.06521 22.6827 5.86956 21.2106 4.69565 20.4077C4.5 20.2739 4.63043 20.0732 5.02173 20.0732C5.41304 20.1401 6.26087 20.6753 6.7826 21.4114C7.36956 22.1474 7.95652 22.7496 9 22.7496C10.622 22.7496 11.4913 22.6659 12.0143 22.3782C12.6235 21.4488 13.4667 20.7423 14.3478 20.7423V20.7255C10.6513 20.6038 8.28978 19.3432 7.19021 17.3967C4.8 17.4248 2.71891 17.6677 1.5313 17.8698C1.49347 17.651 1.46087 17.4309 1.43282 17.2094C2.60478 17.0113 4.5913 16.7765 6.87521 16.7316C6.80217 16.547 6.73891 16.3576 6.68543 16.1636C4.39565 16.0445 2.41956 16.1375 1.34608 16.2285C1.33304 16.0063 1.31543 15.7849 1.31282 15.56C2.38826 15.4697 4.31087 15.3794 6.54195 15.4858C6.49043 15.1512 6.45717 14.8093 6.45717 14.4533C6.45717 13.3159 6.84847 12.1115 7.56587 11.1078C7.23978 9.97034 6.78326 7.56156 7.6963 6.69172C9.45717 6.69172 10.6963 7.56156 11.2833 8.09684C12.3913 7.6278 13.6304 7.36016 15 7.36016C16.3696 7.36016 17.6087 7.6278 18.6522 8.09617C19.2391 7.56089 20.4783 6.69105 22.2391 6.69105C23.2174 7.6278 22.6956 10.0366 22.3696 11.1071C23.087 12.1108 23.4783 13.2483 23.413 14.4527C23.413 14.7765 23.3837 15.089 23.3413 15.3954C25.6233 15.2804 27.598 15.3727 28.6917 15.4637C28.6904 15.6892 28.6702 15.9093 28.6585 16.1321C27.5687 16.0398 25.5443 15.9448 23.207 16.0726C23.1489 16.2974 23.0785 16.5162 22.995 16.7283C25.3076 16.7591 27.3417 16.9886 28.5698 17.1893C28.5417 17.4115 28.5091 17.6316 28.4713 17.8497C27.2243 17.645 25.0989 17.4054 22.6806 17.3934C21.5948 19.3191 19.2763 20.575 15.6522 20.7215V20.7423C17.3478 20.7423 18.913 23.3518 18.913 25.1584V28.7715C18.913 29.3222 19.0363 29.2953 19.5 29.5C25.4746 27.4713 30 22.1902 30 15.3894C30 6.5 23.2715 0 15 0C6.72848 0 -0.298375 6.69172 -3.5353e-06 15.3894C-3.5353e-06 22.1902 4.52543 27.4713 10.5 29.5Z" fill="#006869"/>
</g>
<defs>
<clipPath id="clip0_5_30">
<rect width="30" height="30" fill="white"/>
</clipPath>
</defs>
</svg>
