<svg width="444" height="105" viewBox="0 0 444 105" fill="none" xmlns="http://www.w3.org/2000/svg">
<g clip-path="url(#clip0_7729_12304)">
<path d="M276.099 90.7888H246.381V53.4773H248.688V88.6994H271.476V53.4773H273.783V88.6994H278.405V100.29H276.099V90.7888Z" fill="#DBE2F9"/>
<path d="M285.343 90.7888V53.4773H287.65V87.0784L310.591 53.4773H312.745V90.7888H310.438V56.8725L287.497 90.7798H285.343V90.7888Z" fill="#DBE2F9"/>
<path d="M343.925 59.8894V39.2659H346.232V59.7363C348.153 55.8728 352.003 52.5496 356.473 52.5496C364.093 52.5496 369.173 60.2767 369.173 72.0924C369.173 83.9082 364.093 91.7163 356.473 91.7163C352.236 91.7163 348.548 88.7804 346.232 84.3765V105H343.925V84.5296C342.005 88.3932 338.154 91.7163 333.684 91.7163C326.064 91.7163 320.984 83.9893 320.984 72.1735C320.984 60.3577 326.064 52.5496 333.684 52.5496C337.921 52.5496 341.61 55.4855 343.925 59.8894ZM323.291 72.1735C323.291 81.9809 326.989 89.627 333.837 89.627C338.226 89.627 342.148 86.1507 343.925 82.2151V62.213C342.157 58.2774 338.226 54.639 333.837 54.639C326.989 54.639 323.291 62.3661 323.291 72.1735ZM366.866 72.0924C366.866 62.285 363.168 54.639 356.32 54.639C351.931 54.639 348.009 58.1153 346.232 62.0508V82.053C348 85.9886 351.931 89.627 356.32 89.627C363.168 89.627 366.866 81.8999 366.866 72.0924Z" fill="#DBE2F9"/>
<path d="M379.719 84.3765V105H377.412V53.4772H379.719V59.7363C382.259 55.8727 387.267 52.5496 393.11 52.5496C403.117 52.5496 409.741 60.2766 409.741 72.0924C409.741 83.9082 403.117 91.7163 393.11 91.7163C387.563 91.7163 382.717 88.7804 379.719 84.3765ZM407.201 72.0924C407.201 62.285 402.193 54.6389 393.11 54.6389C387.339 54.6389 382.025 58.1152 379.719 62.0508V82.053C382.025 85.9885 387.339 89.6269 393.11 89.6269C402.193 89.6269 407.201 81.8999 407.201 72.0924Z" fill="#DBE2F9"/>
<path d="M441.684 90.7887V86.2317C438.22 90.0142 434.064 91.7163 428.832 91.7163C422.289 91.7163 415.817 87.2404 415.817 79.2792C415.817 71.3179 422.208 66.842 428.832 66.842C434.064 66.842 438.22 68.5441 441.684 72.3266V63.906C441.684 57.8811 436.909 54.639 431.21 54.639C426.363 54.639 422.746 56.3411 419.282 60.5108L417.514 58.9708C421.131 54.72 424.981 52.5586 431.219 52.5586C438.534 52.5586 444 56.269 444 63.834V90.7887H441.693H441.684ZM441.684 83.9172V74.6501C438.839 70.8676 434.298 68.9314 429.442 68.9314C422.666 68.9314 418.357 73.4883 418.357 79.2792C418.357 85.07 422.666 89.627 429.442 89.627C434.289 89.627 438.83 87.6997 441.684 83.9082V83.9172Z" fill="#DBE2F9"/>
<path d="M216.763 102.965H214.636V16.3367H216.763V102.965Z" fill="#DBE2F9"/>
<path d="M220.245 15.4091L218.773 13.9322L232.667 0L234.139 1.47697L220.245 15.4091Z" fill="#DBE2F9"/>
<path d="M220.245 25.2976L218.773 23.8206L232.667 9.88843L234.139 11.3564L220.245 25.2976Z" fill="#DBE2F9"/>
<path d="M220.245 34.6279L218.773 33.1509L232.667 19.2188L234.139 20.6957L220.245 34.6279Z" fill="#DBE2F9"/>
<path d="M210.992 15.4091L197.098 1.47697L198.57 0L212.455 13.9322L210.992 15.4091Z" fill="#DBE2F9"/>
<path d="M210.992 25.0185L197.098 11.0863L198.57 9.60938L212.455 23.5415L210.992 25.0185Z" fill="#DBE2F9"/>
<path d="M210.992 34.6279L197.098 20.6957L198.57 19.2188L212.455 33.1509L210.992 34.6279Z" fill="#DBE2F9"/>
<path d="M23.8295 41.04C29.2865 41.04 33.7472 42.7422 37.2206 46.1464C40.6851 49.5506 42.4174 53.9635 42.4174 59.3941C42.4174 64.8247 40.6492 69.4357 37.104 72.7949C33.5587 76.1541 28.8377 77.8292 22.9409 77.8292H12.8347V90.5636H0V41.04H23.8295ZM12.8347 66.797H21.7562C24.018 66.797 25.8579 66.1035 27.285 64.7256C28.712 63.3477 29.4211 61.5915 29.4211 59.4661C29.4211 57.3408 28.73 55.5846 27.3568 54.1707C25.9835 52.7657 24.1885 52.0633 21.9716 52.0633H12.8347V66.788V66.797Z" fill="#89E159"/>
<path d="M69.9269 91.4461C62.5044 91.4461 56.3563 89.0145 51.4827 84.1514C46.618 79.2882 44.1768 73.1821 44.1768 65.8333C44.1768 58.4845 46.6001 52.3605 51.4468 47.4793C56.2934 42.598 62.4505 40.1484 69.9269 40.1484C75.1865 40.1484 79.8985 41.4363 84.0541 43.994C88.2097 46.5606 91.1984 50.0189 93.0204 54.3598L81.8821 60.0605C80.8499 57.6469 79.2523 55.7107 77.0892 54.2517C74.9262 52.7927 72.467 52.0633 69.7115 52.0633C65.9778 52.0633 62.8634 53.3691 60.3772 55.9898C57.891 58.6106 56.6524 61.8887 56.6524 65.8333C56.6524 69.7779 57.909 73.002 60.4131 75.6408C62.9172 78.2795 66.0406 79.6034 69.7833 79.6034C72.5388 79.6034 75.0249 78.8649 77.2329 77.3879C79.4498 75.9109 81.0474 73.9116 82.0257 71.39L93.4602 76.6494C91.6382 81.1434 88.6136 84.7277 84.3862 87.4205C80.1588 90.1133 75.3391 91.4552 69.9269 91.4552V91.4461Z" fill="#89E159"/>
<path d="M125.035 41.04H140.158L123.563 65.7613L139.943 90.5546H124.676L115.602 75.6768L105.72 90.5546H90.6685L107.336 65.4641L91.2519 41.04H106.519L115.593 55.8458L125.035 41.04Z" fill="#89E159"/>
<path d="M154.905 59.0969H168.036C173.098 59.0969 177.146 60.5288 180.171 63.3927C183.195 66.2566 184.703 70.0301 184.703 74.7132C184.703 79.3962 183.151 83.2148 180.054 86.1507C176.958 89.0866 172.901 90.5546 167.884 90.5546H142.062V41.04H180.269V52.0723H154.896V59.1059L154.905 59.0969ZM154.905 80.4139H165.523C167.345 80.4139 168.844 79.8736 170.02 78.7838C171.204 77.7031 171.788 76.3162 171.788 74.6411C171.788 72.966 171.222 71.5971 170.091 70.5344C168.961 69.4717 167.533 68.9404 165.81 68.9404H154.896V80.4139H154.905Z" fill="#89E159"/>
</g>
<defs>
<clipPath id="clip0_7729_12304">
<rect width="444" height="105" fill="white"/>
</clipPath>
</defs>
</svg>
