<svg width="125" height="30" viewBox="0 0 125 30" fill="none" xmlns="http://www.w3.org/2000/svg">
<g clip-path="url(#clip0_1_2)">
<mask id="mask0_1_2" style="mask-type:luminance" maskUnits="userSpaceOnUse" x="0" y="0" width="125" height="30">
<path d="M125 0H0V30H125V0Z" fill="white"/>
</mask>
<g mask="url(#mask0_1_2)">
<path d="M77.7306 25.9397H69.364V15.2792H70.0135V25.3427H76.4291V15.2792H77.0785V25.3427H78.3798V28.6543H77.7306V25.9397Z" fill="#DBE2F9"/>
<path d="M80.333 25.9397V15.2792H80.9825V24.8795L87.4412 15.2792H88.0476V25.9397H87.3981V16.2493L80.9395 25.9371H80.333V25.9397Z" fill="#DBE2F9"/>
<path d="M96.8257 17.1113V11.2188H97.4752V17.0675C98.0161 15.9637 99.0999 15.0142 100.358 15.0142C102.504 15.0142 103.934 17.2219 103.934 20.5978C103.934 23.9738 102.504 26.2047 100.358 26.2047C99.1655 26.2047 98.1273 25.3658 97.4752 24.1076V30H96.8257V24.1513C96.2852 25.2552 95.201 26.2047 93.9426 26.2047C91.7973 26.2047 90.3671 23.9969 90.3671 20.621C90.3671 17.2451 91.7973 15.0142 93.9426 15.0142C95.1354 15.0142 96.174 15.853 96.8257 17.1113ZM91.0166 20.621C91.0166 23.4231 92.0577 25.6077 93.9857 25.6077C95.2213 25.6077 96.3255 24.6145 96.8257 23.49V17.7751C96.328 16.6507 95.2213 15.6111 93.9857 15.6111C92.0577 15.6111 91.0166 17.8189 91.0166 20.621ZM103.284 20.5978C103.284 17.7957 102.243 15.6111 100.315 15.6111C99.0797 15.6111 97.9755 16.6044 97.4752 17.7288V23.4437C97.973 24.5682 99.0797 25.6077 100.315 25.6077C102.243 25.6077 103.284 23.4 103.284 20.5978Z" fill="#DBE2F9"/>
<path d="M106.903 24.1076V30H106.253V15.2792H106.903V17.0675C107.618 15.9636 109.028 15.0142 110.673 15.0142C113.49 15.0142 115.355 17.2219 115.355 20.5978C115.355 23.9738 113.49 26.2047 110.673 26.2047C109.111 26.2047 107.747 25.3658 106.903 24.1076ZM114.64 20.5978C114.64 17.7957 113.23 15.6111 110.673 15.6111C109.048 15.6111 107.552 16.6043 106.903 17.7288V23.4437C107.552 24.5681 109.048 25.6077 110.673 25.6077C113.23 25.6077 114.64 23.4 114.64 20.5978Z" fill="#DBE2F9"/>
<path d="M124.348 25.9396V24.6376C123.373 25.7183 122.203 26.2047 120.73 26.2047C118.888 26.2047 117.066 24.9258 117.066 22.6512C117.066 20.3765 118.865 19.0977 120.73 19.0977C122.203 19.0977 123.373 19.584 124.348 20.6647V18.2589C124.348 16.5375 123.004 15.6111 121.399 15.6111C120.035 15.6111 119.016 16.0975 118.041 17.2888L117.543 16.8488C118.562 15.6343 119.646 15.0167 121.402 15.0167C123.461 15.0167 125 16.0769 125 18.2383V25.9396H124.351H124.348ZM124.348 23.9763V21.3286C123.547 20.2479 122.269 19.6947 120.901 19.6947C118.994 19.6947 117.781 20.9967 117.781 22.6512C117.781 24.3057 118.994 25.6077 120.901 25.6077C122.266 25.6077 123.544 25.0571 124.348 23.9738V23.9763Z" fill="#DBE2F9"/>
<path d="M61.0256 29.4186H60.4268V4.66763H61.0256V29.4186Z" fill="#DBE2F9"/>
<path d="M62.0059 4.4026L61.5915 3.98063L65.5031 0L65.9175 0.421991L62.0059 4.4026Z" fill="#DBE2F9"/>
<path d="M62.0059 7.22788L61.5915 6.80588L65.5031 2.82526L65.9175 3.24468L62.0059 7.22788Z" fill="#DBE2F9"/>
<path d="M62.0059 9.89369L61.5915 9.47169L65.5031 5.49109L65.9175 5.91306L62.0059 9.89369Z" fill="#DBE2F9"/>
<path d="M59.4009 4.4026L55.4893 0.421991L55.9037 0L59.8128 3.98063L59.4009 4.4026Z" fill="#DBE2F9"/>
<path d="M59.4009 7.14814L55.4893 3.16751L55.9037 2.74554L59.8128 6.72614L59.4009 7.14814Z" fill="#DBE2F9"/>
<path d="M59.4009 9.89369L55.4893 5.91306L55.9037 5.49109L59.8128 9.47169L59.4009 9.89369Z" fill="#DBE2F9"/>
<path d="M6.70876 11.7257C8.24507 11.7257 9.5009 12.2121 10.4788 13.1847C11.4541 14.1573 11.9418 15.4181 11.9418 16.9697C11.9418 18.5213 11.444 19.8388 10.4459 20.7985C9.44783 21.7583 8.11872 22.2369 6.45859 22.2369H3.61337V25.8753H0V11.7257H6.70876ZM3.61337 19.0849H6.12506C6.76183 19.0849 7.27981 18.8867 7.68159 18.493C8.08333 18.0993 8.28297 17.5976 8.28297 16.9903C8.28297 16.3831 8.0884 15.8813 7.7018 15.4773C7.31517 15.0759 6.80983 14.8752 6.1857 14.8752H3.61337V19.0823V19.0849Z" fill="white"/>
<path d="M19.6866 26.1275C17.597 26.1275 15.8661 25.4327 14.494 24.0433C13.1244 22.6538 12.4372 20.9092 12.4372 18.8095C12.4372 16.7099 13.1194 14.9601 14.4839 13.5655C15.8484 12.1709 17.5818 11.471 19.6866 11.471C21.1674 11.471 22.4939 11.8389 23.6639 12.5697C24.8338 13.303 25.6752 14.2911 26.1882 15.5314L23.0524 17.1601C22.7618 16.4705 22.312 15.9173 21.703 15.5005C21.0941 15.0836 20.4017 14.8752 19.626 14.8752C18.5748 14.8752 17.698 15.2483 16.9981 15.9971C16.2981 16.7459 15.9494 17.6825 15.9494 18.8095C15.9494 19.9365 16.3032 20.8577 17.0082 21.6117C17.7132 22.3656 18.5925 22.7438 19.6462 22.7438C20.422 22.7438 21.1219 22.5328 21.7435 22.1108C22.3676 21.6888 22.8174 21.1176 23.0928 20.3971L26.312 21.8998C25.799 23.1838 24.9475 24.2079 23.7574 24.9773C22.5672 25.7467 21.2103 26.1301 19.6866 26.1301V26.1275Z" fill="white"/>
<path d="M35.2013 11.7257H39.4589L34.7869 18.7889L39.3984 25.8727H35.1002L32.5456 21.6219L29.7635 25.8727H25.526L30.2185 18.704L25.6903 11.7257H29.9884L32.5431 15.9559L35.2013 11.7257Z" fill="white"/>
<path d="M43.6106 16.8848H47.3074C48.7325 16.8848 49.8722 17.2939 50.7238 18.1122C51.5752 18.9305 51.9997 20.0086 51.9997 21.3466C51.9997 22.6846 51.5628 23.7757 50.6909 24.6145C49.8193 25.4533 48.6771 25.8727 47.2646 25.8727H39.9949V11.7257H50.7514V14.8778H43.6081V16.8874L43.6106 16.8848ZM43.6106 22.9754H46.5999C47.1129 22.9754 47.5349 22.821 47.866 22.5097C48.1993 22.2009 48.3637 21.8046 48.3637 21.326C48.3637 20.8474 48.2044 20.4563 47.886 20.1527C47.5679 19.8491 47.1658 19.6973 46.6807 19.6973H43.6081V22.9754H43.6106Z" fill="white"/>
</g>
</g>
<defs>
<clipPath id="clip0_1_2">
<rect width="125" height="30" fill="white"/>
</clipPath>
</defs>
</svg>
