<svg width="30" height="30" viewBox="0 0 30 30" fill="none" xmlns="http://www.w3.org/2000/svg">
<g clip-path="url(#clip0_5_23)">
<path d="M15.0062 30.0125C23.294 30.0125 30.0125 23.294 30.0125 15.0062C30.0125 6.71853 23.294 0 15.0062 0C6.71853 0 0 6.71853 0 15.0062C0 23.294 6.71853 30.0125 15.0062 30.0125Z" fill="#006869"/>
<path fill-rule="evenodd" clip-rule="evenodd" d="M6.78467 14.8438C11.1578 12.9446 14.0691 11.6826 15.531 11.0704C19.6918 9.33361 20.5664 9.03374 21.1287 9.02124C21.2536 9.02124 21.5285 9.04623 21.7159 9.19617C21.8659 9.32112 21.9034 9.48355 21.9284 9.6085C21.9533 9.73344 21.9783 9.99583 21.9533 10.1958C21.7284 12.5698 20.7538 18.3299 20.2541 20.9788C20.0416 22.1033 19.6293 22.4781 19.2295 22.5156C18.3548 22.5906 17.6926 21.9409 16.8555 21.3911C15.531 20.5289 14.7938 19.9917 13.5069 19.142C12.02 18.1674 12.9821 17.6302 13.8317 16.7555C14.0566 16.5306 17.8925 13.0321 17.9675 12.7197C17.98 12.6822 17.98 12.5323 17.8925 12.4573C17.8051 12.3823 17.6801 12.4073 17.5802 12.4323C17.4427 12.4573 15.3436 13.8567 11.2578 16.6181C10.6581 17.0304 10.1208 17.2303 9.63348 17.2178C9.0962 17.2053 8.07163 16.9179 7.29695 16.6681C6.35985 16.3682 5.61016 16.2057 5.67263 15.681C5.71012 15.4061 6.08496 15.1312 6.78467 14.8438Z" fill="white"/>
</g>
<defs>
<clipPath id="clip0_5_23">
<rect width="30" height="30" fill="white"/>
</clipPath>
</defs>
</svg>
