<svg xmlns="http://www.w3.org/2000/svg" width="49" height="60" fill="none"><path fill="url(#a)" d="M48.914 40.006h-.86c-1.768-2.552-6.078-4.357-11.119-4.357-5.041 0-9.35 1.805-11.119 4.357h-.884v2.701h.032c.112 3.773 5.43 6.802 11.971 6.802 6.542 0 11.86-3.037 11.971-6.802l.008-2.7Z"/><path fill="url(#b)" d="M36.931 46.944c6.616 0 11.98-3.104 11.98-6.933 0-3.83-5.364-6.934-11.98-6.934-6.616 0-11.979 3.104-11.979 6.934 0 3.829 5.363 6.933 11.98 6.933Z"/><path fill="url(#c)" d="M47.364 39.514v-5.693c0-3.341-7.87-9.97-10.435-9.935-2.3 0-10.442 6.454-10.442 9.795 0-.04 0 .04 0 0v6.373c.208 3.237 4.8 5.822 10.438 5.822 5.77 0 10.451-2.709 10.451-6.05a4.02 4.02 0 0 0-.012-.312Z"/><path fill="url(#d)" d="M26.572 9.775v5.693c0 3.341 7.87 9.97 10.435 9.935 2.3 0 10.443-6.454 10.443-9.795 0-.04 0 .04 0 0V9.234c-.208-3.236-4.802-5.821-10.439-5.821-5.77 0-10.45 2.709-10.45 6.05 0 .104.003.208.011.312Z"/><path fill="url(#e)" d="M27.174 10.039V15.408c0 3.149 7.418 9.398 9.839 9.366 2.168 0 9.846-6.081 9.846-9.234 0-.04 0 .036 0 0V9.526c-.196-3.048-4.525-5.489-9.842-5.489-5.442 0-9.851 2.553-9.851 5.701-.005.102-.003.202.008.3Z"/><path fill="url(#f)" d="M46.851 15.152v-1.756c-.9-2.613-5.07-3.954-9.842-3.954-4.99 0-9.203 1.289-9.839 4.078v1.628c0 3.153 4.401 5.71 9.847 5.71 5.445 0 9.834-2.553 9.834-5.706Z"/><path fill="url(#g)" d="M46.869 39.334v-3.28h-2.193c-1.824-1.309-4.617-2.145-7.746-2.145-3.129 0-5.921.836-7.746 2.145h-2.208v3.616c0 3.201 4.457 5.762 9.954 5.762 5.498 0 9.955-2.58 9.955-5.762 0-.112-.004-.224-.016-.336Z"/><path fill="url(#h)" d="M46.885 36.097c0-2.844-7.818-7.246-9.955-7.246-2.136 0-9.954 4.27-9.954 7.246 0 3.201 4.457 5.762 9.954 5.762 5.498 0 9.975-2.58 9.955-5.762Z"/><path fill="url(#i)" d="M36.984 29.648c-.268.035-.748-.108-.748-.537V23.85h1.5v5.257c-.004.433-.444.549-.752.54Z"/><path fill="url(#j)" d="M48.914 6.93h-.86c-1.768-2.553-6.078-4.357-11.119-4.357-5.041 0-9.35 1.804-11.119 4.357h-.884v2.7h.032c.112 3.773 5.43 6.802 11.971 6.802 6.542 0 11.86-3.037 11.971-6.802l.008-2.7Z"/><path fill="url(#k)" d="M36.931 13.868c6.616 0 11.98-3.105 11.98-6.934C48.91 3.104 43.547 0 36.93 0c-6.616 0-11.979 3.104-11.979 6.934s5.363 6.934 11.98 6.934Z"/><path fill="url(#l)" d="M31.428 58.312 28.515 60 3.561 42.447 0 17.465l2.913-1.688L30.828 31.64l.596 26.67h.004Z"/><path fill="url(#m)" d="M28.54 59.996.643 44.136 0 17.465l27.895 15.86.644 26.67Z"/><path fill="url(#n)" d="m26.385 56.587-.668.304L2.283 42.887l-.46-19.669 24.094 13.704.468 19.665Z"/><path fill="url(#o)" d="m25.92 37.045-.076-3.18a3.416 3.416 0 0 0-1.54-2.621L3.202 19.24a1.096 1.096 0 0 0-.928-.144l-.86.4.368.268a1.6 1.6 0 0 0-.028.4l.076 3.18L22.235 34.95l3.041 2.4.66-.316-.016.012Z"/><path fill="url(#p)" d="M25.731 56.891 1.637 43.187l-.464-19.669 24.094 13.704.464 19.669Z"/><path fill="url(#q)" d="M25.267 37.357 1.172 23.654l-.06-3.181c0-.98.628-1.392 1.457-.924l21.105 12.003a3.418 3.418 0 0 1 1.54 2.617l.069 3.2-.017-.012Z"/><path fill="url(#r)" d="M8.47 25.383c0 .864-.649 1.172-1.501.692A3.257 3.257 0 0 1 5.4 23.638c0-.864.648-1.172 1.5-.692a3.258 3.258 0 0 1 1.568 2.437Z"/><path fill="#62B4DE" d="m5.698 31.42-2.513-1.428-.036-1.573 2.513 1.429.036 1.572ZM10.063 33.893l-2.51-1.428-.035-1.573 2.513 1.429.027 1.572h.005ZM14.406 36.374l-2.497-1.429-.036-1.572 2.509 1.428.024 1.573ZM18.77 38.85l-2.532-1.428-.037-1.572 2.513 1.428.052 1.572h.004ZM23.112 41.33 20.6 39.903l-.037-1.572 2.513 1.428.036 1.573ZM5.765 34.781l-2.513-1.428-.036-1.573L5.73 33.21l.036 1.572ZM10.14 37.258 7.628 35.82l-.036-1.572 2.512 1.428.036 1.58ZM14.489 39.754l-2.513-1.428-.036-1.573 2.509 1.429.04 1.572ZM18.859 42.223l-2.541-1.42-.036-1.573 2.513 1.429.048 1.544.016.02ZM23.2 44.688l-2.513-1.429-.036-1.572 2.512 1.428.036 1.573ZM5.859 38.142l-2.513-1.428-.036-1.573 2.513 1.429.036 1.572ZM10.22 40.623l-2.512-1.429-.036-1.572 2.513 1.428.036 1.573ZM14.57 43.095l-2.52-1.424-.036-1.572 2.512 1.428.04 1.564.004.004ZM18.924 45.572l-2.512-1.428-.036-1.573L18.888 44l.036 1.572ZM23.28 48.048l-2.513-1.424-.036-1.572 2.513 1.428.036 1.568ZM5.94 41.507l-2.514-1.428-.036-1.573 2.53 1.429.02 1.572ZM10.288 43.984l-2.513-1.429-.036-1.572 2.513 1.428.036 1.573ZM14.674 46.456l-2.517-1.432-.036-1.573 2.513 1.428.04 1.577ZM19.005 48.941l-2.513-1.428-.036-1.573 2.513 1.429.036 1.572ZM23.367 51.426l-2.513-1.429-.036-1.572 2.513 1.428.036 1.573Z"/><path fill="url(#s)" d="m0 17.46 27.895 15.861 2.913-1.688L2.941 15.777 0 17.46Z"/><path fill="url(#t)" d="M7.793 23.746a1.533 1.533 0 0 1-.524-.136l-.116-.06a1.652 1.652 0 0 1-.56-.524c.157.059.321.093.488.1h.1c.232.178.439.385.616.616l-.004.004Z"/><path fill="url(#u)" d="M12.385 17.929a7.77 7.77 0 0 1-.8 2.76l-.844-.472c.6-1.105.912-2.343.908-3.6a3.398 3.398 0 0 0-.532-1.877c.07.026.138.057.204.092.66.372 1.048 1.236 1.096 2.38.004.24-.006.479-.028.717h-.004Z"/><path fill="#62B4DE" d="M12.27 14.408c-.8-.4-2.337-.76-3.301-.228l-.052.028a7.254 7.254 0 0 0-2.693 2.988 9.107 9.107 0 0 0-.908 2.657 7.202 7.202 0 0 0-.104 1.44c.028 1.049 1 2.485 1.504 3.081-.028 0-.368-.256-.4-.272a3.873 3.873 0 0 1-1.872-3.42 8.506 8.506 0 0 1 1.012-4.09 7.29 7.29 0 0 1 2.693-2.988 2.84 2.84 0 0 1 2.84-.193c.458.293.886.631 1.277 1.009l.004-.012Z"/><path fill="url(#v)" d="M13.258 17.1a3.905 3.905 0 0 0-1-2.7 2.316 2.316 0 0 0-.524-.376l-.092-.048a2.836 2.836 0 0 0-2.693.216l-.052.028a7.254 7.254 0 0 0-2.693 2.989 9.07 9.07 0 0 0-.884 2.645 7.2 7.2 0 0 0-.104 1.44c.01.591.13 1.176.352 1.724.12.29.281.559.48.8.103.122.217.235.34.337.1.082.207.155.32.22.298.166.628.266.968.292h.184c.154-.002.306-.018.457-.048a3.491 3.491 0 0 0-.525-.892 1.533 1.533 0 0 1-.524-.137l-.116-.06a1.652 1.652 0 0 1-.56-.524 2.163 2.163 0 0 1-.168-.28 3.793 3.793 0 0 1-.364-1.572C5.984 18.805 7.42 16.04 9.26 15a2.617 2.617 0 0 1 1.273-.376c.28-.007.555.06.8.192.66.372 1.049 1.236 1.097 2.38.014.238.014.476 0 .713a7.772 7.772 0 0 1-.8 2.76l.716.4a8.537 8.537 0 0 0 .968-3.796v-.184l-.056.012Z"/><path fill="url(#w)" d="M19.947 31.932c0 .865-.648 1.173-1.5.692a3.258 3.258 0 0 1-1.569-2.436c0-.864.648-1.172 1.5-.692a3.256 3.256 0 0 1 1.57 2.436Z"/><path fill="url(#x)" d="M19.291 30.292a1.53 1.53 0 0 1-.524-.136l-.116-.06a1.653 1.653 0 0 1-.56-.524c.156.059.321.093.488.1h.1c.232.179.439.387.616.62h-.004Z"/><path fill="url(#y)" d="M23.875 24.479a7.807 7.807 0 0 1-.82 2.748l-.837-.476a7.495 7.495 0 0 0 .897-3.6 3.397 3.397 0 0 0-.524-1.865c.07.026.138.057.204.092.66.372 1.048 1.236 1.096 2.38.01.24.004.481-.016.72Z"/><path fill="#62B4DE" d="M23.757 20.957c-.8-.4-2.337-.76-3.301-.228l-.052.028a7.254 7.254 0 0 0-2.693 2.99 9.106 9.106 0 0 0-.908 2.656 7.203 7.203 0 0 0-.104 1.44c.028 1.049 1 2.485 1.504 3.081-.028 0-.368-.256-.4-.272a3.874 3.874 0 0 1-1.888-3.425 8.507 8.507 0 0 1 1.012-4.089 7.29 7.29 0 0 1 2.693-2.989 2.842 2.842 0 0 1 2.84-.192c.458.293.886.63 1.277 1.008l.02-.008Z"/><path fill="url(#z)" d="M24.749 23.643c.025-1.001-.338-1.973-1.012-2.713a2.374 2.374 0 0 0-.488-.368l-.092-.048a2.837 2.837 0 0 0-2.693.216l-.052.028a7.258 7.258 0 0 0-2.693 2.989 9.103 9.103 0 0 0-.908 2.656 7.203 7.203 0 0 0-.104 1.44c.01.592.13 1.177.352 1.725.118.29.28.56.48.8a2.465 2.465 0 0 0 .644.548c.298.167.628.267.969.293h.228c.145 0 .29-.011.432-.037a3.495 3.495 0 0 0-.524-.892 1.532 1.532 0 0 1-.524-.136l-.117-.06a1.653 1.653 0 0 1-.56-.524 2.17 2.17 0 0 1-.168-.28 3.794 3.794 0 0 1-.364-1.572c-.076-2.349 1.36-5.114 3.201-6.154a2.616 2.616 0 0 1 1.272-.376 1.6 1.6 0 0 1 .8.192c.66.372 1.049 1.236 1.097 2.38.015.238.015.476 0 .713a7.853 7.853 0 0 1-.86 2.772l.716.4c.61-1.17.94-2.465.964-3.784a.94.94 0 0 0 0-.204l.004-.004Z"/><defs><linearGradient id="a" x1="24.928" x2="48.914" y1="42.583" y2="42.583" gradientUnits="userSpaceOnUse"><stop stop-color="#55AADB"/><stop offset=".44" stop-color="#338ECD"/><stop offset=".7" stop-color="#2B83C8"/><stop offset=".95" stop-color="#368FCD"/></linearGradient><linearGradient id="b" x1="28.389" x2="43.193" y1="32.084" y2="45.82" gradientUnits="userSpaceOnUse"><stop offset=".05" stop-color="#62B6E0"/><stop offset="1" stop-color="#96C8E6"/></linearGradient><linearGradient id="c" x1="33.392" x2="44.639" y1="46.16" y2="16.552" gradientUnits="userSpaceOnUse"><stop stop-color="#DBECF7"/><stop offset=".13" stop-color="#D6E9F6"/><stop offset=".6" stop-color="#C1DDEF"/><stop offset=".7" stop-color="#ABD1EA"/><stop offset=".8" stop-color="#9CCAE6"/><stop offset=".88" stop-color="#97C7E5"/></linearGradient><linearGradient id="d" x1="27.036" x2="49.642" y1="5.994" y2="22.098" gradientUnits="userSpaceOnUse"><stop stop-color="#DBECF7"/><stop offset=".13" stop-color="#D6E9F6"/><stop offset=".62" stop-color="#C1DDEF"/><stop offset=".72" stop-color="#ABD1EA"/><stop offset=".83" stop-color="#9CCAE6"/><stop offset=".91" stop-color="#97C7E5"/></linearGradient><linearGradient id="e" x1="44.851" x2="34.348" y1="22.426" y2="9.27" gradientUnits="userSpaceOnUse"><stop stop-color="#FFAE36"/><stop offset=".3" stop-color="#FFBB46"/><stop offset=".67" stop-color="#FFC654"/><stop offset="1" stop-color="#FFCA59"/></linearGradient><linearGradient id="g" x1="46.753" x2="26.096" y1="39.554" y2="39.803" gradientUnits="userSpaceOnUse"><stop stop-color="#FFBB46"/><stop offset=".26" stop-color="#FFAE36"/><stop offset=".76" stop-color="#FFC654"/><stop offset="1" stop-color="#FFCA59"/></linearGradient><linearGradient id="i" x1="38.028" x2="27.525" y1="27.871" y2="14.72" gradientUnits="userSpaceOnUse"><stop stop-color="#FFAE36"/><stop offset=".3" stop-color="#FFBB46"/><stop offset=".67" stop-color="#FFC654"/><stop offset="1" stop-color="#FFCA59"/></linearGradient><linearGradient id="j" x1="24.928" x2="48.914" y1="9.506" y2="9.506" gradientUnits="userSpaceOnUse"><stop stop-color="#55AADB"/><stop offset=".44" stop-color="#338ECD"/><stop offset=".7" stop-color="#2B83C8"/><stop offset=".95" stop-color="#368FCD"/></linearGradient><linearGradient id="k" x1="27.365" x2="44.229" y1="-.744" y2="12.791" gradientUnits="userSpaceOnUse"><stop offset=".05" stop-color="#62B6E0"/><stop offset="1" stop-color="#96C8E6"/></linearGradient><linearGradient id="l" x1="34.293" x2="16.508" y1="78.269" y2="35.39" gradientUnits="userSpaceOnUse"><stop stop-color="#2C3E90"/><stop offset=".55" stop-color="#293C8E"/><stop offset=".91" stop-color="#213386"/><stop offset="1" stop-color="#1D3083"/></linearGradient><linearGradient id="m" x1="33.657" x2="-9.871" y1="31.144" y2="48.177" gradientUnits="userSpaceOnUse"><stop stop-color="#4759A6"/><stop offset="1" stop-color="#364897"/></linearGradient><linearGradient id="n" x1="4.987" x2="23.988" y1="44.712" y2="34.693" gradientUnits="userSpaceOnUse"><stop offset=".07" stop-color="#9FD1FF"/><stop offset=".45" stop-color="#96C8E9"/><stop offset=".53" stop-color="#94C6E4"/><stop offset=".93" stop-color="#85B7D5"/></linearGradient><linearGradient id="o" x1="35.603" x2="-7.477" y1="36.437" y2="19.993" gradientUnits="userSpaceOnUse"><stop stop-color="#C3613E"/><stop offset=".76" stop-color="#A14F31"/><stop offset=".85" stop-color="#9C4C2F"/></linearGradient><linearGradient id="p" x1="4.329" x2="23.33" y1="45.016" y2="34.997" gradientUnits="userSpaceOnUse"><stop stop-color="#C8E1F1"/><stop offset=".28" stop-color="#D7E9F4"/><stop offset=".68" stop-color="#E7F1F8"/><stop offset="1" stop-color="#ECF4F9"/></linearGradient><linearGradient id="q" x1="25.379" x2="1.248" y1="22.422" y2="34.481" gradientUnits="userSpaceOnUse"><stop stop-color="#FFA538"/><stop offset=".36" stop-color="#FF8E2C"/><stop offset=".71" stop-color="#FF8025"/><stop offset="1" stop-color="#FF7D22"/></linearGradient><linearGradient id="r" x1="6.009" x2="7.425" y1="25.339" y2="24.074" gradientUnits="userSpaceOnUse"><stop stop-color="#C3613E"/><stop offset=".76" stop-color="#A14F31"/><stop offset=".85" stop-color="#9C4C2F"/></linearGradient><linearGradient id="s" x1="26.795" x2="-10.215" y1="31.601" y2="8.691" gradientUnits="userSpaceOnUse"><stop stop-color="#6678C4"/><stop offset="1" stop-color="#6476C2"/></linearGradient><linearGradient id="t" x1="6.597" x2="7.793" y1="23.386" y2="23.386" gradientUnits="userSpaceOnUse"><stop stop-color="#194996"/><stop offset=".07" stop-color="#1756A0"/><stop offset=".17" stop-color="#1563AA"/><stop offset=".3" stop-color="#146BB0"/><stop offset=".57" stop-color="#146DB2"/><stop offset=".94" stop-color="#1562AE"/></linearGradient><linearGradient id="u" x1="12.093" x2="6.812" y1="15.364" y2="33.969" gradientUnits="userSpaceOnUse"><stop stop-color="#194996"/><stop offset=".07" stop-color="#1756A0"/><stop offset=".17" stop-color="#1563AA"/><stop offset=".3" stop-color="#146BB0"/><stop offset=".57" stop-color="#146DB2"/><stop offset=".94" stop-color="#1562AE"/></linearGradient><linearGradient id="v" x1="22.028" x2="6.232" y1="24.875" y2="17.869" gradientUnits="userSpaceOnUse"><stop offset=".16" stop-color="#62B4DE"/><stop offset=".82" stop-color="#2880C1"/></linearGradient><linearGradient id="w" x1="17.486" x2="18.907" y1="31.884" y2="30.624" gradientUnits="userSpaceOnUse"><stop stop-color="#C3613E"/><stop offset=".76" stop-color="#A14F31"/><stop offset=".85" stop-color="#9C4C2F"/></linearGradient><linearGradient id="x" x1="18.091" x2="19.291" y1="29.932" y2="29.932" gradientUnits="userSpaceOnUse"><stop stop-color="#194996"/><stop offset=".07" stop-color="#1756A0"/><stop offset=".17" stop-color="#1563AA"/><stop offset=".3" stop-color="#146BB0"/><stop offset=".57" stop-color="#146DB2"/><stop offset=".94" stop-color="#1562AE"/></linearGradient><linearGradient id="y" x1="23.567" x2="18.297" y1="21.906" y2="40.467" gradientUnits="userSpaceOnUse"><stop stop-color="#194996"/><stop offset=".07" stop-color="#1756A0"/><stop offset=".17" stop-color="#1563AA"/><stop offset=".3" stop-color="#146BB0"/><stop offset=".57" stop-color="#146DB2"/><stop offset=".94" stop-color="#1562AE"/></linearGradient><linearGradient id="z" x1="33.511" x2="17.719" y1="31.417" y2="24.411" gradientUnits="userSpaceOnUse"><stop offset=".16" stop-color="#62B4DE"/><stop offset=".82" stop-color="#2880C1"/></linearGradient><radialGradient id="f" cx="0" cy="0" r="1" gradientTransform="translate(47.331 16.516) scale(17.8447)" gradientUnits="userSpaceOnUse"><stop stop-color="#FFDC84"/><stop offset=".43" stop-color="#FFD15B"/><stop offset=".98" stop-color="#FFE7AB"/></radialGradient><radialGradient id="h" cx="0" cy="0" r="1" gradientTransform="rotate(24.38 -52.682 96.691) scale(16.1362 20.1703)" gradientUnits="userSpaceOnUse"><stop offset=".02" stop-color="#FFE7AB"/><stop offset=".19" stop-color="#FFDE8C"/><stop offset=".41" stop-color="#FFD568"/><stop offset=".53" stop-color="#FFD15B"/><stop offset="1" stop-color="#FFDC84"/></radialGradient></defs></svg>