<svg xmlns="http://www.w3.org/2000/svg" width="51" height="60" fill="none"><path fill="url(#a)" d="M9.169 20.816c.475-.254.802 0 1.167.33.364.33 1.934 2.226 1.896 3.32-.038 1.094-3.063-3.65-3.063-3.65Z"/><path fill="url(#b)" d="M46.528 30.774c4.266 5.712 5.115 12.306 1.835 14.74a3.052 3.052 0 0 1-.563.352l-3.42 1.905-1.128-1.727c-2.822-.846-5.96-3.14-8.5-6.523-3.139-4.231-4.408-8.957-3.562-12.097l-.81-1.234 2.917-1.657c3.393-1.975 9.147.74 13.231 6.24Z"/><path fill="url(#c)" d="M44.944 47.418c3.245-2.398 2.434-8.992-1.835-14.74-4.268-5.747-10.33-8.39-13.61-5.995-3.28 2.395-2.433 8.992 1.832 14.74 4.266 5.747 10.37 8.393 13.613 5.995Z"/><path fill="url(#d)" d="M41.948 45.02c2.258-1.693 1.692-6.311-1.27-10.296-2.96-3.986-7.229-5.888-9.484-4.196-2.255 1.692-1.692 6.31 1.269 10.296 2.961 3.986 7.227 5.853 9.485 4.196Z"/><path fill="#E2A598" d="M41.979 41.318c0 1.479-.563 2.538-1.459 3.066l-.07.035a1.184 1.184 0 0 1-.312.14c-.18.067-.365.116-.554.149-.4.068-.807.077-1.208.026a6.832 6.832 0 0 1-2.334-.846 9.88 9.88 0 0 1-.876-.584c-2.853-2.08-5.032-5.785-5.032-8.752a3.379 3.379 0 0 1 .245-1.553c.204-.487.502-.93.875-1.304l.105-.07c1.059-.776 2.786-.706 4.688.388a12.96 12.96 0 0 1 5.29 6.349c.239.57.41 1.167.513 1.777.07.39.114.783.129 1.178Z"/><path fill="url(#e)" d="m40.46 44.42-.874.291c-2.384.802-8.902 3.023-9.853 3.676-.201.14-.502.374-.875.668-1.736 1.415-4.96 4.257-6.066 4.96a36.142 36.142 0 0 1-3.898 1.864c-.455.196-.779.33-.843.362-.064.032-.17.129-.257.19-2.264 1.648-6.013 3.329-7.399 3.545-.067 0-.131.017-.186.02-1.237.073-4.814-.913-6.051-2.115-1.238-1.202-1.243-3.282-1.243-3.282a2.334 2.334 0 0 0-.292-.4 4.668 4.668 0 0 1-1.675-3.101c-.146-1.46 1.106-2.845 1.106-2.845l-.023-.023a1.202 1.202 0 0 0-.315-.706C.913 46.648 0 45.446 0 43.658c0-1.789 1.605-2.699 1.605-2.699l-.23-.584s-.389-.779-.193-2.529c.475-3.446 11.226-6.127 11.562-6.22 0 0-4.085-1.363-5.152-4.96-.464-1.415-.558-2.495-.447-3.317.263-1.938 1.654-2.434 1.999-2.504.487-.096 1.946 2.238 2.917 3.306 3.306 4.18 6.223 3.21 9.24 3.988 3.017.78 5.444 3.405 6.419 3.89.974.484 2.211.23 3.62-.38l6.968 9.803 2.153 2.967Z"/><path fill="url(#f)" d="m19.723 48.29-.438 6.857-1.458 1.272c-2.264 1.648-6.014 3.329-7.4 3.545a1.94 1.94 0 0 1-.805-1.22c-.195-1.508.534-2.238.534-2.238s-.875-.192-1.02-1.505a3.89 3.89 0 0 1 1.166-3.017s-1.26-.151-1.459-2.188a4.114 4.114 0 0 1 .78-2.868s-.56-.668-.511-2.077c.046-2.139 1.75-2.833 6.71-4.242-.025-.733.024-1.466.146-2.189l2.894 4.426.861 5.445Z"/><path fill="url(#g)" d="M25.556 42.502c-.974 1.558-4.084 1.266-5.01 5.497-.82 3.755.2 6.687-1.636 7.877-.455.196-.779.33-.843.362.68-.548 1.677-3.028.169-4.05a4.767 4.767 0 0 0 .51-3.404 1.578 1.578 0 0 0-.921-1.214 5.021 5.021 0 0 0 .096-3.355 2.984 2.984 0 0 0-1.021-1.267c-.064-2.161.233-4.703-.73-5.93a1.785 1.785 0 0 0-1.313-.05c-1.166.291-1.555 2.917-1.555 2.967a9.92 9.92 0 0 0-3.063.825c-.341-.776-2.136-2.57-2.626-3.107.111.05 2.81 1.28 4.712-.052 1.902-1.334 3.259-3.306 4.522-1.8 1.264 1.505.587 7.238 8.71 6.701Z"/><path fill="url(#h)" d="M16.166 37.008c-.51.51-.073 3.54 0 3.793.073.254.656.622.73.476.072-.146 0-2.086-.018-3.128a1.284 1.284 0 0 0-.523-1l-.19-.14Z"/><path fill="url(#i)" d="M41.984 41.317c0 1.48-.563 2.538-1.46 3.066l-.07.035a1.186 1.186 0 0 1-.311.14 3.11 3.11 0 0 1-.555.15c-2.383.802-8.901 3.022-9.852 3.675-.202.14-.502.374-.876.669 1.54-1.41 3.487-3.738 6.29-5.748a20.796 20.796 0 0 1 3.17-1.885 19.14 19.14 0 0 1 3.544-1.286c.068.391.108.787.12 1.184Z"/><path fill="url(#j)" d="M15.873 33.837c-.076-.018-1.275-1.494-3.113-2.223 0 0-4.084-1.363-5.152-4.96-.464-1.415-.558-2.495-.447-3.318-.213 2.603 1.57 3.77 3.265 4.485 2.366.989 5.301 5.882 5.447 6.016Z" opacity=".9"/><path stroke="#A44B35" stroke-linecap="round" stroke-linejoin="round" stroke-width=".375" d="M1.382 40.364C3.57 43.815 8.215 47 9.819 46.855c2.133-.192 6.346-2.698 6.638-3.086.292-.389.487-.438.438-1.8"/><path stroke="#A44B35" stroke-linecap="round" stroke-linejoin="round" stroke-width=".375" d="M1.995 48.194c1.97 1.117 6.05 4.009 8.289 3.793 2.237-.216 7.346-3.96 7.539-4.423.192-.464.656-2.165.192-3.163a3.872 3.872 0 0 0-1.117-1.459"/><path stroke="#A44B35" stroke-linecap="round" stroke-linejoin="round" stroke-width=".375" d="M2.635 54.187c3.417 1.617 6.308 2.562 7.501 2.334 1.194-.227 7.32-3.183 8.123-4.376.443-.66.753-2.115.56-3.137a2.113 2.113 0 0 0-.995-1.432M7.161 23.334c-.151 4.96 2.78 6.914 5.6 8.277 2.041.983 3.063 2.01 3.774 3.314"/><path fill="url(#k)" d="M47.489 6.426a5.211 5.211 0 0 1-2.38 4.377l-1.953 1.263L25.242 23.64 14.512 4.366c-.695-1.242-2.189-1.992-1.147-2.88 0 0 2.258-1.058 2.29-1.117a2.934 2.934 0 0 1 4.006 1.167l5.593 10.393 9.114-6.658 3.248-2.372c.26-.181 2.211-1.094 2.488-1.22a5.211 5.211 0 0 1 7.385 4.733v.014Z"/><path fill="url(#l)" d="M47.481 6.426a5.211 5.211 0 0 1-2.38 4.377l-1.952 1.263c-2.778-2.063-6.11-4.59-8.788-6.786l3.247-2.372c.26-.181 2.212-1.094 2.489-1.22A5.21 5.21 0 0 1 47.48 6.42v.006Z"/><path fill="url(#m)" d="M23.133 24.667 12.399 5.394a2.936 2.936 0 0 1 1.146-4 2.935 2.935 0 0 1 4.006 1.167l5.593 10.39L37.19 3.16a5.21 5.21 0 0 1 7.426 1.579 5.211 5.211 0 0 1-1.62 7.093L23.133 24.667Z"/><path fill="url(#n)" d="m23.12 24.667 2.116-1.021 19.11-12.365-.893.23-20.332 13.156Z"/><defs><linearGradient id="a" x1="11.859" x2="10.094" y1="21.977" y2="23.077" gradientUnits="userSpaceOnUse"><stop stop-color="#F4CFC6"/><stop offset="1" stop-color="#F2C4BA"/></linearGradient><linearGradient id="b" x1="40.372" x2="40.372" y1="23.891" y2="45.154" gradientUnits="userSpaceOnUse"><stop stop-color="#3648A6"/><stop offset=".19" stop-color="#3C51BC"/><stop offset=".46" stop-color="#2F41A0"/><stop offset=".76" stop-color="#1D3092"/><stop offset="1" stop-color="#3648A6"/></linearGradient><linearGradient id="c" x1="31.579" x2="51.597" y1="25.667" y2="66.058" gradientUnits="userSpaceOnUse"><stop stop-color="#5664AB"/><stop offset="1" stop-color="#3F50A9"/></linearGradient><linearGradient id="d" x1="31.17" x2="41.939" y1="30.514" y2="44.996" gradientUnits="userSpaceOnUse"><stop offset=".48" stop-color="#ECF6FF"/><stop offset="1" stop-color="#D9EAF5"/></linearGradient><linearGradient id="e" x1="-1.395" x2="34.88" y1="43.643" y2="33.14" gradientUnits="userSpaceOnUse"><stop stop-color="#F0BFB5"/><stop offset=".53" stop-color="#E7AFA3"/><stop offset="1" stop-color="#E2A598"/></linearGradient><linearGradient id="f" x1="29.015" x2=".975" y1="39.906" y2="57.332" gradientUnits="userSpaceOnUse"><stop stop-color="#D78679" stop-opacity="0"/><stop offset="1" stop-color="#D78679"/></linearGradient><linearGradient id="g" x1="35.882" x2="12.833" y1="27.302" y2="47.141" gradientUnits="userSpaceOnUse"><stop stop-color="#D78679" stop-opacity="0"/><stop offset=".82" stop-color="#D78679"/><stop offset="1" stop-color="#C36D5C"/></linearGradient><linearGradient id="h" x1="16.443" x2="16.408" y1="36.97" y2="40.909" gradientUnits="userSpaceOnUse"><stop stop-color="#F4CFC6"/><stop offset="1" stop-color="#F2C4BA"/></linearGradient><linearGradient id="i" x1="36.688" x2="33.709" y1="46.755" y2="41.871" gradientUnits="userSpaceOnUse"><stop stop-color="#C36D5C"/><stop offset=".4" stop-color="#D78679"/><stop offset="1" stop-color="#D78679" stop-opacity="0"/></linearGradient><linearGradient id="j" x1="23.759" x2=".422" y1="36.635" y2="21.387" gradientUnits="userSpaceOnUse"><stop offset=".08" stop-color="#CC796A"/><stop offset=".38" stop-color="#D78679"/><stop offset="1" stop-color="#D78679" stop-opacity="0"/></linearGradient><linearGradient id="k" x1="37.409" x2="25.111" y1="16.851" y2="-5.711" gradientUnits="userSpaceOnUse"><stop stop-color="#55AADB"/><stop offset=".58" stop-color="#338ECD"/><stop offset=".87" stop-color="#2880C6"/><stop offset=".99" stop-color="#50A6D9"/></linearGradient><linearGradient id="l" x1="44.779" x2="39.029" y1="11.377" y2="2.044" gradientUnits="userSpaceOnUse"><stop offset=".06" stop-color="#338ECD"/><stop offset=".51" stop-color="#2880C6"/><stop offset=".89" stop-color="#55AADB"/></linearGradient><linearGradient id="m" x1="37.56" x2="-6.054" y1="-24.072" y2="19.537" gradientUnits="userSpaceOnUse"><stop stop-color="#96C8E6"/><stop offset=".95" stop-color="#62B6E0"/></linearGradient><linearGradient id="n" x1="30.724" x2="35.865" y1="30.117" y2="9.382" gradientUnits="userSpaceOnUse"><stop offset=".06" stop-color="#48A1D9"/><stop offset=".42" stop-color="#2891D2"/><stop offset=".93" stop-color="#1D7EC9"/><stop offset="1" stop-color="#1D7EC9" stop-opacity="0"/></linearGradient></defs></svg>