<svg xmlns="http://www.w3.org/2000/svg" fill="none" viewBox="0 0 56 60"><path fill="url(#a)" d="M49.7 16.2v26.7l-24 13.8L.9 13.5 23.8.2c.4-.3 1-.3 1.4 0L48 13.4l1 .8.2.5c.2.5.4 1 .4 1.5Z"/><path fill="url(#b)" d="M49.3 14.7 25.6 28.1l-.4-.3L.9 13.5H.8L23.8.2c.4-.3 1-.3 1.4 0L48 13.4l1 .8.2.5Z"/><path fill="url(#c)" d="m25 28.4.2-.6v-.3" opacity=".8"/><path fill="url(#e)" d="M26.3 55.9V29.3c0-1-.6-1.9-1.4-2.4L1.7 13.4a.8.8 0 0 0-1.3.8V41c0 1 .6 2 1.4 2.4L25 56.6c.6.4 1.3 0 1.3-.7Z"/><path fill="url(#f)" d="M24.2 50.8V30c0-.7-.4-1.4-1-1.8L4.8 17.4a.7.7 0 0 0-.7 0l-1.4 1 1 20.7c0 .8.5 1.5 1.2 1.9l17.5 11.3 1.4-1c.2 0 .3-.2.3-.5Z"/><path fill="url(#g)" d="M22.9 51.7V30.8c0-.7-.5-1.4-1.1-1.8L3.5 18.3c-.4-.2-1 0-1 .6V40c0 .8.5 1.5 1.1 1.9L22 52.3c.4.2 1 0 1-.6Z"/><path fill="url(#h)" d="M8.9 38c0 1 1.4 5.6 4.4 5.9 3.3.3 5.9-5 3-10-2.6-4.8-7.4 4-7.4 4Z" opacity=".8"/><path fill="url(#i)" d="M17.5 37.9c0 .5 0 1-.2 1.4l-.1.3c-.2.5-.6 1-1 1.2-.3.2-3.4.5-3.4.4a13.2 13.2 0 0 1-5.4-9l2-2.5c.8-.6 2-.6 3.4.2 2.6 1.5 4.7 5 4.7 8Z"/><path stroke="#1D3094" stroke-linecap="round" stroke-linejoin="round" stroke-miterlimit="10" stroke-width=".2" d="M12.8 41.2c.9 0 3-.2 3.5-.4.7-.3 1.1-1.1 1.2-2.7"/><path fill="url(#j)" d="M14.5 38.5c0 .5 0 .8-.2 1.2v.3c-.7 1.3-2 1.7-3.7.7a8.5 8.5 0 0 1-3.8-6.6c0-2.4 1.7-3.4 3.8-2.2a8.3 8.3 0 0 1 3.9 6.6Z"/><path fill="url(#k)" d="M23.6 39a1 1 0 0 1-1-1v-5c0-.5.4-1 1-1 .5 0 1 .5 1 1v5c0 .6-.5 1-1 1Z"/><path fill="url(#l)" d="M23.6 50.7a1 1 0 0 1-1-1.1v-5c0-.5.4-1 1-1 .5 0 1 .5 1 1v5c0 .6-.5 1-1 1Z"/><path fill="#48A1D9" d="M2.8 28.2v6.2l.6-.3c.5-.3 1-.1 1.4.3.2.5 0 1.1-.4 1.4l-1.5.8-.4.1h-.2c-.3 0-.5 0-.8-.2-.4-.2-.7-.7-.7-1.2v-7.2c0-.7.4-1.3 1-1.6l1.6-1a1 1 0 0 1 1.4.6v.2c.1 0 .1.1 0 .2 0 .3-.1.6-.4.8l-1.6.9Z"/><path fill="url(#m)" d="M12.6 37.8v.7l-.1.2-.4.5-1.6.2A6 6 0 0 1 8 35.2l.9-1.1c.4-.3 1-.3 1.6 0 1.2.7 2.1 2.4 2.1 3.7Z"/><path fill="url(#n)" d="m11.3 38.1-.1.6v.1c-.3.6-1 .8-1.7.3a4 4 0 0 1-1.8-3c0-1.2.8-1.6 1.8-1a4 4 0 0 1 1.8 3Z"/><path fill="url(#o)" d="m32.1 16-1.1.7-1.7 1L17.6 11l-1.1-.7 2.8-1.6L32.1 16Z"/><path fill="url(#p)" d="M27.5 7.4c3.5 3.3 4.2 7.4 3.2 9.3-.8 1.5-6.3-5.4-6.3-5.4l3.1-4Z" opacity=".8"/><path fill="url(#q)" d="m31 16.7-1.7 1-1-.6-.5-.2-4.1-2.5-1-.5-.8-.5-3.2-1.8-1-.6.7-.5 1-.5 2 1.2.3.1 3 1.7 3.6 2.2 1.2.7 1.5.8Z"/><path fill="url(#r)" d="M30 13.7c0 .7-.1 1.3-.3 1.8l-.2.4c-.3.5-.7.9-1.2 1.1l-.5-.2-4.1-2.4-.7-.8-1.1-1.9-.1-.2-.1-.2-.3-.5a13 13 0 0 1-1.7-5.1l2-1.1c.8-.5 2-.3 3.3.4 2.7 1.6 5 5.5 5 8.7Z"/><path fill="url(#s)" d="M28.3 14.7v.5c0 .3 0 .7-.2 1l-.1.4-.2.3-4.1-2.4-1-.6-.8-.5-3.2-1.8a11.2 11.2 0 0 1-.4-2.7c0-1.6.5-2.7 1.4-3.2.9-.6 2.2-.5 3.6.3a11 11 0 0 1 5 8.7Z"/><path fill="#FF7D22" d="M25.5 11.1a3.6 3.6 0 0 0-1-1.4l-.7-.5-2-1.1v2.7l-.4-.3v.8l.4.3h.1v.5l-.5-.3v.8l.5.3v.5l.8.5v-.6l.4.2 1.4.8v-.8l-1.8-1V12l1 .7.8.3h.6c.2 0 .4 0 .4-.2.2-.2.2-.5.2-.8 0-.3 0-.6-.2-.9Zm-1.8.7-1-.6V9.4l1 .7c.8.4 1.2.9 1.2 1.5s-.4.7-1.2.2Z"/><path fill="#62B4DE" d="m52.8 40.8-2.3-1.3V38l2.3 1.4v1.4ZM53 44l-2.4-1.4v-1.4l2.3 1.3v1.4ZM53 47l-2.4-1.3v-1.4l2.3 1.3V47Z"/><path fill="url(#t)" d="m46 53.6.2-.4.4-.3.8.5-.2.3s0 .2.3.3a1.2 1.2 0 0 0 1 0c.3 0 .4-.2.3-.3l-.1-.4-.1-.1-.2-.1-.1-.3v-.5c0-.2.2-.3.4-.4l.8-.3h.8l.4.1.8-.4.3.2.3.2-.7.4.2.3v.5c-.1.1-.2.3-.5.4l-.8-.5c.2 0 .2-.1.2-.2s0-.2-.2-.3a1 1 0 0 0-.4 0h-.5l-.2.3s0 .2.2.3l.2.2.3.6c0 .3-.1.5-.5.8l-.9.3a4 4 0 0 1-1.4-.1l-.8.4-.3-.2-.3-.2.7-.4-.3-.7Z"/><path fill="#BE9228" d="m46 54.8.4.2.7-.4.5.1h1c.3 0 .6-.1.8-.3.4-.2.6-.5.5-.8 0-.1 0-.3-.3-.6l-.1-.1-.2-.4.2-.2.4-.1h.4c.2.1.2.2.2.3l-.1.3.8.5c.2-.2.4-.3.4-.5v-.5l-.2-.2.8-.4-.4-.2-.3-.2-.7.4-.4-.1h-.9a2 2 0 0 0-.8.2 1 1 0 0 0-.4.5v.4l.2.3.1.1v.2l.3.3c0 .2 0 .3-.3.4l-.5.1a1 1 0 0 1-.6-.1l-.3-.4.3-.3-.9-.5a1 1 0 0 0-.3.4l-.2.4.3.6-.7.4.3.2Z"/><path fill="url(#u)" d="M55.2 51.6v.2l-.1.2v.2l-.1.1v.2h-.1l-.1.2v.1l-.1.1-.1.1-.1.1-.2.2-.1.1-.2.2h-.2v.1l-.2.1-.2.1-.6.4h-.2l-.5.2H52l-.4.2h-.2l-.4.1h-.2l-.7.2h-2.2l-.3-.1h-.2l-.4-.1h-.2l-.4-.1h-.2l-.7-.3-.4-.2H45l-.5-.3-.4-.2v-.1l-.4-.2v-.1l-.3-.2V53l-.2-.2-.1-.1-.1-.3-.1-.1v-.2l-.1-.1v-.4l-.1-.2v1.3c0 1 .6 1.9 1.8 2.6a9 9 0 0 0 .6.3l.3.1a5.3 5.3 0 0 0 .8.3h.2l.4.1h.2l.3.1H47.6l.3.1H50.8l.2-.1h.4l.2-.1.3-.1h.2l.5-.3h.2l.6-.3.2-.2.3-.1.1-.2.2-.1.1-.1a1.8 1.8 0 0 0 .3-.4l.2-.3.1-.1v-.2l.1-.1v-.2l.1-.2V51.5Z"/><path fill="url(#v)" d="M42.6 51.7v.1l.1.2v.2l.1.2v.1l.2.2.1.1.2.2v.1l.3.3.4.3.5.3.4.2.2.1.3.1.7.3h.2l.4.1h.3l.3.1h.3l.3.1H50l.7-.1h.2l.4-.1h.2l.3-.2h.2l.5-.2.2-.1.6-.3.4-.3.4-.2.3-.4.2-.3.1-.1.1-.2v-.1l.2-.2v-.4c.2-1-.4-2.1-1.8-2.9-.9-.5-2-.9-3.2-1a11 11 0 0 0-2.4 0c-1.2.1-2.3.5-3.2 1-.5.3-1 .6-1.2 1-.4.5-.6 1-.6 1.5v.3Zm3.5.2.1-.4.4-.3.8.5-.2.3c0 .1 0 .2.3.3a1.2 1.2 0 0 0 1 0c.3 0 .4-.2.3-.3l-.1-.4h-.1l-.2-.2-.1-.3v-.5l.4-.4.8-.2H50.7l.8-.3.3.1.3.3-.7.4.2.2v.5c-.1.2-.2.3-.5.4l-.8-.4c.2-.1.2-.2.2-.3 0 0 0-.2-.2-.2a1 1 0 0 0-.4-.2c-.2 0-.3 0-.5.2l-.1.2v.3h.1l.2.2.3.6c0 .3-.1.6-.5.8l-.9.3a4 4 0 0 1-1.4-.1l-.8.4-.3-.2-.3-.2.7-.4c-.2-.2-.3-.4-.3-.7Z"/><path fill="#BE9228" d="m46 53.1.4.3.7-.5.5.1h1l.8-.2c.4-.3.6-.5.5-.8 0-.2 0-.4-.3-.6l-.1-.2-.2-.3c0-.1 0-.2.2-.3h.8c.2 0 .2.2.2.3l-.1.2.8.5c.2-.1.4-.3.4-.5v-.4l-.2-.3.8-.4-.4-.2-.3-.2-.7.4h-1.3a2 2 0 0 0-.8.2 1 1 0 0 0-.4.4v.5l.2.3.1.1v.1l.3.4c0 .1 0 .2-.3.3l-.5.2a1 1 0 0 1-.6-.2l-.3-.3.3-.3-.9-.5-.3.3-.2.4.3.6-.7.4.3.2Z"/><path fill="url(#w)" d="M55.2 49.7v.2l-.1.2v.2l-.1.1v.2h-.1l-.1.2v.1l-.1.1-.1.1-.1.1-.2.2-.1.1-.2.2h-.2v.1l-.2.1-.2.1-.6.4h-.2l-.5.2H52l-.4.2h-.2l-.4.1h-.2l-.7.2h-2.2l-.3-.1h-.2l-.4-.1h-.2l-.4-.1h-.2v-.1l-.7-.2-.4-.2H45l-.5-.3-.4-.3-.4-.2v-.1l-.3-.2V51l-.2-.2-.1-.2-.1-.2-.1-.1v-.2l-.1-.2V49.7l-.1-.2v1.3c0 .9.6 1.8 1.8 2.6l.5.2h.1l.3.2a5.3 5.3 0 0 0 .8.3h.2l.4.1h.2l.3.1H47.6l.3.1H50.8l.2-.1h.4l.2-.1.3-.1h.2l.5-.3h.2l.6-.3.2-.2.3-.1.1-.2.2-.1.1-.1a1.8 1.8 0 0 0 .3-.4l.2-.3.1-.1v-.2l.1-.1v-.2l.1-.2V49.6Z"/><path fill="url(#x)" d="M42.6 49.8v.1l.1.2v.2l.1.2v.1l.2.2.1.1.2.2v.2l.3.2.4.3.5.3.4.2.2.1.3.2.7.2h.2l.4.1h.3l.3.1h.3l.3.1H50.8l.2-.1.4-.1h.2l.3-.1.2-.1.5-.2h.2l.6-.4.4-.2.4-.3.3-.3v-.1l.2-.2.1-.2.1-.2v-.1l.2-.2v-.4c.2-1-.4-2-1.8-2.9-.9-.5-2-.8-3.2-1H47.7c-1.2.2-2.3.5-3.2 1-.5.3-1 .7-1.2 1-.4.5-.6 1-.6 1.6v.2Zm3.5.3.1-.4.4-.4.8.5-.2.3c0 .1 0 .2.3.3a1.2 1.2 0 0 0 1 0c.3 0 .4-.1.3-.3l-.1-.3-.1-.2h-.2l-.1-.4c-.1-.1 0-.3 0-.4 0-.2.2-.3.4-.5l.8-.2h.8l.4.1.8-.4.3.2.3.2-.7.4.2.2v.5l-.5.5-.8-.5c.2 0 .2-.2.2-.3 0 0 0-.2-.2-.2a1 1 0 0 0-.4-.1h-.5l-.1.3v.3l.1.1.2.2.3.5c0 .3-.1.6-.5.8-.3.2-.5.3-.9.3a4 4 0 0 1-1.4 0l-.8.3-.3-.2-.3-.2.7-.4-.3-.6Z"/><path fill="#BE9228" d="m46 51.5.4.2.7-.4a3.2 3.2 0 0 0 1.5 0c.3 0 .6 0 .8-.2.4-.2.6-.5.5-.8 0-.2 0-.4-.3-.6l-.1-.1v-.1c-.2-.1-.2-.2-.2-.3 0 0 0-.2.2-.2l.4-.2.4.1c.2.1.2.2.2.3l-.1.3.8.4.4-.4V49l-.2-.2.8-.5-.4-.2-.3-.2-.7.5-.4-.1h-.9a2 2 0 0 0-.8.2 1 1 0 0 0-.4.4v.5l.2.3.1.1v.1l.3.4c0 .1 0 .3-.3.4l-.5.1a1 1 0 0 1-.6-.1l-.3-.4.3-.3-.9-.5-.3.3-.2.4c0 .3.1.5.3.7l-.7.4.3.2Z"/><path fill="url(#y)" d="M55.2 47.7V48l-.1.2v.2l-.1.1v.2h-.1l-.1.2v.1h-.1v.1l-.1.1-.1.1-.2.2h-.1v.1l-.2.1-.2.2-.2.1-.2.1-.6.3-.2.1-.5.2H52l-.4.2a224 224 0 0 1-.6.1h-.2l-.7.1h-2.7L47 51h-.2l-.4-.2h-.2c-.3 0-.5-.2-.7-.3l-.4-.1H45l-.5-.3-.4-.3-.4-.3-.3-.3-.2-.3H43l-.1-.3-.1-.1v-.2l-.1-.2V47.8l-.1-.2v1.3c0 .9.6 1.8 1.8 2.5a9 9 0 0 0 .6.4h.3v.1a5.3 5.3 0 0 0 .8.3h.2l.4.1h.2l.3.1H48l.2.1H50l.8-.1h.2l.4-.1h.2l.3-.2h.2l.5-.2h.2l.6-.4.2-.1.3-.2.1-.1.2-.2h.1a1.8 1.8 0 0 0 .3-.5l.2-.2V50h.1v-.3h.1V49.4l.1-.1V47.7Z"/><path fill="url(#z)" d="M42.6 47.8v.2l.1.2v.1l.1.2v.2l.2.2.1.1.2.2v.1l.3.2v.1l.4.2v.1l.5.3.4.2h.2l.3.2.7.3h.2l.4.1h.3l.3.1h.3l.3.1H50.8l.2-.1.4-.1h.2l.3-.2h.2l.5-.2h.2l.6-.4.4-.3.4-.2.3-.3v-.2l.2-.2.1-.1.1-.2v-.1l.2-.2V48c.2-1-.4-2.1-1.8-2.9-.9-.5-2-.9-3.2-1a11 11 0 0 0-2.4 0c-1.2.1-2.3.5-3.2 1-.5.3-1 .6-1.2 1-.4.5-.6 1-.6 1.5v.2Zm3.5.3.1-.4.4-.3.8.5-.2.3c0 .1 0 .2.3.3a1.2 1.2 0 0 0 1 0c.3 0 .4-.2.3-.3l-.1-.4h-.1l-.2-.2-.1-.3v-.5l.4-.4.8-.2H50.7l.8-.3.3.1.3.3-.7.4.2.2v.5c-.1.2-.2.3-.5.4l-.8-.4c.2-.1.2-.2.2-.3 0 0 0-.2-.2-.2a1 1 0 0 0-.4-.1h-.5l-.1.3v.3h.1l.2.2.3.6c0 .3-.1.6-.5.8l-.9.3a4 4 0 0 1-1.4-.1l-.8.4-.3-.2-.3-.2.7-.4-.3-.7Z"/><path fill="#BE9228" d="m46 49.7.4.3.7-.5.5.1h1l.8-.2c.4-.3.6-.5.5-.9 0-.1 0-.3-.3-.5l-.1-.2-.2-.3c0-.1 0-.2.2-.3l.4-.1.4.1c.2 0 .2.2.2.3l-.1.2.8.5c.2-.1.4-.3.4-.5v-.5l-.2-.2.8-.4-.4-.2-.3-.2-.7.4h-1.3a2 2 0 0 0-.8.2 1 1 0 0 0-.4.4v.5l.2.3h.1v.2l.3.4c0 .1 0 .2-.3.3l-.5.2a1 1 0 0 1-.6-.2l-.3-.3.3-.3-.9-.5-.3.3-.2.4.3.6-.7.4.3.2Z"/><path fill="url(#A)" d="M55.2 45.8V46.1l-.1.2v.1l-.1.2v.1h-.1v.1l-.1.1v.2h-.1v.1h-.1l-.1.2s-.2 0-.2.2h-.1l-.2.2-.2.1-.2.2h-.2v.1l-.6.3h-.2l-.5.3H52l-.4.1a224 224 0 0 0-.6.2h-.2l-.7.1h-2.6l-.1-.1h-.5l-.1-.1-.4-.1h-.2l-.7-.3-.4-.1-.1-.1-.5-.2-.4-.3-.4-.3-.3-.3v-.1l-.2-.2-.1-.1-.1-.2-.1-.2v-.2l-.1-.1v-.4l-.1-.2V47c0 1 .6 1.9 1.8 2.6l.5.2.1.1.3.1a5.3 5.3 0 0 0 .8.3h.2l.4.2h.7l.1.1h3.2l.2-.1h.4l.2-.1.3-.1h.2a724.8 724.8 0 0 0 .7-.3l.6-.3.2-.2.3-.1.1-.2.2-.1.1-.1a1.8 1.8 0 0 0 .3-.4l.2-.3.1-.1v-.2l.1-.1v-.2l.1-.2v-1.6Z"/><path fill="url(#B)" d="M42.6 45.9v.2l.1.2v.1l.1.2v.2c.1 0 .2 0 .2.2h.1l.2.3.3.3.4.3c.2.2.3.3.5.3l.4.3h.2l.3.2a6.2 6.2 0 0 0 .9.3h.4l.3.1h.3l.3.1h.6l.3.1H50.1l.7-.1h.2l.4-.2h.2l.3-.1h.2l.5-.3h.2l.6-.3.4-.3c.2 0 .3-.2.4-.3l.3-.3.2-.3.1-.1.1-.2v-.2l.2-.2V46.1c.2-1-.4-2.1-1.8-3-.9-.5-2-.8-3.2-1a11 11 0 0 0-2.4 0c-1.2.2-2.3.5-3.2 1-.5.3-1 .7-1.2 1-.4.5-.6 1-.6 1.6v.2Zm3.5.3.1-.4.4-.3.8.4-.2.4s0 .2.3.3a1.2 1.2 0 0 0 1 0c.3 0 .4-.2.3-.3l-.1-.4-.1-.1-.2-.1-.1-.3v-.5c0-.2.2-.3.4-.4l.8-.3h.8l.4.1.8-.4.3.2.3.2-.7.4.2.3v.5c-.1.1-.2.3-.5.4l-.8-.5c.2 0 .2-.2.2-.2 0-.1 0-.2-.2-.3a1 1 0 0 0-.4 0h-.5l-.1.3v.3h.1l.2.2.3.6c0 .3-.1.5-.5.8l-.9.2a4 4 0 0 1-1.4 0l-.8.4-.3-.2-.3-.2.7-.4-.3-.7Z"/><path fill="#BE9228" d="m46 48 .4.2.7-.4.5.1h1c.3 0 .6-.1.8-.3.4-.2.6-.5.5-.8 0-.1 0-.3-.3-.5l-.1-.2-.2-.4.2-.2.4-.1h.4c.2.1.2.2.2.3l-.1.3.8.5c.2-.2.4-.3.4-.5v-.5l-.2-.2.8-.4-.4-.2-.3-.2-.7.4h-1.3a2 2 0 0 0-.8.2 1 1 0 0 0-.4.4v.4l.2.3.1.2.3.4c0 .2 0 .3-.3.4l-.5.1a1 1 0 0 1-.6-.1l-.3-.3c0-.2.1-.3.3-.4l-.9-.5a1 1 0 0 0-.3.4l-.2.4.3.6-.7.4.3.2Z"/><path fill="url(#C)" d="M55.2 44v.2l-.1.2v.2l-.1.1v.2h-.1l-.1.2v.1h-.1v.1l-.1.1-.1.1-.2.2h-.1v.1l-.2.1-.2.2-.2.1-.2.1a5.4 5.4 0 0 1-.8.4l-.5.2H52l-.4.2h-.2l-.4.1h-.2l-.7.1h-2.7l-.4-.1h-.2l-.4-.2h-.2l-.7-.2-.4-.2H45l-.5-.3-.4-.3-.4-.2v-.1l-.3-.2v-.1l-.2-.2-.1-.2-.1-.2-.1-.1v-.2l-.1-.2V44l-.1-.2v1.3c0 1 .6 1.8 1.8 2.6a9 9 0 0 0 .6.3l.3.1a5.3 5.3 0 0 0 .8.3h.2l.4.1h.2l.3.1H47.6l.3.1H50.8l.2-.1h.4l.2-.2h.4l.1-.1.5-.2h.2l.6-.4.2-.1.3-.1.1-.2.2-.2h.1a1.8 1.8 0 0 0 .3-.4l.2-.3v-.1h.1V46l.1-.2v-.2l.1-.1V43.9Z"/><path fill="url(#D)" d="M42.6 44v.2l.1.2v.1l.1.2v.2l.2.2.1.1.2.2v.1l.3.2v.1l.4.2v.1l.5.3.4.2h.2l.3.2.7.3h.2l.4.1h.3l.3.1h.3l.3.1H50.8l.2-.1.4-.1h.2l.3-.2h.2l.5-.2h.2l.6-.4.4-.2.4-.3.3-.3v-.1l.2-.3.1-.1.1-.2v-.1l.2-.2v-.4c.2-1-.4-2-1.8-2.9-.9-.5-2-.9-3.2-1a11 11 0 0 0-2.4 0c-1.2.1-2.3.5-3.2 1-.5.3-1 .6-1.2 1-.4.5-.6 1-.6 1.5v.2Zm3.5.3.1-.4.4-.3.8.5-.2.3c0 .1 0 .2.3.3a1.2 1.2 0 0 0 1 0c.3 0 .4-.2.3-.3l-.1-.4-.1-.1-.2-.1-.1-.3V43c0-.2.2-.3.4-.4l.8-.2H50.7l.8-.4.3.2.3.2-.7.4.2.3v.5c-.1.1-.2.3-.5.4l-.8-.4c.2-.1.2-.2.2-.3 0-.1 0-.2-.2-.3a1 1 0 0 0-.4 0h-.5l-.1.3v.3h.1l.2.2.3.6c0 .3-.1.6-.5.8l-.9.3a4 4 0 0 1-1.4-.1l-.8.4-.3-.2-.3-.2.7-.4-.3-.7Z"/><path fill="#BE9228" d="m46 46.4.4.2.7-.4h1.5c.3 0 .6 0 .8-.2.4-.3.6-.5.5-.8 0-.2 0-.4-.3-.6l-.1-.1v-.1c-.2-.1-.2-.2-.2-.3 0-.1 0-.2.2-.3h.8c.2 0 .2.2.2.3l-.1.2.8.5.4-.4v-.5l-.2-.3.8-.4-.4-.2-.3-.2-.7.4h-1.3a2 2 0 0 0-.8.2 1 1 0 0 0-.4.4v.5l.2.3h.1v.2l.3.4c0 .1 0 .2-.3.3l-.5.2a1 1 0 0 1-.6-.2l-.3-.3.3-.3-.9-.5-.3.3-.2.4.3.6-.7.4.3.3Z"/><path fill="url(#E)" d="M55.2 42V42.3l-.1.2v.2l-.1.1v.2h-.1l-.1.2v.1h-.1v.1l-.1.1-.1.1-.2.2h-.1v.1l-.2.1-.2.2-.2.1-.2.1a5.4 5.4 0 0 1-.8.4l-.5.2H52l-.4.2h-.2l-.4.1h-.2l-.7.2h-2.2l-.3-.1h-.2l-.4-.1h-.2l-.4-.1h-.2V45l-.7-.2-.4-.2H45l-.5-.3-.4-.2V44l-.4-.2v-.1l-.3-.2v-.1l-.2-.2-.1-.2-.1-.2-.1-.1v-.2l-.1-.2V42.1l-.1-.2v1.3c0 1 .6 1.8 1.8 2.6a9 9 0 0 0 .6.3l.3.1a5.3 5.3 0 0 0 .8.3h.2l.4.1h.2l.3.1H47.6l.3.1H50.8l.2-.1h.4l.2-.2h.4l.1-.1.5-.2h.2l.6-.4.2-.1.3-.1.1-.2.2-.2h.1a1.8 1.8 0 0 0 .3-.4l.2-.3v-.1h.1v-.2l.1-.2v-.2l.1-.1V42Z"/><path fill="url(#F)" d="M42.6 42.1v.2l.1.2v.1l.1.2v.2l.2.2.1.1.2.2v.1l.3.2v.1l.4.2v.1l.5.3.4.2h.2l.3.2a6.2 6.2 0 0 0 1.3.4h.3l.3.1h.6l.3.1H50l.7-.1h.2l.4-.1.2-.1h.3l.2-.1.5-.2.2-.1.6-.3.4-.3c.2 0 .3-.2.4-.3l.3-.3.2-.3.1-.1.1-.2v-.2l.2-.2V42.3c.2-1-.4-2.1-1.8-3-.9-.5-2-.8-3.2-1a11 11 0 0 0-2.4 0c-1.2.2-2.3.6-3.2 1-.5.4-1 .7-1.2 1-.4.5-.6 1-.6 1.6v.2Z"/><path fill="url(#G)" d="M55.2 40.1V40.4l-.1.2v.2l-.1.1v.2h-.1l-.1.1v.2h-.1v.1h-.1l-.1.2-.2.2h-.1v.1l-.2.1-.2.2-.2.1-.2.1a5.4 5.4 0 0 1-.8.4l-.5.2H52l-.4.1-.2.1H51l-.2.1-.7.1h-2.7l-.4-.1h-.2l-.4-.2h-.2l-.7-.3-.4-.1H45l-.5-.3-.4-.3-.4-.3-.3-.3-.2-.3-.1-.1-.1-.2-.1-.2v-.2l-.1-.1v-.4l-.1-.1v1.2c0 1 .6 1.9 1.8 2.6a9 9 0 0 0 .6.3l.3.2a5.3 5.3 0 0 0 .8.2h.2l.4.2h.5l.2.1H48l.1.1H50l.8-.1h.2l.4-.1h.2l.3-.2h.2l.5-.2h.2l.6-.4.2-.1.3-.2.1-.1.2-.2h.1a1.8 1.8 0 0 0 .3-.5l.2-.2v-.1h.1v-.2l.1-.2V42l.1-.1V40Z"/><path fill="url(#H)" d="M42.6 40.2v.2l.1.2v.1l.1.2v.2l.2.2.1.1.2.2v.1l.3.2v.1l.4.2.5.4.4.2h.2l.3.2a6.2 6.2 0 0 0 .9.3l.4.1h.3l.3.1h.6l.3.1H50l.7-.1h.2l.4-.1.2-.1h.3l.2-.1.5-.2.2-.1.6-.3.4-.3c.2 0 .3-.2.4-.3l.3-.3.2-.3.1-.1.1-.2V41l.2-.3V40.4c.2-1-.4-2.1-1.8-3-.9-.5-2-.8-3.2-1a11 11 0 0 0-2.4 0c-1.2.2-2.3.6-3.2 1-.5.4-1 .7-1.2 1-.4.6-.6 1-.6 1.6v.2Z"/><path fill="url(#I)" d="M45.7 55V55.3l-.1.2v.1l-.1.1v.1l-.1.1v.1l-.2.1v.2H45v.1H45v.2l-.3.2-.1.1-.2.1-.1.2-.3.1-.1.1h-.1l-.6.4H43l-.5.2h-.1l-.4.2h-.2l-.4.1h-.1l-.8.2H38l-.1-.1h-.5l-.1-.1h-.1l-.4-.1h-.2l-.7-.3c-.2 0-.2-.1-.3-.2h-.2l-.5-.3-.4-.2V57l-.4-.2v-.1l-.3-.2v-.2l-.2-.1-.1-.2-.1-.2-.1-.1v-.2l-.1-.2V55.1l-.1-.2v1.5c0 1 .6 1.8 1.8 2.5l.5.3h.1l.3.2.7.2H36.8l.4.2h.2l.3.1H38.3l.2.1h2.7l.2-.1.3-.1h.3l.3-.2h.2l.5-.2h.1l.6-.4h.1l.2-.1.2-.2.2-.1.1-.2h.1l.3-.3V58h.1l.2-.3v-.1l.1-.2v-.1h.1V57l.1-.2V55h.2Z"/><path fill="url(#J)" d="M33.1 55.3V55.6l.2.2v.1l.2.2v.2l.2.2h.1a200.8 200.8 0 0 0 .6.6l.5.3.5.3h.1l.3.2.7.2h.2l.4.2h.3l.3.1h.6l.3.1H40.5l.7-.1h.2l.3-.1h.3l.3-.2h.2l.5-.2.2-.1.6-.3.4-.3c.2 0 .3-.2.4-.3l.3-.3v-.1l.2-.2.1-.2.1-.1.1-.2v-.2l.1-.1V55c.1-.5 0-1-.4-1.6-.3-.4-.7-.8-1.4-1.2l-1.7-.7c-1.7-.4-3.6-.4-5.3 0l-1.8.7-1.2 1c-.4.5-.6 1-.6 1.6v.4Z"/><path fill="#FF7D22" d="m36.9 53-1.6 1 3 1.3-.4.2.8.4.4-.2.5.2-.4.2.8.4.4-.2 1 .4.7-.4-1-.4 1.6-1-.8-.5-1.6 1-.5-.1.8-.5c1.1-.7.6-1.4-.3-1.9-.8-.4-2.3-.7-3.4 0Zm2.8 1.4-.8.5-2-1 .8-.5a2 2 0 0 1 2 0c.5.2.6.6 0 1ZM51.3 38.2l-2-.6-2 1.9-.4-.2-.6.6.5.1-.3.3-.5-.1-.5.5.4.1-.6.7.8.2.7-.6 2.1.6.6-.5-2.1-.6.3-.3 1 .3c1.5.4 2.6 0 3.3-.6.5-.5.8-1.3-.7-1.8Zm-2 1.8-1-.3 1.3-1.2 1 .3c.8.2.9.6.5 1-.4.3-1 .5-1.9.2Z"/><path fill="url(#K)" d="M4.7 34.4c.3.5.1 1.1-.4 1.4l-1.4.8-.5.1A1 1 0 0 1 2 36v-7.3c0-.6.3-1.1.8-1.4l2-1.2v.5c0 .3-.1.6-.4.7l-1.6 1v6.2l.6-.3c.5-.3 1-.1 1.3.3Z"/><path stroke="#1D3094" stroke-linecap="round" stroke-linejoin="round" stroke-miterlimit="10" stroke-width=".2" d="M24.9 27s.7.3 1.2 1c.2.5.2 1.8.2 1.8v20.5"/><defs><linearGradient id="a" x1="55.7" x2="14.6" y1="33.2" y2="26.6" gradientUnits="userSpaceOnUse"><stop offset=".2" stop-color="#40509F"/><stop offset=".8" stop-color="#293C8E"/><stop offset="1" stop-color="#26388B"/></linearGradient><linearGradient id="b" x1="25.1" x2="25.1" y1="27.8" y2="1.6" gradientUnits="userSpaceOnUse"><stop stop-color="#6678C4"/><stop offset=".4" stop-color="#6274BF"/><stop offset=".9" stop-color="#5866B2"/><stop offset="1" stop-color="#5664AF"/></linearGradient><linearGradient id="c" x1="25" x2="25.3" y1="28.4" y2="27.5" gradientUnits="userSpaceOnUse"><stop stop-color="#364897"/><stop offset="1" stop-color="#4759A6"/></linearGradient><linearGradient id="d" x1="49.1" x2="49.2" y1="14.6" y2="14.3" gradientUnits="userSpaceOnUse"><stop stop-color="#364897"/><stop offset="1" stop-color="#4759A6"/></linearGradient><linearGradient id="e" x1="-23" x2="26.5" y1="29.6" y2="37" gradientUnits="userSpaceOnUse"><stop stop-color="#364897"/><stop offset="1" stop-color="#4456A7"/></linearGradient><linearGradient id="f" x1="4.5" x2="24" y1="17.2" y2="52.6" gradientUnits="userSpaceOnUse"><stop offset="0" stop-color="#31439F"/><stop offset=".5" stop-color="#2F419B"/><stop offset=".5" stop-color="#213386"/><stop offset="1" stop-color="#293B92"/></linearGradient><linearGradient id="g" x1=".7" x2="19.1" y1="7.5" y2="50.2" gradientUnits="userSpaceOnUse"><stop stop-color="#6678C4"/><stop offset="0" stop-color="#6677C3"/><stop offset="1" stop-color="#5664AF"/></linearGradient><linearGradient id="h" x1="13.1" x2="13.2" y1="44.5" y2="40.8" gradientUnits="userSpaceOnUse"><stop stop-color="#293C8E" stop-opacity=".4"/><stop offset="1" stop-color="#1D3083" stop-opacity=".6"/></linearGradient><linearGradient id="i" x1="16.2" x2="9.2" y1="41" y2="29.7" gradientUnits="userSpaceOnUse"><stop stop-color="#1949A6"/><stop offset=".8" stop-color="#2891D2"/><stop offset=".9" stop-color="#278DD0"/><stop offset="1" stop-color="#2381C9"/><stop offset="1" stop-color="#2078C4"/></linearGradient><linearGradient id="j" x1="10.7" x2="10.6" y1="40.5" y2="31.5" gradientUnits="userSpaceOnUse"><stop offset=".2" stop-color="#2891D2"/><stop offset=".4" stop-color="#3899D6"/><stop offset=".7" stop-color="#449FD8"/><stop offset="1" stop-color="#48A1D9"/></linearGradient><linearGradient id="k" x1="22.5" x2="24.9" y1="35.5" y2="35.5" gradientUnits="userSpaceOnUse"><stop offset=".2" stop-color="#2891D2"/><stop offset=".3" stop-color="#278CCF"/><stop offset=".5" stop-color="#237CC5"/><stop offset=".6" stop-color="#1E63B6"/><stop offset=".6" stop-color="#1D5FB3"/><stop offset=".9" stop-color="#1E64B6"/><stop offset="1" stop-color="#1F67B8"/></linearGradient><linearGradient id="l" x1="22.5" x2="25.1" y1="47.1" y2="47.1" gradientUnits="userSpaceOnUse"><stop offset=".2" stop-color="#2891D2"/><stop offset=".3" stop-color="#278ACE"/><stop offset=".5" stop-color="#2378C3"/><stop offset=".6" stop-color="#1D5FB3"/><stop offset=".9" stop-color="#1E64B6"/><stop offset="1" stop-color="#1F67B8"/></linearGradient><linearGradient id="m" x1="13" x2="8.6" y1="40.8" y2="33.7" gradientUnits="userSpaceOnUse"><stop offset=".1" stop-color="#1949A6"/><stop offset=".8" stop-color="#2689CD"/><stop offset="1" stop-color="#2078C4"/></linearGradient><linearGradient id="n" x1="6.4" x2="19.1" y1="35.3" y2="42.7" gradientUnits="userSpaceOnUse"><stop stop-color="#77B6DE"/><stop offset=".8" stop-color="#48A1D9"/></linearGradient><linearGradient id="o" x1="16.5" x2="32.1" y1="13.2" y2="13.2" gradientUnits="userSpaceOnUse"><stop stop-color="#394B99"/><stop offset=".3" stop-color="#4759A6"/><stop offset="1" stop-color="#364897"/></linearGradient><linearGradient id="p" x1="27.8" x2="27.7" y1="10.6" y2="16.2" gradientUnits="userSpaceOnUse"><stop stop-color="#293C8E" stop-opacity=".4"/><stop offset="1" stop-color="#1D3083" stop-opacity=".6"/></linearGradient><linearGradient id="q" x1="17.6" x2="31" y1="13.8" y2="13.8" gradientUnits="userSpaceOnUse"><stop stop-color="#2C3E90"/><stop offset=".6" stop-color="#293C8E"/><stop offset=".9" stop-color="#213386"/><stop offset="1" stop-color="#1D3083"/></linearGradient><linearGradient id="r" x1="27.1" x2="22.8" y1="6.1" y2="14.1" gradientUnits="userSpaceOnUse"><stop offset=".3" stop-color="#EA6E26"/><stop offset=".5" stop-color="#FF8025"/><stop offset=".7" stop-color="#FF912D"/><stop offset="1" stop-color="#FF8C2B"/></linearGradient><linearGradient id="s" x1="20.2" x2="25.3" y1="13.5" y2="10.3" gradientUnits="userSpaceOnUse"><stop stop-color="#FFB23B"/><stop offset=".2" stop-color="#FFBB46"/><stop offset=".7" stop-color="#FFC654"/><stop offset="1" stop-color="#FFCF68"/></linearGradient><linearGradient id="t" x1="45.7" x2="52.1" y1="53.2" y2="53.2" gradientUnits="userSpaceOnUse"><stop stop-color="#FFC677"/><stop offset=".5" stop-color="#FFC169"/><stop offset="1" stop-color="#FFBB53"/></linearGradient><linearGradient id="u" x1="42.6" x2="55.1" y1="53.9" y2="53.9" gradientUnits="userSpaceOnUse"><stop stop-color="#FF8829"/><stop offset=".3" stop-color="#FF8025"/><stop offset=".7" stop-color="#FFA538"/><stop offset=".9" stop-color="#FFA035"/><stop offset="1" stop-color="#FF9731"/></linearGradient><linearGradient id="v" x1="42.6" x2="43" y1="51.5" y2="51.5" gradientUnits="userSpaceOnUse"><stop stop-color="#BB5328"/><stop offset=".4" stop-color="#C35927"/><stop offset="1" stop-color="#D76926"/><stop offset="1" stop-color="#D96A26"/></linearGradient><linearGradient id="w" x1="42.6" x2="55.1" y1="52" y2="52" gradientUnits="userSpaceOnUse"><stop stop-color="#FF8829"/><stop offset=".3" stop-color="#FF8025"/><stop offset=".7" stop-color="#FFA538"/><stop offset=".9" stop-color="#FFA035"/><stop offset="1" stop-color="#FF9731"/></linearGradient><linearGradient id="x" x1="42.6" x2="43" y1="49.6" y2="49.6" gradientUnits="userSpaceOnUse"><stop stop-color="#BB5328"/><stop offset=".4" stop-color="#C35927"/><stop offset="1" stop-color="#D76926"/><stop offset="1" stop-color="#D96A26"/></linearGradient><linearGradient id="y" x1="42.6" x2="55.1" y1="50.1" y2="50.1" gradientUnits="userSpaceOnUse"><stop stop-color="#FF8829"/><stop offset=".3" stop-color="#FF8025"/><stop offset=".7" stop-color="#FFA538"/><stop offset=".9" stop-color="#FFA035"/><stop offset="1" stop-color="#FF9731"/></linearGradient><linearGradient id="z" x1="42.6" x2="43" y1="47.7" y2="47.7" gradientUnits="userSpaceOnUse"><stop stop-color="#BB5328"/><stop offset=".4" stop-color="#C35927"/><stop offset="1" stop-color="#D76926"/><stop offset="1" stop-color="#D96A26"/></linearGradient><linearGradient id="A" x1="42.6" x2="55.1" y1="48.1" y2="48.1" gradientUnits="userSpaceOnUse"><stop stop-color="#FF8829"/><stop offset=".3" stop-color="#FF8025"/><stop offset=".7" stop-color="#FFA538"/><stop offset=".9" stop-color="#FFA035"/><stop offset="1" stop-color="#FF9731"/></linearGradient><linearGradient id="B" x1="42.6" x2="43" y1="45.7" y2="45.7" gradientUnits="userSpaceOnUse"><stop stop-color="#BB5328"/><stop offset=".4" stop-color="#C35927"/><stop offset="1" stop-color="#D76926"/><stop offset="1" stop-color="#D96A26"/></linearGradient><linearGradient id="C" x1="42.6" x2="55.1" y1="46.3" y2="46.3" gradientUnits="userSpaceOnUse"><stop stop-color="#FF8829"/><stop offset=".3" stop-color="#FF8025"/><stop offset=".7" stop-color="#FFA538"/><stop offset=".9" stop-color="#FFA035"/><stop offset="1" stop-color="#FF9731"/></linearGradient><linearGradient id="D" x1="42.6" x2="43" y1="43.9" y2="43.9" gradientUnits="userSpaceOnUse"><stop stop-color="#BB5328"/><stop offset=".4" stop-color="#C35927"/><stop offset="1" stop-color="#D76926"/><stop offset="1" stop-color="#D96A26"/></linearGradient><linearGradient id="E" x1="42.6" x2="55.1" y1="44.4" y2="44.4" gradientUnits="userSpaceOnUse"><stop stop-color="#FF8829"/><stop offset=".3" stop-color="#FF8025"/><stop offset=".7" stop-color="#FFA538"/><stop offset=".9" stop-color="#FFA035"/><stop offset="1" stop-color="#FF9731"/></linearGradient><linearGradient id="F" x1="42.6" x2="43" y1="42" y2="42" gradientUnits="userSpaceOnUse"><stop stop-color="#BB5328"/><stop offset=".4" stop-color="#C35927"/><stop offset="1" stop-color="#D76926"/><stop offset="1" stop-color="#D96A26"/></linearGradient><linearGradient id="G" x1="42.6" x2="55.1" y1="42.5" y2="42.5" gradientUnits="userSpaceOnUse"><stop stop-color="#FF8829"/><stop offset=".3" stop-color="#FF8025"/><stop offset=".7" stop-color="#FFA538"/><stop offset=".9" stop-color="#FFA035"/><stop offset="1" stop-color="#FF9731"/></linearGradient><linearGradient id="H" x1="42.6" x2="55.1" y1="40.1" y2="40.1" gradientUnits="userSpaceOnUse"><stop stop-color="#FFAE36"/><stop offset=".3" stop-color="#FFBB46"/><stop offset=".7" stop-color="#FFC654"/><stop offset="1" stop-color="#FFCA59"/></linearGradient><linearGradient id="I" x1="33.2" x2="45.7" y1="57.4" y2="57.4" gradientUnits="userSpaceOnUse"><stop stop-color="#FF8829"/><stop offset=".3" stop-color="#FF8025"/><stop offset=".7" stop-color="#FFA538"/><stop offset=".9" stop-color="#FFA035"/><stop offset="1" stop-color="#FF9731"/></linearGradient><linearGradient id="J" x1="37.1" x2="41.5" y1="51.1" y2="58.8" gradientUnits="userSpaceOnUse"><stop stop-color="#FFAE36"/><stop offset=".3" stop-color="#FFBB46"/><stop offset=".7" stop-color="#FFC654"/><stop offset="1" stop-color="#FFCA59"/></linearGradient><linearGradient id="K" x1="2" x2="4.9" y1="31.4" y2="31.4" gradientUnits="userSpaceOnUse"><stop stop-color="#146DC1"/><stop offset="1" stop-color="#1C78C6"/></linearGradient></defs></svg>