<svg xmlns="http://www.w3.org/2000/svg" fill="none" viewBox="0 0 49 60"><path fill="url(#a)" d="M9.2 10C7.9 7.4 9 5 10 4.4c1-.7 3.7 1.7 3.7 1.7L9.2 10Z"/><path fill="url(#b)" d="M45.3 29c-1.1 1.7.2 3.3-.7 5.4-1 2.1-4 2.5-4 2.5.4-.3 1.8-1.4-.4-3.8-2-2.3-2-6.8-1.7-10.2.3-2.5.7-4.3.7-4.3.7-2.7 5.7-3 7.3.6a10 10 0 0 1-1.2 9.8Z"/><path fill="url(#c)" d="M40.6 36.9c.4-.3 1.8-1.4-.4-3.8-2-2.3-2-6.9-1.7-10.2l1.7-2.6c3.1.1 5 3.1 1.8 9.6-1.6 3.3 2.2 5-1.4 7Z" opacity=".8"/><path fill="url(#d)" d="M37.4 18.3c.7-1.4 2.8-.5 3.7 1.8.8 2.3-1 3.4-2.3 2.8-1.2-.5-1.4-4.6-1.4-4.6Z"/><path fill="#FFD577" d="M22.8 41.4c-.2.3-.5.5-1 .6-1.8.7-5.9-.4-10.1-2.8a18.5 18.5 0 0 1-7.4-6.6l-.1-.3c-.2-.6-.2-1 0-1.5.4-.5.9-.7 1.6-.8 1 0 2.4.1 4 .6a28 28 0 0 1 11.6 7.2l.3.3.1.1c1 1.4 1.4 2.5 1 3.2Z"/><path fill="url(#e)" d="M30.5 43.9c-.3.5-.8.8-1.5 1a7 7 0 0 1-5-1A8.5 8.5 0 0 1 22 42c-1.2-1.3-1.6-2.7-1-3.7l.4-.5L9.7 32c-.4.7-1.1 1-2 1.2-1 0-2.2-.1-3.4-.6h-.1l-1-.5c-2-1.2-3.2-3-3.2-4.5v-.5c.7-3 1.5-5.9 3.1-6.9 2-1.2 4.7-.4 8 .5l1.1.3.3.1c2.1.7 4.3 1.6 6.4 2.7 2.3 1.2 4.5 2.6 6.3 4.2 1.5 1.4 2.8 3 3.6 4.8 1.2 2.8 1.7 8 1.9 9.5a2 2 0 0 1-.2 1.6Z"/><path fill="url(#f)" d="M13 22.5 7.6 33.2c-1 .1-2.2 0-3.4-.6h-.1l-1-.5c-2-1.2-3.2-3-3.2-4.4V27c.7-3 1.5-5.8 3.1-6.9 2-1.2 4.7-.4 8 .5l1.1.3.7 1.5Z"/><path fill="url(#g)" d="M25.2 28c-.2 0-1 .1-1.8 1.5-.7 1.2-1.5 3.6-1.6 8.1V42c-1.8.6-6.7-.7-10.9-3a15.9 15.9 0 0 1-6.7-6.5v-1.8l.2-1.4c.1-1.2.3-2.3.6-3.3 1-3.3 2.9-6 5.2-5.5l.8.2h.1l1.4.4c2.1.7 4.3 1.6 6.4 2.7a29 29 0 0 1 6.3 4.2Z"/><path fill="url(#h)" d="M30.5 43.9c-.3.5-.8.8-1.5 1 .5-4.3.3-9.4-2-12.8-.3-.6-1.8-2.3-3.8-3.3-2-1-4.5-1.1-8-1.4l2.5-2.5 1.2-1.1c2.3 1.2 4.5 2.6 6.3 4.2 1.5 1.4 2.8 3 3.6 4.8 1.2 2.8 1.8 8 1.9 9.5 0 .6 0 1.1-.2 1.6Z" opacity=".5"/><path fill="url(#i)" d="M19.8 24.6c-.2-2 0-5.7.5-8.2.2-1.2-1.4-.4-3.3-1.5-2.2-1.2-4.5-1.3-5.2 0-.2.2-.2.4-.2.7v.2c.4 2 .8 4.2-.1 6.4-.6 2.1.3 4 2 4.8 1.8 1 5.4 0 6.1-1.3.2-.3.3-.7.2-1.1Z"/><path fill="url(#j)" d="M21.3 13.1c-.4 1.5-.5 3.2-1.3 4.3-2.2 3.2-5.5 5-8.2 4.2-2.4-.7-4.5-6-3.3-11.4 1.6-7.3 6.1-8.8 9.8-7.7 3.8 1 4.6 5.3 3 10.6Z"/><path fill="#FFD577" d="M40.2 56.4c-.2.3-.5.5-.9.7-1.9.6-6-.5-10.2-2.9a18.5 18.5 0 0 1-7.4-6.6v-.3c-.3-.5-.3-1 0-1.4v-.1c.3-.4.8-.7 1.5-.7 1-.2 2.5 0 4 .6A28 28 0 0 1 39 52.8l.2.3.1.2c1 1.3 1.4 2.4 1 3.1Z"/><path fill="url(#k)" d="M48 58.9c-.4.5-.9.8-1.5 1a7 7 0 0 1-5-1 8.5 8.5 0 0 1-2.2-1.8c-1.1-1.3-1.5-2.7-1-3.7l.5-.4L27 47v.1c-.8 1.3-3 1.5-5.3.5h-.2l-.9-.5c-2.1-1.2-3.5-3-3.5-4.4l.1-.6c1.3-6.6 5.2-8 11.2-6.4l1.4.4c2.2.8 4.4 1.7 6.5 2.7 2.3 1.2 4.4 2.6 6.2 4.2 1.6 1.4 2.8 3 3.6 4.9 1.2 2.7 1.8 8 2 9.4 0 .6 0 1.1-.3 1.6Z"/><path fill="url(#l)" d="M42.6 43c-.2 0-1 .2-1.8 1.5-.7 1.3-1.4 3.7-1.6 8.1v.6l.1 3.8v.1c-2 .6-6.7-.7-11-3.1a15.3 15.3 0 0 1-6.6-6.4h-.1v-1.8l.2-1.5c.1-1.2.3-2.3.6-3.3 1-3.3 2.9-6 5.2-5.5l.8.2h.1l1.4.4c2.2.8 4.4 1.6 6.4 2.7 2.4 1.2 4.5 2.6 6.3 4.2Z"/><path fill="url(#m)" d="M48 58.9c-.4.5-.9.8-1.5 1 .5-4.2.2-9.3-2-12.8-.4-.6-1.9-2.3-3.9-3.3-2-.9-4.4-1.1-8-1.4l2.6-2.5 1.2-1c2.3 1.1 4.5 2.5 6.2 4.1 1.6 1.4 2.9 3 3.7 4.9 1.2 2.7 1.7 8 1.8 9.5.1.5 0 1-.2 1.5Z" opacity=".8"/><path fill="url(#n)" d="M37.3 39.6c-.2-2 0-5 .4-8.1.2-1.3-1.3-.5-3.2-1.6-2.2-1.2-4.6-1.2-5.3 0l-.2.7v.2c.5 2.1.8 4.2 0 6.4-.5 2 .3 4 1.9 4.8 1.8 1 5.5 0 6.2-1.3.2-.3.3-.7.2-1Z"/><path fill="url(#o)" d="M39.1 28.1c-1.6 5.4-6.2 9.7-9.8 8.5-2.5-.7-4.5-6-3.3-11.4 1.6-7.3 6-8.8 9.8-7.8 3.7 1.1 4.9 5.4 3.3 10.7Z"/><path fill="url(#p)" d="m16.9 26.6-5.4 13.8H11l-2.1.2-.7.2s-1.5-6.4 1-11.2a6.3 6.3 0 0 1 7.7-3Z"/><path fill="url(#q)" d="M13 35.2s-1 3-2 5.2l-2.1.2c-.9-5.9.2-9.8 2.7-11 .2 0 1.3 5.6 1.3 5.6Z" opacity=".7"/><path fill="#FFD577" d="M19.7 57c-.2.3-.4.4-.7.5-1.4.5-4.3-.3-7.4-2.1a13.6 13.6 0 0 1-5.4-4.9v-.2c-.2-.4-.2-.8 0-1v-.1c.2-.3.6-.5 1-.6a8 8 0 0 1 3 .5 21.4 21.4 0 0 1 8.5 5.3l.2.2v.1c.8 1 1 1.8.8 2.3Z"/><path fill="url(#r)" d="M25.3 58.9c-.2.3-.6.6-1 .7-1 .3-2.4 0-3.7-.7L19 57.6c-.8-1-1.1-2-.7-2.8l.3-.3-8.5-4.4c-.6 1-2.2 1.2-3.9.5l-.8-.4C4 49.2 3 48 3 46.9v-.5c1-4.8 3.9-5.9 8.2-4.7l1 .4c1.6.5 3.2 1.2 4.7 2 1.7.8 3.3 1.8 4.6 3 1.2 1 2 2.3 2.6 3.6 1 2 1.3 6 1.4 7 .1.5 0 .8-.1 1.2Z"/><path fill="url(#s)" d="M21.4 47.1c-.1 0-.7.1-1.2 1.1-.6 1-1.1 2.7-1.2 6v3.3c-1.4.5-4.3-.3-7.4-2a13.6 13.6 0 0 1-5.4-5v-1.3a17 17 0 0 1 .5-3.5c.7-2.5 2-4.4 3.8-4.1a189.1 189.1 0 0 0 1.7.5 36 36 0 0 1 4.7 2c1.6.8 3.2 1.8 4.5 3Z"/><path fill="url(#t)" d="M25.3 58.9c-.2.3-.6.6-1 .7.3-3.1.1-6.9-1.5-9.5a7.7 7.7 0 0 0-2.9-2.4c-1.4-.7-3.2-.8-5.7-1l1.8-1.9.8-.8c1.7.9 3.3 2 4.6 3.1 1.2 1 2 2.3 2.6 3.6 1 2 1.3 6 1.4 7 .1.5 0 .8-.1 1.2Z" opacity=".8"/><path fill="url(#u)" d="M17.5 44.6v-4.2c.2-1-.6-2.2-2-3-1.6-.9-3.3-.9-3.8 0l-.2.6v5.2c-.2 1 .2 2.6 1.4 3.2 1.3.7 4 0 4.5-1 .1-.2.2-.5.1-.8Z"/><path fill="url(#v)" d="M19.4 36.9c-.9 4-4.5 6.7-7.2 6-1.9-.4-3.5-4.2-3-8.3 1-5.5 4.1-6.8 6.9-6.1 2.7.6 4.3 4.4 3.3 8.4Z"/><path fill="url(#w)" d="M16.4 26.4c1-.5 5.3 1.2 6.5 5 1.6 4.7.2 9.6-.3 10.8-.2.6-2.7 2.1-6 2.5.6-1.3 1.5-7.2.6-7.7-2.6-1.4-5.4-3.8-5.9-6.6-.1-.7.2-1.4.7-1.7 1-.6 2.7-1.6 4.4-2.3Z"/><path fill="url(#x)" d="M25.8 26.1c-1.7-3.4.6-7 3.3-8.4 2.7-1.4 8.1-1.4 9.8 1.6 1.7 3-6.2-.5-9.1-.1-2.6.4-4 7-4 7Z"/><path fill="url(#y)" d="M28.1 20.7c-.4 3 4.5 8.4 9 7.6 1.3-.2.8.4.7 1.8l-.3 2.8s6.5-5.4 2.7-12.6c-.9-1.8-2.3-2.6-2.6-2.8-.3-.1-4.2-2.2-9 2.2l-.5 1Z"/><path fill="url(#z)" d="M36.6 28.9c0-.3.4-.9.8-1.2 1.1-1 2-.2 2 .3.2.8-.7 3.2-1.7 3.4h-.1c-.9 0-1-1-1-1.2v-1.3Z"/><path fill="url(#A)" d="M24 12.7c-.5 2-2 4-4 5.5l.2-1 1-2.9c0-.6-.7-1.4-.7-1.4C20.5 10 20 9.4 19 9c-.6-.1-4.3.2-7.7-1C8.6 7 7 3.5 9.6 0c3 2.5 6.5.2 10.7 2a6.5 6.5 0 0 1 3.4 3c1.2 2.4.9 5.3.4 7.6Z"/><path fill="url(#B)" d="M20.2 12.7c0-.3.4-1 .8-1.3 1.2-1 2.2-.2 2.3.3.2 1-.8 3.7-2 3.8h-.1c-1 .1-1-1-1-1.3v-1.5Z"/><path fill="url(#C)" d="M23.7 5c-.9-1.4-2.3-2.5-4.1-2.5-2.6.1-8.4.7-10-2.5 3 2.6 6.5.3 10.7 2 1.7.7 2.8 1.8 3.4 3Z" opacity=".5"/><defs><linearGradient id="a" x1="9.2" x2="12.2" y1="12.9" y2="3.5" gradientUnits="userSpaceOnUse"><stop offset=".2" stop-color="#835648"/><stop offset=".8" stop-color="#48170B"/></linearGradient><linearGradient id="b" x1="39.4" x2="47.1" y1="18.5" y2="36.5" gradientUnits="userSpaceOnUse"><stop stop-color="#BB7241"/><stop offset=".3" stop-color="#B36C3E"/><stop offset=".8" stop-color="#9D5C38"/><stop offset="1" stop-color="#8F5133"/></linearGradient><linearGradient id="c" x1="38" x2="44.9" y1="24.9" y2="32.8" gradientUnits="userSpaceOnUse"><stop offset=".1" stop-color="#3E150D" stop-opacity=".9"/><stop offset=".4" stop-color="#46180D" stop-opacity=".5"/><stop offset="1" stop-color="#5B1F0D" stop-opacity="0"/></linearGradient><linearGradient id="d" x1="37.1" x2="41.7" y1="18.5" y2="22.8" gradientUnits="userSpaceOnUse"><stop stop-color="#2891D2"/><stop offset=".4" stop-color="#2388CE"/><stop offset="1" stop-color="#156EC4"/><stop offset="1" stop-color="#146DC3"/></linearGradient><linearGradient id="e" x1="0" x2="30.7" y1="32.3" y2="32.3" gradientUnits="userSpaceOnUse"><stop stop-color="#818CC4"/><stop offset=".1" stop-color="#7D88C2"/><stop offset=".1" stop-color="#707DBC"/><stop offset=".2" stop-color="#5C69B2"/><stop offset=".2" stop-color="#5664AF"/><stop offset=".6" stop-color="#2891D2"/><stop offset=".9" stop-color="#165AB7"/></linearGradient><linearGradient id="f" x1=".6" x2="7.2" y1="23.6" y2="26.4" gradientUnits="userSpaceOnUse"><stop stop-color="#48A1D9"/><stop offset="1" stop-color="#1166C1"/></linearGradient><linearGradient id="g" x1="3.8" x2="21" y1="24.7" y2="35" gradientUnits="userSpaceOnUse"><stop stop-color="#48A1D9"/><stop offset=".3" stop-color="#3288CC"/><stop offset="1" stop-color="#1A6DBD"/></linearGradient><linearGradient id="h" x1="15.2" x2="30.7" y1="34.3" y2="34.3" gradientUnits="userSpaceOnUse"><stop stop-color="#192C98"/><stop offset=".8" stop-color="#1954C7"/></linearGradient><linearGradient id="i" x1="11.1" x2="18.9" y1="24.9" y2="17.1" gradientUnits="userSpaceOnUse"><stop offset=".1" stop-color="#E19D8F"/><stop offset=".3" stop-color="#DD9080"/><stop offset=".5" stop-color="#DB8A79"/><stop offset="1" stop-color="#B97162"/></linearGradient><linearGradient id="k" x1="17.2" x2="48.2" y1="47.5" y2="47.5" gradientUnits="userSpaceOnUse"><stop stop-color="#77B6DE"/><stop offset=".1" stop-color="#73B4DE"/><stop offset=".1" stop-color="#66AFDC"/><stop offset=".2" stop-color="#52A5DA"/><stop offset=".2" stop-color="#48A1D9"/><stop offset=".8" stop-color="#77B6DE"/><stop offset=".9" stop-color="#2891D2"/></linearGradient><linearGradient id="l" x1="25.5" x2="39.6" y1="36.2" y2="55.8" gradientUnits="userSpaceOnUse"><stop stop-color="#96C8E6"/><stop offset=".1" stop-color="#87C0E3"/><stop offset=".5" stop-color="#65AFDE"/><stop offset=".7" stop-color="#50A5DA"/><stop offset=".9" stop-color="#48A1D9"/></linearGradient><linearGradient id="m" x1="32.7" x2="48.2" y1="49.3" y2="49.3" gradientUnits="userSpaceOnUse"><stop offset="0" stop-color="#146DC3"/><stop offset="1" stop-color="#407CB8" stop-opacity=".6"/></linearGradient><linearGradient id="n" x1="27.6" x2="35.4" y1="40.8" y2="33.1" gradientUnits="userSpaceOnUse"><stop offset=".2" stop-color="#E4A79A"/><stop offset=".7" stop-color="#DB8A79"/><stop offset="1" stop-color="#C77C6D"/></linearGradient><linearGradient id="r" x1="2.8" x2="25.8" y1="47.9" y2="52.4" gradientUnits="userSpaceOnUse"><stop offset=".1" stop-color="#FFD577"/><stop offset=".1" stop-color="#FFD576"/><stop offset=".3" stop-color="#FFC541"/><stop offset=".4" stop-color="#FFC747"/><stop offset=".6" stop-color="#FFCC58"/><stop offset=".7" stop-color="#FFD474"/><stop offset=".8" stop-color="#FFD577"/><stop offset="1" stop-color="#FFBF2E"/></linearGradient><linearGradient id="s" x1="8.9" x2="19.3" y1="42.1" y2="56.5" gradientUnits="userSpaceOnUse"><stop stop-color="#FFDF97"/><stop offset="1" stop-color="#FFBF2E"/></linearGradient><linearGradient id="t" x1="14.2" x2="25.5" y1="51.8" y2="51.8" gradientUnits="userSpaceOnUse"><stop stop-color="#FF964E"/><stop offset="1" stop-color="#FFB03A"/></linearGradient><linearGradient id="u" x1="9.4" x2="14.6" y1="46.5" y2="41.4" gradientUnits="userSpaceOnUse"><stop offset=".3" stop-color="#E4A79A"/><stop offset="1" stop-color="#DB8A79"/></linearGradient><linearGradient id="x" x1="23.8" x2="36.8" y1="27.7" y2="16.6" gradientUnits="userSpaceOnUse"><stop offset=".2" stop-color="#BB7241"/><stop offset="1" stop-color="#83482F"/></linearGradient><linearGradient id="y" x1="32.1" x2="40.5" y1="19" y2="29" gradientUnits="userSpaceOnUse"><stop stop-color="#C27F4C"/><stop offset=".2" stop-color="#BB7241"/><stop offset=".4" stop-color="#B46D3F"/><stop offset=".7" stop-color="#A05E38"/><stop offset="1" stop-color="#83482F"/></linearGradient><linearGradient id="C" x1="9.6" x2="23.7" y1="2.5" y2="2.5" gradientUnits="userSpaceOnUse"><stop offset=".2" stop-color="#48170B"/><stop offset=".8" stop-color="#5B1F0D" stop-opacity=".6"/></linearGradient><radialGradient id="j" cx="0" cy="0" r="1" gradientTransform="matrix(12.88398 -2.03946 3.45488 21.82565 8.2 14.7)" gradientUnits="userSpaceOnUse"><stop stop-color="#FBCFC5"/><stop offset=".4" stop-color="#F4C1B6"/><stop offset="1" stop-color="#E6A597"/></radialGradient><radialGradient id="o" cx="0" cy="0" r="1" gradientTransform="rotate(-9 201.7 -148.5) scale(13.2625 22.4605)" gradientUnits="userSpaceOnUse"><stop offset=".1" stop-color="#E9B7AC"/><stop offset=".4" stop-color="#E7B0A4"/><stop offset=".5" stop-color="#E4A79A"/><stop offset="1" stop-color="#DE9585"/></radialGradient><radialGradient id="p" cx="0" cy="0" r="1" gradientTransform="translate(4.9 18.4) scale(24.8438)" gradientUnits="userSpaceOnUse"><stop offset=".2" stop-color="#835648"/><stop offset="1" stop-color="#5A2B1E"/></radialGradient><radialGradient id="q" cx="0" cy="0" r="1" gradientTransform="translate(13.9 25.6) scale(16.7108)" gradientUnits="userSpaceOnUse"><stop stop-color="#53291D"/><stop offset=".3" stop-color="#462115"/><stop offset=".8" stop-color="#36170B"/></radialGradient><radialGradient id="v" cx="0" cy="0" r="1" gradientTransform="matrix(12.9996 0 0 12.9995 10 40.5)" gradientUnits="userSpaceOnUse"><stop offset=".1" stop-color="#F9D4CC"/><stop offset="1" stop-color="#E4A79A"/></radialGradient><radialGradient id="w" cx="0" cy="0" r="1" gradientTransform="translate(10 30.2) scale(17.3533)" gradientUnits="userSpaceOnUse"><stop stop-color="#A37756"/><stop offset=".4" stop-color="#835648"/><stop offset="1" stop-color="#5A2B1E"/></radialGradient><radialGradient id="z" cx="0" cy="0" r="1" gradientTransform="matrix(21.09086 1.52605 -1.52605 21.09076 26 35.2)" gradientUnits="userSpaceOnUse"><stop stop-color="#E7B1A6"/><stop offset=".4" stop-color="#E4A79A"/><stop offset=".9" stop-color="#DE9585"/></radialGradient><radialGradient id="A" cx="0" cy="0" r="1" gradientTransform="translate(9.2 2.7) scale(26.8276)" gradientUnits="userSpaceOnUse"><stop offset=".2" stop-color="#835648"/><stop offset="1" stop-color="#48170B"/></radialGradient><radialGradient id="B" cx="0" cy="0" r="1" gradientTransform="rotate(4.1 -269.8 121.4) scale(23.8437 23.8436)" gradientUnits="userSpaceOnUse"><stop stop-color="#FDC4B8"/><stop offset="1" stop-color="#DE9585"/></radialGradient></defs></svg>